<?xml version="1.0" encoding="UTF-8" standalone="no"?>
<svg
   xmlns:dc="http://purl.org/dc/elements/1.1/"
   xmlns:cc="http://creativecommons.org/ns#"
   xmlns:rdf="http://www.w3.org/1999/02/22-rdf-syntax-ns#"
   xmlns:svg="http://www.w3.org/2000/svg"
   xmlns="http://www.w3.org/2000/svg"
   xmlns:sodipodi="http://sodipodi.sourceforge.net/DTD/sodipodi-0.dtd"
   xmlns:inkscape="http://www.inkscape.org/namespaces/inkscape"
   width="192mm"
   height="192mm"
   viewBox="-96 -96 192 192"
   version="1.1"
   id="svg65"
   sodipodi:docname="altitude_final.svg"
   inkscape:version="0.92.5 (2060ec1f9f, 2020-04-08)">
  <metadata
     id="metadata71">
    <rdf:RDF>
      <cc:Work
         rdf:about="">
        <dc:format>image/svg+xml</dc:format>
        <dc:type
           rdf:resource="http://purl.org/dc/dcmitype/StillImage" />
      </cc:Work>
    </rdf:RDF>
  </metadata>
  <defs
     id="defs69" />
  <sodipodi:namedview
     pagecolor="#ffffff"
     bordercolor="#666666"
     borderopacity="1"
     objecttolerance="10"
     gridtolerance="10"
     guidetolerance="10"
     inkscape:pageopacity="0"
     inkscape:pageshadow="2"
     inkscape:window-width="1920"
     inkscape:window-height="1051"
     id="namedview67"
     showgrid="false"
     inkscape:zoom="0.91985263"
     inkscape:cx="521.25787"
     inkscape:cy="336.8128"
     inkscape:window-x="0"
     inkscape:window-y="0"
     inkscape:window-maximized="1"
     inkscape:current-layer="svg65" />
  <title
     id="title61">OpenSCAD Model</title>
  <path
     d="m -95.232,1.14748 0.0395,0.11161 0.0945,0.05439 0.1083,0.02006 0.1054,0.03331 0.1017,0.04607 0.0972,0.05833 0.0994,0.10378 0.0729,0.12301 0.0456,0.13643 0.0175,0.14397 -0.0114,0.14456 -0.0399,0.13823 -0.0677,0.12596 -0.095,0.10785 -0.0947,0.06218 -0.0996,0.05031 -0.1039,0.03778 -0.1074,0.02464 -0.0921,0.05815 -0.0348,0.11327 0.0094,0.30028 0.0419,0.11073 0.0955,0.05238 0.1088,0.01781 0.106,0.03108 0.1026,0.04393 0.0985,0.05629 0.1015,0.10167 0.0755,0.12146 0.0485,0.13545 0.0204,0.14356 -0.0083,0.14477 -0.037,0.13903 -0.0651,0.12736 -0.0926,0.1098 -0.0934,0.06417 -0.0986,0.05238 -0.1031,0.03995 -0.1068,0.02688 -0.0909,0.06008 -0.0324,0.11395 0.0157,0.30003 0.0441,0.10982 0.0967,0.05039 0.1091,0.01551 0.1066,0.02886 0.1036,0.04176 0.0996,0.05423 0.1036,0.09952 0.078,0.11986 0.0513,0.1344 0.0235,0.14309 -0.0054,0.14493 -0.034,0.13976 -0.0624,0.12869 -0.0903,0.11172 -0.0921,0.06611 -0.0974,0.05442 -0.1022,0.04212 -0.1063,0.02911 -0.0896,0.06197 -0.03,0.11465 0.022,0.29958 0.0464,0.10889 0.0977,0.04834 0.1094,0.01322 0.1072,0.02663 0.1044,0.03958 0.1007,0.05213 0.1057,0.09733 0.0805,0.1182 0.0541,0.13328 0.0265,0.1426 -0.0023,0.14498 -0.0311,0.14046 -0.0597,0.12996 -0.088,0.1136 -0.0906,0.06801 -0.0963,0.05646 -0.1013,0.04423 -0.1057,0.03135 -0.0882,0.06382 -0.0277,0.11525 0.0283,0.29907 0.0487,0.10787 0.0987,0.04629 0.1096,0.01094 0.1078,0.02437 0.1052,0.03739 0.1018,0.05 0.1077,0.09511 0.083,0.11647 0.0568,0.13214 0.0295,0.142 7e-4,0.14502 -0.0281,0.1411 -0.057,0.1311 -0.0856,0.1155 -0.0891,0.0699 -0.0951,0.0584 -0.1004,0.0464 -0.105,0.0335 -0.0869,0.0657 -0.0252,0.1158 0.0345,0.2984 0.051,0.1068 0.0996,0.0442 0.1099,0.0087 0.1083,0.0221 0.1059,0.0352 0.1028,0.0478 0.1097,0.0928 0.0854,0.1148 0.0596,0.1309 0.0324,0.1413 0.0038,0.145 -0.0252,0.1416 -0.0542,0.1324 -0.0832,0.1171 -0.0877,0.0718 -0.0938,0.0604 -0.0994,0.0485 -0.1042,0.0357 -0.0855,0.0675 -0.0228,0.1163 0.0408,0.2976 0.0531,0.1057 0.1006,0.0422 0.11,0.0063 0.1087,0.0198 0.1066,0.033 0.1038,0.0457 0.1116,0.0905 0.0878,0.1129 0.0624,0.1296 0.0353,0.1407 0.0068,0.1448 -0.0222,0.1421 -0.0514,0.1335 -0.0807,0.1189 -0.0862,0.0736 -0.0925,0.0624 -0.0984,0.0505 -0.1034,0.0379 -0.0841,0.0692 -0.0204,0.1168 0.047,0.2967 0.0554,0.1046 0.1014,0.04 0.1102,0.004 0.1091,0.0176 0.1073,0.0307 0.1047,0.0435 0.1134,0.0881 0.0902,0.1111 0.065,0.1283 0.0383,0.1399 0.0099,0.1446 -0.0193,0.1426 -0.0486,0.1345 -0.0782,0.1206 -0.0846,0.0753 -0.0912,0.0643 -0.0972,0.0526 -0.1027,0.0401 -0.0826,0.071 -0.0179,0.1171 0.0532,0.2956 0.0576,0.1035 0.1022,0.0379 0.1101,0.0017 0.1095,0.0152 0.1079,0.0285 0.1056,0.0413 0.1153,0.0858 0.0925,0.1091 0.0677,0.1269 0.0412,0.139 0.0129,0.1445 -0.0163,0.1429 -0.0458,0.1355 -0.0756,0.1222 -0.083,0.0771 -0.0899,0.0662 -0.0961,0.0546 -0.1018,0.0422 -0.0811,0.0727 -0.0155,0.1175 0.0594,0.2945 0.0598,0.1022 0.103,0.0357 0.1101,-6e-4 0.1098,0.013 0.1085,0.0262 0.1064,0.0391 0.1171,0.0833 0.0947,0.1072 0.0704,0.1254 0.0441,0.1382 0.0159,0.1441 -0.0133,0.1433 -0.0429,0.1364 -0.0731,0.1237 -0.0813,0.0788 -0.0885,0.0681 -0.095,0.0566 -0.1009,0.0443 -0.0795,0.0744 -0.013,0.1178 0.0655,0.2932 0.0619,0.1009 0.1037,0.0336 0.1101,-0.0029 0.11,0.0106 0.1091,0.024 0.1072,0.0368 0.1188,0.0809 0.0969,0.1051 0.073,0.124 0.047,0.1372 0.0189,0.1437 -0.0103,0.1435 -0.04,0.1373 -0.0705,0.1253 -0.0797,0.0805 -0.087,0.0699 -0.0938,0.0586 -0.0999,0.0464 -0.078,0.076 -0.0105,0.1181 0.0716,0.2917 0.064,0.0996 0.1044,0.0314 0.1101,-0.0052 0.1102,0.0084 0.1095,0.0216 0.108,0.0346 0.1204,0.0783 0.0991,0.1031 0.0756,0.1224 0.0498,0.1362 0.0219,0.1434 -0.0072,0.1436 -0.0372,0.1381 -0.0678,0.1267 -0.078,0.0822 -0.0855,0.0717 -0.0925,0.0605 -0.099,0.0485 -0.0764,0.0777 -0.008,0.1182 0.0778,0.2902 0.066,0.0982 0.105,0.0292 0.1099,-0.0075 0.1104,0.0061 0.1099,0.0193 0.1087,0.0323 0.1221,0.0758 0.1012,0.1011 0.0781,0.1207 0.0527,0.1351 0.0249,0.1429 -0.0042,0.1438 -0.0343,0.1389 -0.0651,0.128 -0.0763,0.0838 -0.084,0.0735 -0.0912,0.0624 -0.0979,0.0506 -0.0748,0.0793 -0.0055,0.1183 0.0838,0.2885 0.0681,0.0969 0.1056,0.0269 0.1097,-0.0098 0.1105,0.0038 0.1103,0.017 0.1093,0.03 0.1236,0.0733 0.1034,0.0988 0.0806,0.1192 0.0555,0.1339 0.0279,0.1423 -0.0012,0.1439 -0.0314,0.1395 -0.0624,0.1294 -0.0745,0.0854 -0.0825,0.0753 -0.0899,0.0643 -0.0968,0.0526 -0.0731,0.0808 -0.003,0.1184 0.0898,0.2867 0.0701,0.0954 0.1062,0.0248 0.1095,-0.0121 0.1105,0.0014 0.1106,0.0147 0.11,0.0278 0.1251,0.0706 0.1054,0.0967 0.0831,0.1174 0.0583,0.1328 0.0309,0.1416 0.0017,0.1439 -0.0284,0.1402 -0.0597,0.1306 -0.0727,0.0869 -0.0809,0.077 -0.0885,0.0662 -0.0957,0.0546 -0.0713,0.0823 -7e-4,0.1185 0.0959,0.2848 0.0721,0.0939 0.1066,0.0225 0.1092,-0.0144 0.1105,-9e-4 0.111,0.0124 0.1105,0.0254 0.1265,0.068 0.1075,0.0945 0.0855,0.1157 0.0611,0.1315 0.0338,0.141 0.0048,0.1438 -0.0255,0.1407 -0.057,0.1319 -0.0708,0.0884 -0.0793,0.0786 -0.0871,0.0681 -0.0945,0.0566 -0.0696,0.0838 0.0019,0.1185 0.1017,0.2826 0.074,0.0924 0.1071,0.0203 0.109,-0.0167 0.1104,-0.0032 0.1112,0.0101 0.111,0.0231 0.128,0.0653 0.1093,0.0922 0.088,0.1138 0.0638,0.1303 0.0368,0.1402 0.0078,0.1437 -0.0226,0.1412 -0.0542,0.1331 -0.069,0.0898 -0.0775,0.0803 -0.0857,0.0699 -0.0933,0.0586 -0.0679,0.0852 0.0044,0.1184 0.1076,0.2805 0.076,0.0908 0.1075,0.018 0.1085,-0.0189 0.1104,-0.0056 0.1113,0.0078 0.1115,0.0208 0.1293,0.0626 0.1113,0.0899 0.0903,0.1119 0.0665,0.1289 0.0397,0.1395 0.0109,0.1434 -0.0196,0.1417 -0.0514,0.1342 -0.0671,0.0913 -0.0759,0.0818 -0.0842,0.0717 -0.092,0.0605 -0.0661,0.0866 0.0068,0.1183 0.1135,0.2782 0.0779,0.0892 0.1078,0.0158 0.1081,-0.0213 0.1103,-0.0078 0.1115,0.0054 0.1119,0.0185 0.1305,0.0599 0.1132,0.0875 0.0926,0.11 0.0692,0.1275 0.0426,0.1386 0.0138,0.1432 -0.0166,0.142 -0.0485,0.1353 -0.0652,0.0926 -0.0741,0.0835 -0.0827,0.0734 -0.0908,0.0624 -0.0642,0.088 0.0093,0.1181 0.1193,0.2758 0.0797,0.0875 0.1081,0.0135 0.1077,-0.0235 0.11,-0.0101 0.1116,0.0031 0.1123,0.0161 0.1318,0.0571 0.1149,0.0852 0.0949,0.1081 0.0719,0.1259 0.0455,0.1377 0.0168,0.1429 -0.0136,0.1423 -0.0457,0.1362 -0.0633,0.0941 -0.0723,0.085 -0.0811,0.075 -0.0895,0.0644 -0.0624,0.0893 0.0118,0.1179 0.1251,0.2732 0.0815,0.0858 0.1084,0.0113 0.1071,-0.0258 0.1098,-0.0124 0.1117,7e-4 0.1125,0.0138 0.133,0.0544 0.1167,0.0827 0.0971,0.1061 0.0745,0.1244 0.0484,0.1367 0.0198,0.1425 -0.0106,0.1426 -0.0429,0.1371 -0.0612,0.0954 -0.0706,0.0864 -0.0795,0.0768 -0.0881,0.0662 -0.0605,0.0906 0.0142,0.1177 0.1308,0.2704 0.0833,0.0841 0.1086,0.009 0.1066,-0.0279 0.1095,-0.0148 0.1116,-0.0016 0.1128,0.0114 0.1341,0.0516 0.1184,0.0803 0.0994,0.104 0.0771,0.1228 0.0512,0.1357 0.0228,0.142 -0.0077,0.1428 -0.04,0.138 -0.0592,0.0966 -0.0687,0.088 -0.0779,0.0784 -0.0867,0.068 -0.0586,0.0919 0.0167,0.1173 0.1364,0.2676 0.085,0.0824 0.1088,0.0067 0.106,-0.0302 0.1092,-0.017 0.1115,-0.0039 0.1131,0.009 0.1351,0.0488 0.12,0.0777 0.1016,0.1019 0.0796,0.1212 0.0541,0.1346 0.0257,0.1415 -0.0047,0.143 -0.037,0.1388 -0.0572,0.0978 -0.0669,0.0893 -0.0763,0.0801 -0.0852,0.0698 -0.0566,0.093 0.0191,0.117 0.142,0.2648 0.0867,0.0805 0.1089,0.0044 0.1053,-0.0324 0.1088,-0.0193 0.1115,-0.0062 0.1132,0.0066 0.1361,0.0459 0.1217,0.0753 0.1036,0.0997 0.0822,0.1195 0.0568,0.1334 0.0287,0.141 -0.0016,0.143 -0.0342,0.1395 -0.0551,0.099 -0.065,0.0908 -0.0746,0.0816 -0.0837,0.0716 -0.0547,0.0942 0.0216,0.1165 0.1475,0.2617 0.0884,0.0788 0.1089,0.0021 0.1047,-0.0346 0.1083,-0.0216 0.1113,-0.0086 0.1133,0.0043 0.1371,0.0431 0.1232,0.0726 0.1057,0.0976 0.0847,0.1178 0.0596,0.1321 0.0317,0.1404 0.0013,0.143 -0.0313,0.1402 -0.053,0.1002 -0.0631,0.092 -0.0728,0.0832 -0.0823,0.0733 -0.0527,0.0954 0.0241,0.116 0.1529,0.2586 0.09,0.0768 0.109,-10e-5 0.1039,-0.0368 0.1079,-0.0238 0.1111,-0.011 0.1134,0.002 0.1379,0.0401 0.1247,0.0701 0.1077,0.0953 0.0871,0.116 0.0624,0.1309 0.0346,0.1396 0.0043,0.143 -0.0283,0.1408 -0.0509,0.1012 -0.0611,0.0934 -0.0711,0.0847 -0.0807,0.0751 -0.0507,0.0964 0.0265,0.1155 0.1583,0.2553 0.0916,0.075 0.109,-0.0025 0.103,-0.0389 0.1074,-0.0261 0.1108,-0.0133 0.1135,-4e-4 0.1387,0.0373 0.1261,0.0674 0.1097,0.093 0.0895,0.1141 0.0652,0.1296 0.0375,0.1389 0.0073,0.1428 -0.0254,0.1415 -0.0488,0.1022 -0.0591,0.0947 -0.0693,0.0861 -0.0791,0.0767 -0.0487,0.0975 0.0289,0.1149 0.1636,0.2519 0.0932,0.0731 0.1089,-0.0047 0.1022,-0.0411 0.1068,-0.0284 0.1106,-0.0156 0.1133,-0.0028 0.1395,0.0344 0.1275,0.0648 0.1117,0.0907 0.0918,0.1122 0.0678,0.1282 0.0405,0.138 0.0103,0.1427 -0.0224,0.1419 -0.0466,0.1033 -0.0573,0.0958 -0.0674,0.0876 -0.0775,0.0784 -0.0466,0.0984 0.0313,0.1143 0.1689,0.2485 0.0946,0.071 0.1088,-0.0069 0.1014,-0.0433 0.1062,-0.0305 0.1101,-0.0179 0.1133,-0.0053 0.1402,0.0315 0.1288,0.0621 0.1135,0.0884 0.0942,0.1102 0.0705,0.1267 0.0433,0.1372 0.0133,0.1424 -0.0194,0.1424 -0.0445,0.1042 -0.0551,0.0971 -0.0656,0.0889 -0.0759,0.08 -0.0445,0.0994 0.0337,0.1136 0.174,0.2449 0.0961,0.069 0.1087,-0.0092 0.1004,-0.0454 0.1055,-0.0327 0.1098,-0.0202 0.1131,-0.0076 0.1408,0.0285 0.1302,0.0594 0.1153,0.0859 0.0965,0.1083 0.0731,0.1252 0.0462,0.1363 0.0162,0.1421 -0.0164,0.1427 -0.0422,0.1051 -0.0532,0.0982 -0.0637,0.0903 -0.0741,0.0816 -0.0425,0.1003 0.036,0.1128 0.1792,0.2412 0.0975,0.0671 0.1084,-0.0116 0.0995,-0.0474 0.1048,-0.035 0.1093,-0.0225 0.113,-0.0099 0.1414,0.0255 0.1313,0.0567 0.1171,0.0835 0.0987,0.1062 0.0758,0.1237 0.049,0.1352 0.0192,0.1418 -0.0134,0.143 -0.0401,0.106 -0.051,0.0993 -0.0618,0.0916 -0.0725,0.0831 -0.0403,0.1011 0.0384,0.1121 0.1841,0.2374 0.099,0.065 0.1081,-0.0138 0.0984,-0.0495 0.1041,-0.0372 0.1089,-0.0248 0.1127,-0.0123 0.1419,0.0226 0.1324,0.0539 0.1189,0.0811 0.1009,0.1041 0.0783,0.122 0.0518,0.1342 0.0222,0.1413 -0.0104,0.1433 -0.0378,0.1068 -0.049,0.1003 -0.0599,0.0929 -0.0706,0.0846 -0.0382,0.102 0.0407,0.1113 0.1891,0.2334 0.1003,0.0629 0.1078,-0.016 0.0973,-0.0516 0.1033,-0.0393 0.1083,-0.0271 0.1124,-0.0147 0.1424,0.0197 0.1336,0.051 0.1205,0.0786 0.1031,0.102 0.0808,0.1204 0.0546,0.1331 0.0252,0.1408 -0.0074,0.1434 -0.0356,0.1076 -0.0469,0.1013 -0.0579,0.0942 -0.0689,0.086 -0.036,0.1028 0.043,0.1104 0.1939,0.2295 0.1016,0.0607 0.1075,-0.0183 0.0962,-0.0536 0.1024,-0.0415 0.1078,-0.0293 0.1121,-0.017 0.1427,0.0166 0.1346,0.0483 0.1221,0.076 0.1052,0.0998 0.0834,0.1187 0.0574,0.1319 0.0281,0.1402 -0.0044,0.1436 -0.0334,0.1083 -0.0447,0.1023 -0.0559,0.0953 -0.0671,0.0875 -0.0339,0.1035 0.0454,0.1095 0.1987,0.2253 0.1028,0.0587 0.107,-0.0206 0.0952,-0.0556 0.1015,-0.0436 0.107,-0.0316 0.1118,-0.0194 0.143,0.0136 0.1356,0.0455 0.1237,0.0735 0.1073,0.0976 0.0858,0.1168 0.0601,0.1307 0.0311,0.1396 -0.0014,0.1437 -0.0311,0.109 -0.0426,0.1032 -0.0539,0.0964 -0.0652,0.0889 -0.0317,0.1042 0.0476,0.1085 0.2034,0.2212 0.104,0.0564 0.1066,-0.0228 0.0939,-0.0576 0.1006,-0.0457 0.1064,-0.0338 0.1113,-0.0217 0.1433,0.0106 0.1365,0.0426 0.1252,0.0709 0.1093,0.0953 0.0883,0.115 0.0628,0.1294 0.034,0.139 0.0016,0.1436 -0.0288,0.1096 -0.0404,0.1041 -0.0519,0.0976 -0.0633,0.0901 -0.0296,0.1049 0.0499,0.1075 0.208,0.2168 0.1052,0.0543 0.1061,-0.0251 0.0927,-0.0595 0.0996,-0.0478 0.1056,-0.0361 0.1109,-0.024 0.1434,0.0076 0.1374,0.0398 0.1267,0.0682 0.1113,0.093 0.0906,0.1132 0.0656,0.128 0.0368,0.1382 0.0046,0.1436 -0.0264,0.1102 -0.0383,0.1049 -0.0498,0.0986 -0.0614,0.0915 -0.0274,0.1055 0.0522,0.1064 0.2124,0.2124 0.1063,0.0521 0.1056,-0.0273 0.0914,-0.0614 0.0986,-0.05 0.1049,-0.0382 0.1103,-0.0263 0.1436,0.0046 0.1382,0.0368 0.128,0.0656 0.1132,0.0906 0.093,0.1113 0.0682,0.1267 0.0398,0.1374 0.0076,0.1434 -0.0242,0.1107 -0.036,0.1057 -0.0478,0.0997 -0.0594,0.0927 -0.0252,0.106 0.0544,0.1053 0.2168,0.208 0.1074,0.0498 0.105,-0.0295 0.0901,-0.0633 0.0975,-0.052 0.1041,-0.0404 0.1097,-0.0287 0.1436,0.0016 0.139,0.034 0.1294,0.0628 0.115,0.0883 0.0953,0.1093 0.0709,0.1252 0.0426,0.1365 0.0106,0.1433 -0.0218,0.1112 -0.0338,0.1064 -0.0457,0.1006 -0.0575,0.094 -0.0229,0.1065 0.0565,0.1041 0.2212,0.2034 0.1084,0.0475 0.1043,-0.0316 0.0888,-0.0652 0.0964,-0.054 0.1032,-0.0426 0.1091,-0.031 0.1437,-0.0014 0.1396,0.0311 0.1307,0.0601 0.1168,0.0858 0.0976,0.1073 0.0735,0.1237 0.0455,0.1356 0.0136,0.143 -0.0195,0.1116 -0.0316,0.1071 -0.0435,0.1016 -0.0556,0.0952 -0.0207,0.1069 0.0588,0.1029 0.2253,0.1987 0.1094,0.0453 0.1036,-0.0338 0.0874,-0.0671 0.0953,-0.056 0.1023,-0.0448 0.1084,-0.0332 0.1436,-0.0044 0.1402,0.0281 0.1319,0.0574 0.1187,0.0834 0.0998,0.1052 0.076,0.1221 0.0483,0.1346 0.0166,0.1427 -0.0171,0.112 -0.0293,0.1078 -0.0414,0.1024 -0.0536,0.0963 -0.0184,0.1074 0.0608,0.1017 0.2295,0.1939 0.1103,0.0429 0.1029,-0.0359 0.086,-0.0689 0.094,-0.058 0.1014,-0.0469 0.1077,-0.0355 0.1434,-0.0074 0.1408,0.0252 0.1331,0.0546 0.1204,0.0808 0.102,0.1031 0.0786,0.1205 0.051,0.1336 0.0197,0.1424 -0.0148,0.1123 -0.0271,0.1083 -0.0393,0.1033 -0.0515,0.0974 -0.0161,0.1077 0.063,0.1004 0.2334,0.1891 0.1112,0.0406 0.1021,-0.0381 0.0845,-0.0707 0.0928,-0.0599 0.1004,-0.049 0.1069,-0.0377 0.1433,-0.0104 0.1413,0.0222 0.1342,0.0518 0.122,0.0783 0.1041,0.1009 0.0811,0.1189 0.0539,0.1324 0.0226,0.1419 -0.0125,0.1126 -0.0247,0.1089 -0.0371,0.1041 -0.0495,0.0985 -0.0139,0.108 0.0651,0.0991 0.2374,0.1841 0.112,0.0383 0.1012,-0.0402 0.0831,-0.0725 0.0915,-0.0619 0.0993,-0.051 0.1061,-0.04 0.143,-0.0134 0.1418,0.0192 0.1352,0.049 0.1237,0.0758 0.1062,0.0987 0.0835,0.1171 0.0567,0.1313 0.0255,0.1414 -0.01,0.1129 -0.0225,0.1093 -0.0349,0.1049 -0.0474,0.0995 -0.0117,0.1083 0.0672,0.0976 0.2412,0.1792 0.1127,0.0359 0.1004,-0.0424 0.0815,-0.0741 0.0903,-0.0638 0.0981,-0.0531 0.1053,-0.0422 0.1427,-0.0164 0.1421,0.0162 0.1363,0.0462 0.1252,0.0731 0.1083,0.0965 0.0859,0.1153 0.0594,0.1302 0.0285,0.1408 -0.0077,0.113 -0.0202,0.1098 -0.0327,0.1056 -0.0453,0.1004 -0.0094,0.1086 0.0692,0.0962 0.2449,0.174 0.1135,0.0336 0.0995,-0.0444 0.0799,-0.0759 0.0889,-0.0657 0.097,-0.0551 0.1044,-0.0444 0.1424,-0.0194 0.1424,0.0133 0.1372,0.0433 0.1267,0.0705 0.1102,0.0942 0.0884,0.1135 0.0621,0.1288 0.0315,0.1402 -0.0054,0.1132 -0.0179,0.1102 -0.0305,0.1062 -0.0432,0.1014 -0.0071,0.1087 0.0712,0.0947 0.2485,0.1689 0.1142,0.0312 0.0985,-0.0465 0.0783,-0.0775 0.0875,-0.0675 0.0959,-0.0572 0.1034,-0.0466 0.1419,-0.0224 0.1427,0.0103 0.138,0.0405 0.1282,0.0678 0.1122,0.0918 0.0907,0.1117 0.0648,0.1275 0.0344,0.1395 -0.003,0.1132 -0.0156,0.1106 -0.0282,0.1069 -0.0411,0.1022 -0.0048,0.1088 0.0732,0.0933 0.2519,0.1636 0.1148,0.0288 0.0976,-0.0486 0.0767,-0.0791 0.086,-0.0693 0.0946,-0.0592 0.1024,-0.0487 0.1415,-0.0254 0.1428,0.0073 0.1389,0.0375 0.1296,0.0652 0.1141,0.0895 0.093,0.1097 0.0674,0.1261 0.0373,0.1387 -6e-4,0.1134 -0.0132,0.1108 -0.026,0.1074 -0.0389,0.1031 -0.0026,0.1089 0.0751,0.0917 0.2553,0.1583 0.1154,0.0264 0.0965,-0.0506 0.0751,-0.0807 0.0845,-0.0711 0.0934,-0.0612 0.1014,-0.0508 0.1408,-0.0283 0.143,0.0043 0.1396,0.0346 0.1309,0.0624 0.116,0.0871 0.0953,0.1077 0.0701,0.1247 0.0401,0.1379 0.0018,0.1133 -0.0109,0.1111 -0.0238,0.108 -0.0367,0.1039 -3e-4,0.1089 0.077,0.0901 0.2586,0.1529 0.1159,0.024 0.0955,-0.0526 0.0733,-0.0823 0.083,-0.0729 0.0921,-0.0631 0.1003,-0.0529 0.1402,-0.0313 0.143,0.0013 0.1404,0.0317 0.1321,0.0596 0.1178,0.0847 0.0976,0.1057 0.0726,0.1232 0.0431,0.1371 0.0041,0.1132 -0.0086,0.1113 -0.0215,0.1084 -0.0345,0.1047 0.002,0.1089 0.0789,0.0884 0.2617,0.1475 0.1164,0.0215 0.0943,-0.0546 0.0715,-0.0837 0.0816,-0.0746 0.0907,-0.0651 0.0992,-0.055 0.1395,-0.0342 0.143,-0.0016 0.141,0.0287 0.1334,0.0568 0.1195,0.0822 0.0997,0.1036 0.0753,0.1217 0.0459,0.1361 0.0065,0.1131 -0.0063,0.1115 -0.0192,0.1088 -0.0323,0.1054 0.0043,0.1088 0.0806,0.0868 0.2648,0.142 0.1168,0.0191 0.0932,-0.0566 0.0698,-0.0853 0.0799,-0.0763 0.0894,-0.0669 0.0979,-0.0571 0.1388,-0.037 0.143,-0.0047 0.1415,0.0257 0.1346,0.0541 0.1212,0.0796 0.1019,0.1016 0.0777,0.12 0.0488,0.1351 0.0089,0.113 -0.0039,0.1116 -0.017,0.1092 -0.0301,0.106 0.0066,0.1087 0.0825,0.0851 0.2676,0.1364 0.1172,0.0167 0.092,-0.0586 0.068,-0.0867 0.0783,-0.0779 0.0879,-0.0688 0.0968,-0.0591 0.138,-0.04 0.1428,-0.0077 0.142,0.0228 0.1357,0.0512 0.1228,0.0771 0.104,0.0994 0.0803,0.1184 0.0516,0.1341 0.0112,0.1127 -0.0016,0.1117 -0.0146,0.1095 -0.0279,0.1066 0.0088,0.1086 0.0843,0.0833 0.2704,0.1308 0.1176,0.0142 0.0907,-0.0605 0.0661,-0.0881 0.0767,-0.0796 0.0865,-0.0705 0.0955,-0.0612 0.1371,-0.0429 0.1426,-0.0106 0.1425,0.0198 0.1367,0.0484 0.1244,0.0745 0.1061,0.0971 0.0827,0.1167 0.0544,0.133 0.0136,0.1125 7e-4,0.1116 -0.0123,0.1099 -0.0257,0.1071 0.0112,0.1084 0.0859,0.0815 0.2732,0.1251 0.1178,0.0117 0.0894,-0.0623 0.0643,-0.0895 0.075,-0.0811 0.085,-0.0724 0.0942,-0.0632 0.1362,-0.0457 0.1423,-0.0136 0.1429,0.0168 0.1377,0.0455 0.1259,0.0719 0.1081,0.0949 0.0852,0.1149 0.0571,0.1318 0.016,0.1122 0.0031,0.1116 -0.0101,0.1101 -0.0234,0.1077 0.0134,0.1081 0.0876,0.0797 0.2758,0.1193 0.118,0.0093 0.0881,-0.0642 0.0624,-0.0908 0.0733,-0.0827 0.0834,-0.0742 0.0928,-0.0651 0.1353,-0.0485 0.142,-0.0166 0.1432,0.0138 0.1386,0.0426 0.1275,0.0692 0.11,0.0926 0.0875,0.1132 0.0599,0.1305 0.0183,0.1119 0.0054,0.1115 -0.0077,0.1102 -0.0212,0.1082 0.0157,0.1078 0.0893,0.0779 0.2782,0.1135 0.1181,0.0068 0.0868,-0.0661 0.0605,-0.092 0.0715,-0.0843 0.0819,-0.0759 0.0914,-0.067 0.1342,-0.0514 0.1417,-0.0196 0.1434,0.0109 0.1395,0.0397 0.1289,0.0665 0.1119,0.0903 0.0899,0.1113 0.0626,0.1293 0.0207,0.1114 0.0077,0.1113 -0.0054,0.1105 -0.0189,0.1085 0.0179,0.1075 0.0909,0.076 0.2805,0.1076 0.1183,0.0043 0.0853,-0.0678 0.0586,-0.0933 0.0697,-0.0857 0.0803,-0.0776 0.09,-0.0689 0.1331,-0.0542 0.1412,-0.0226 0.1437,0.0078 0.1402,0.0368 0.1303,0.0638 0.1138,0.088 0.0922,0.1093 0.0653,0.128 0.023,0.111 0.01,0.1111 -0.0031,0.1105 -0.0166,0.109 0.0202,0.107 0.0925,0.0741 0.2826,0.1017 0.1184,0.0019 0.0839,-0.0696 0.0566,-0.0946 0.0679,-0.0871 0.0786,-0.0792 0.0886,-0.0708 0.1319,-0.057 0.1407,-0.0255 0.1438,0.0048 0.141,0.0338 0.1315,0.0611 0.1157,0.0855 0.0945,0.1075 0.068,0.1265 0.0252,0.1105 0.0124,0.1109 -7e-4,0.1106 -0.0144,0.1092 0.0224,0.1066 0.094,0.0721 0.2848,0.0959 0.1183,-7e-4 0.0825,-0.0713 0.0545,-0.0957 0.0661,-0.0886 0.077,-0.0809 0.0871,-0.0726 0.1306,-0.0597 0.1402,-0.0284 0.1439,0.0017 0.1416,0.0309 0.1328,0.0583 0.1174,0.0831 0.0967,0.1054 0.0706,0.1251 0.0276,0.1099 0.0148,0.1107 0.0015,0.1105 -0.0121,0.1095 0.0247,0.1062 0.0955,0.0701 0.2867,0.0898 0.1183,-0.0031 0.0809,-0.073 0.0526,-0.0969 0.0642,-0.0899 0.0752,-0.0824 0.0856,-0.0745 0.1294,-0.0624 0.1395,-0.0314 0.1439,-0.0012 0.1423,0.0279 0.1339,0.0555 0.1192,0.0806 0.0988,0.1034 0.0733,0.1236 0.0298,0.1093 0.0171,0.1103 0.0038,0.1105 -0.0097,0.1097 0.0268,0.1056 0.097,0.0681 0.2885,0.0838 0.1182,-0.0056 0.0794,-0.0747 0.0505,-0.0979 0.0623,-0.0912 0.0735,-0.0841 0.084,-0.0762 0.128,-0.0651 0.1389,-0.0343 0.1438,-0.0042 0.1429,0.0249 0.1351,0.0527 0.1207,0.0781 0.1011,0.1012 0.0758,0.1221 0.0321,0.1086 0.0194,0.11 0.0061,0.1104 -0.0074,0.1099 0.029,0.105 0.0984,0.066 0.2902,0.0778 0.1181,-0.0081 0.0778,-0.0763 0.0484,-0.099 0.0604,-0.0925 0.0717,-0.0855 0.0824,-0.078 0.1267,-0.0678 0.1381,-0.0372 0.1436,-0.0072 0.1434,0.0219 0.1362,0.0498 0.1224,0.0756 0.1031,0.0991 0.0783,0.1204 0.0344,0.108 0.0217,0.1095 0.0085,0.1102 -0.0052,0.1101 0.0313,0.1043 0.0997,0.0641 0.2917,0.0716 0.1179,-0.0105 0.0762,-0.078 0.0464,-0.1 0.0584,-0.0937 0.07,-0.0871 0.0806,-0.0796 0.1253,-0.0705 0.1373,-0.04 0.1435,-0.0103 0.1437,0.0189 0.1372,0.047 0.124,0.073 0.1051,0.0969 0.0809,0.1188 0.0367,0.1072 0.0239,0.109 0.0108,0.1101 -0.0029,0.1101 0.0335,0.1037 0.101,0.0619 0.2932,0.0655 0.1177,-0.013 0.0745,-0.0795 0.0442,-0.1009 0.0565,-0.095 0.0681,-0.0885 0.079,-0.0813 0.1237,-0.0731 0.1364,-0.0429 0.1433,-0.0133 0.1441,0.0159 0.1382,0.0441 0.1254,0.0704 0.1072,0.0947 0.0833,0.1171 0.039,0.1064 0.0262,0.1085 0.013,0.1098 -5e-4,0.1101 0.0356,0.103 0.1023,0.0598 0.2945,0.0594 0.1174,-0.0155 0.0728,-0.0811 0.0421,-0.1018 0.0545,-0.0962 0.0662,-0.0898 0.0773,-0.083 0.1222,-0.0756 0.1355,-0.0458 0.1429,-0.0163 0.1445,0.0129 0.139,0.0412 0.1269,0.0677 0.1091,0.0925 0.0858,0.1153 0.0411,0.1055 0.0285,0.108 0.0154,0.1094 0.0017,0.1102 0.0378,0.1022 0.1036,0.0576 0.2956,0.0532 0.117,-0.0179 0.0711,-0.0826 0.0401,-0.1027 0.0524,-0.0972 0.0643,-0.0913 0.0755,-0.0845 0.1206,-0.0782 0.1345,-0.0486 0.1426,-0.0193 0.1446,0.0099 0.1399,0.0383 0.1283,0.065 0.1111,0.0902 0.0881,0.1134 0.0433,0.1047 0.0308,0.1073 0.0176,0.1091 0.0041,0.1102 0.0399,0.1013 0.1047,0.0555 0.2967,0.047 0.1166,-0.0204 0.0694,-0.0841 0.0379,-0.1035 0.0504,-0.0983 0.0624,-0.0926 0.0737,-0.0861 0.1189,-0.0807 0.1335,-0.0514 0.1421,-0.0222 0.1448,0.0068 0.1407,0.0353 0.1296,0.0624 0.1129,0.0878 0.0905,0.1116 0.0455,0.1037 0.033,0.1067 0.02,0.1087 0.0063,0.11 0.042,0.1005 0.1059,0.0532 0.2976,0.0408 0.1162,-0.0228 0.0676,-0.0855 0.0357,-0.1042 0.0483,-0.0994 0.0604,-0.0939 0.072,-0.0876 0.1171,-0.0832 0.1324,-0.0542 0.1416,-0.0252 0.145,0.0038 0.1413,0.0324 0.1309,0.0596 0.1148,0.0854 0.0928,0.1097 0.0477,0.1028 0.0352,0.1059 0.0222,0.1083 0.0087,0.1099 0.044,0.0996 0.107,0.051 0.2984,0.0345 0.1157,-0.0252 0.0658,-0.0869 0.0335,-0.105 0.0462,-0.1004 0.0585,-0.0951 0.07,-0.0891 0.1155,-0.0856 0.1311,-0.057 0.1411,-0.0281 0.14502,7e-4 0.142,0.0295 0.13214,0.0568 0.11647,0.083 0.09511,0.1077 0.04982,0.1018 0.03741,0.1051 0.02448,0.1078 0.01099,0.1097 0.04615,0.0987 0.10801,0.0487 0.29907,0.0283 0.11511,-0.0277 0.06396,-0.0882 0.03129,-0.1057 0.04414,-0.1013 0.05644,-0.0963 0.06818,-0.0906 0.1136,-0.088 0.12996,-0.0597 0.14046,-0.0311 0.14498,-0.0023 0.1426,0.0265 0.13328,0.0541 0.1182,0.0805 0.09733,0.1057 0.05194,0.1007 0.03962,0.1043 0.02673,0.1073 0.01327,0.1094 0.04821,0.0977 0.10902,0.0464 0.29958,0.022 0.11451,-0.03 0.06211,-0.0896 0.02907,-0.1063 0.04199,-0.1022 0.05441,-0.0974 0.06629,-0.0921 0.11172,-0.0903 0.12869,-0.0624 0.13976,-0.034 0.14493,-0.0054 0.14309,0.0235 0.1344,0.0513 0.11986,0.078 0.09952,0.1036 0.05404,0.0996 0.0418,0.1035 0.02896,0.1067 0.01556,0.1091 0.05025,0.0966 0.10996,0.0442 0.30003,0.0157 0.11381,-0.0324 0.06022,-0.0909 0.02682,-0.1068 0.03986,-0.1031 0.05236,-0.0986 0.06434,-0.0934 0.1098,-0.0926 0.12736,-0.0651 0.13903,-0.037 0.14477,-0.0083 0.14356,0.0204 0.13545,0.0485 0.12146,0.0755 0.10167,0.1015 0.05612,0.0985 0.04394,0.1026 0.03119,0.106 0.01786,0.1088 0.05224,0.0955 0.11087,0.0419 0.30028,0.0094 0.11311,-0.0348 0.05831,-0.0921 0.02458,-0.1074 0.03769,-0.1039 0.05028,-0.0996 0.06236,-0.0947 0.10785,-0.095 0.12596,-0.0677 0.13823,-0.0399 0.14456,-0.0114 0.14397,0.0175 0.13643,0.0456 0.12301,0.0729 0.10378,0.0994 0.05816,0.0972 0.04609,0.1017 0.0334,0.1054 0.02012,0.1083 0.05425,0.0945 0.11175,0.0395 0.300373,0.0032 0.112366,-0.0372 0.056366,-0.0933 0.022323,-0.1079 0.035508,-0.1047 0.048187,-0.1007 0.060364,-0.096 0.105835,-0.0971 0.124511,-0.0704 0.13736,-0.0427 L 0,94.4707 l 0.144287,0.0145 0.13736,0.0427 0.124511,0.0704 0.105835,0.0971 0.060196,0.096 0.048203,0.1007 0.035599,0.1047 0.022384,0.1079 0.056214,0.0933 0.112518,0.0372 L 1.14748,95.232 1.25909,95.1925 1.31348,95.098 1.33354,94.9897 1.36685,94.8843 1.41292,94.7826 1.47125,94.6854 1.57503,94.586 1.69804,94.5131 1.83447,94.4675 1.97844,94.45 2.123,94.4614 l 0.13823,0.0399 0.12596,0.0677 0.10785,0.095 0.06218,0.0947 0.05031,0.0996 0.03778,0.1039 0.02464,0.1074 0.05815,0.0921 0.11327,0.0348 0.30028,-0.0094 0.11073,-0.0419 0.05238,-0.0955 0.01781,-0.1088 0.03108,-0.106 0.04393,-0.1026 0.05629,-0.0985 0.10167,-0.1015 0.12146,-0.0755 0.13545,-0.0485 0.14356,-0.0204 0.14477,0.0083 0.13903,0.037 0.12736,0.0651 0.1098,0.0926 0.06417,0.0934 0.05238,0.0986 0.03995,0.1031 0.02688,0.1068 0.06008,0.0909 0.11395,0.0324 0.30003,-0.0157 0.10982,-0.0441 0.05039,-0.0967 0.01551,-0.1091 0.02886,-0.1066 0.04176,-0.1036 0.05423,-0.0996 0.09952,-0.1036 0.11986,-0.078 0.1344,-0.0513 0.14309,-0.0235 0.14493,0.0054 0.13976,0.034 0.12869,0.0624 0.11172,0.0903 0.06611,0.0921 0.05442,0.0974 0.04212,0.1022 0.02911,0.1063 0.06197,0.0896 0.11465,0.03 0.29958,-0.022 0.10889,-0.0464 0.04834,-0.0977 0.01322,-0.1094 0.02663,-0.1072 0.03958,-0.1044 0.05213,-0.1007 0.09733,-0.1057 0.1182,-0.0805 0.13328,-0.0541 0.1426,-0.0265 0.14498,0.0023 0.14046,0.0311 0.12996,0.0597 0.1136,0.088 0.06801,0.0906 0.05646,0.0963 0.04423,0.1013 0.03135,0.1057 0.06382,0.0882 0.11525,0.0277 L 9.1123,94.802 9.22017,94.7533 9.26646,94.6546 9.2774,94.545 9.30177,94.4372 9.33916,94.332 l 0.05,-0.1018 0.09511,-0.1077 0.11647,-0.083 0.13214,-0.0568 0.142,-0.0295 0.14502,-7e-4 0.1411,0.0281 0.1311,0.057 0.1155,0.0856 0.0699,0.0891 0.0584,0.0951 0.0464,0.1004 0.0335,0.105 0.0657,0.0869 0.1158,0.0252 0.2984,-0.0345 0.1068,-0.051 0.0442,-0.0996 0.0087,-0.1099 0.0221,-0.1083 0.0352,-0.1059 0.0478,-0.1028 0.0928,-0.1097 0.1148,-0.0854 0.1309,-0.0596 0.1413,-0.0324 0.145,-0.0038 0.1416,0.0252 0.1324,0.0542 0.1171,0.0832 0.0718,0.0877 0.0604,0.0938 0.0485,0.0994 0.0357,0.1042 0.0675,0.0855 0.1163,0.0228 0.2976,-0.0408 0.1057,-0.0531 0.0422,-0.1006 0.0063,-0.11 0.0198,-0.1087 0.033,-0.1066 0.0457,-0.1038 0.0905,-0.1116 0.1129,-0.0878 0.1296,-0.0624 0.1407,-0.0353 0.1448,-0.0068 0.1421,0.0222 0.1335,0.0514 0.1189,0.0807 0.0736,0.0862 0.0624,0.0925 0.0505,0.0984 0.0379,0.1034 0.0692,0.0841 0.1168,0.0204 0.2967,-0.047 0.1046,-0.0554 0.04,-0.1014 0.004,-0.1102 0.0176,-0.1091 0.0307,-0.1073 0.0435,-0.1047 0.0881,-0.1134 0.1111,-0.0902 0.1283,-0.065 0.1399,-0.0383 0.1446,-0.0099 0.1426,0.0193 0.1345,0.0486 0.1206,0.0782 0.0753,0.0846 0.0643,0.0912 0.0526,0.0972 0.0401,0.1027 0.071,0.0826 0.1171,0.0179 0.2956,-0.0532 0.1035,-0.0576 0.0379,-0.1022 0.0017,-0.1101 0.0152,-0.1095 0.0285,-0.1079 0.0413,-0.1056 0.0858,-0.1153 0.1091,-0.0925 0.1269,-0.0677 0.139,-0.0412 0.1445,-0.0129 0.1429,0.0163 0.1355,0.0458 0.1222,0.0756 0.0771,0.083 0.0662,0.0899 0.0546,0.0961 0.0422,0.1018 0.0727,0.0811 0.1175,0.0155 0.2945,-0.0594 0.1022,-0.0598 0.0357,-0.103 -6e-4,-0.1101 0.013,-0.1098 0.0262,-0.1085 0.0391,-0.1064 0.0833,-0.1171 0.1072,-0.0947 0.1254,-0.0704 0.1382,-0.0441 0.1441,-0.0159 0.1433,0.0133 0.1364,0.0429 0.1237,0.0731 0.0788,0.0813 0.0681,0.0885 0.0566,0.095 0.0443,0.1009 0.0744,0.0795 0.1178,0.013 0.2932,-0.0655 0.1009,-0.0619 0.0336,-0.1037 -0.0029,-0.1101 0.0106,-0.11 0.024,-0.1091 0.0368,-0.1072 0.0809,-0.1188 0.1051,-0.0969 0.124,-0.073 0.1372,-0.047 0.1437,-0.0189 0.1435,0.0103 0.1373,0.04 0.1253,0.0705 0.0805,0.0797 0.0699,0.087 0.0586,0.0938 0.0464,0.0999 0.076,0.078 0.1181,0.0105 0.2917,-0.0716 0.0996,-0.064 0.0314,-0.1044 -0.0052,-0.1101 0.0084,-0.1102 0.0216,-0.1095 0.0346,-0.108 0.0783,-0.1204 0.1031,-0.0991 0.1224,-0.0756 0.1362,-0.0498 0.1434,-0.0219 0.1436,0.0072 0.1381,0.0372 0.1267,0.0678 0.0822,0.078 0.0717,0.0855 0.0605,0.0925 0.0485,0.099 0.0777,0.0764 0.1182,0.008 0.2902,-0.0778 0.0982,-0.066 0.0292,-0.105 -0.0075,-0.1099 0.0061,-0.1104 0.0193,-0.1099 0.0323,-0.1087 0.0758,-0.1221 0.1011,-0.1012 0.1207,-0.0781 0.1351,-0.0527 0.1429,-0.0249 0.1438,0.0042 0.1389,0.0343 0.128,0.0651 0.0838,0.0763 0.0735,0.084 0.0624,0.0912 0.0506,0.0979 0.0793,0.0748 0.1183,0.0055 0.2885,-0.0838 0.0969,-0.0681 0.0269,-0.1056 -0.0098,-0.1097 0.0038,-0.1105 0.017,-0.1103 0.03,-0.1093 0.0733,-0.1236 0.0988,-0.1034 0.1192,-0.0806 0.1339,-0.0555 0.1423,-0.0279 0.1439,0.0012 0.1395,0.0314 0.1294,0.0624 0.0854,0.0745 0.0753,0.0825 0.0643,0.0899 0.0526,0.0968 0.0808,0.0731 0.1184,0.003 0.2867,-0.0898 0.0954,-0.0701 0.0248,-0.1062 -0.0121,-0.1095 0.0014,-0.1105 0.0147,-0.1106 0.0278,-0.11 0.0706,-0.1251 0.0967,-0.1054 0.1174,-0.0831 0.1328,-0.0583 0.1416,-0.0309 0.1439,-0.0017 0.1402,0.0284 0.1306,0.0597 0.0869,0.0727 0.077,0.0809 0.0662,0.0885 0.0546,0.0957 0.0823,0.0713 0.1185,7e-4 0.2848,-0.0959 0.0939,-0.0721 0.0225,-0.1066 -0.0144,-0.1092 -9e-4,-0.1105 0.0124,-0.111 0.0254,-0.1105 0.068,-0.1265 0.0945,-0.1075 0.1157,-0.0855 0.1315,-0.0611 0.141,-0.0338 0.1438,-0.0048 0.1407,0.0255 0.1319,0.057 0.0884,0.0708 0.0786,0.0793 0.0681,0.0871 0.0566,0.0945 0.0838,0.0696 0.1185,-0.0019 0.2826,-0.1017 0.0924,-0.074 0.0203,-0.1071 -0.0167,-0.109 -0.0032,-0.1104 0.0101,-0.1112 0.0231,-0.111 0.0653,-0.128 0.0922,-0.1093 0.1138,-0.088 0.1303,-0.0638 0.1402,-0.0368 0.1437,-0.0078 0.1412,0.0226 0.1331,0.0542 0.0898,0.069 0.0803,0.0775 0.0699,0.0857 0.0586,0.0933 0.0852,0.0679 0.1184,-0.0044 0.2805,-0.1076 0.0908,-0.076 0.018,-0.1075 -0.0189,-0.1085 -0.0056,-0.1104 0.0078,-0.1113 0.0208,-0.1115 0.0626,-0.1293 0.0899,-0.1113 0.1119,-0.0903 0.1289,-0.0665 0.1395,-0.0397 0.1434,-0.0109 0.1417,0.0196 0.1342,0.0514 0.0913,0.0671 0.0818,0.0759 0.0717,0.0842 0.0605,0.092 0.0866,0.0661 0.1183,-0.0068 0.2782,-0.1135 0.0892,-0.0779 0.0158,-0.1078 -0.0213,-0.1081 -0.0078,-0.1103 0.0054,-0.1115 0.0185,-0.1119 0.0599,-0.1305 0.0875,-0.1132 0.11,-0.0926 0.1275,-0.0692 0.1386,-0.0426 0.1432,-0.0138 0.142,0.0166 0.1353,0.0485 0.0926,0.0652 0.0835,0.0741 0.0734,0.0827 0.0624,0.0908 0.088,0.0642 0.1181,-0.0093 0.2758,-0.1193 0.0875,-0.0797 0.0135,-0.1081 -0.0235,-0.1077 -0.0101,-0.11 0.0031,-0.1116 0.0161,-0.1123 0.0571,-0.1318 0.0852,-0.1149 0.1081,-0.0949 0.1259,-0.0719 0.1377,-0.0455 0.1429,-0.0168 0.1423,0.0136 0.1362,0.0457 0.0941,0.0633 0.085,0.0723 0.075,0.0811 0.0644,0.0895 0.0893,0.0624 0.1179,-0.0118 0.2732,-0.1251 0.0858,-0.0815 0.0113,-0.1084 -0.0258,-0.1071 -0.0124,-0.1098 7e-4,-0.1117 0.0138,-0.1125 0.0544,-0.133 0.0827,-0.1167 0.1061,-0.0971 0.1244,-0.0745 0.1367,-0.0484 0.1425,-0.0198 0.1426,0.0106 0.1371,0.0429 0.0954,0.0612 0.0864,0.0706 0.0768,0.0795 0.0662,0.0881 0.0906,0.0605 0.1177,-0.0142 0.2704,-0.1308 0.0841,-0.0833 0.009,-0.1086 -0.0279,-0.1066 -0.0148,-0.1095 -0.0016,-0.1116 0.0114,-0.1128 0.0516,-0.1341 0.0803,-0.1184 0.104,-0.0994 0.1228,-0.0771 0.1357,-0.0512 0.142,-0.0228 0.1428,0.0077 0.138,0.04 0.0966,0.0592 0.088,0.0687 0.0784,0.0779 0.068,0.0867 0.0919,0.0586 0.1173,-0.0167 0.2676,-0.1364 0.0824,-0.085 0.0067,-0.1088 -0.0302,-0.106 -0.017,-0.1092 -0.0039,-0.1115 0.009,-0.1131 0.0488,-0.1351 0.0777,-0.12 0.1019,-0.1016 0.1212,-0.0796 0.1346,-0.0541 0.1415,-0.0257 0.143,0.0047 0.1388,0.037 0.0978,0.0572 0.0893,0.0669 0.0801,0.0763 0.0698,0.0852 0.093,0.0566 0.117,-0.0191 0.2648,-0.142 0.0805,-0.0867 0.0044,-0.1089 -0.0324,-0.1053 -0.0193,-0.1088 -0.0062,-0.1115 0.0066,-0.1132 0.0459,-0.1361 0.0753,-0.1217 0.0997,-0.1036 0.1195,-0.0822 0.1334,-0.0568 0.141,-0.0287 0.143,0.0016 0.1395,0.0342 0.099,0.0551 0.0908,0.065 0.0816,0.0746 0.0716,0.0837 0.0942,0.0547 0.1165,-0.0216 0.2617,-0.1475 0.0788,-0.0884 0.0021,-0.1089 -0.0346,-0.1047 -0.0216,-0.1083 -0.0086,-0.1113 0.0043,-0.1133 0.0431,-0.1371 0.0726,-0.1232 0.0976,-0.1057 0.1178,-0.0847 0.1321,-0.0596 0.1404,-0.0317 0.143,-0.0013 0.1402,0.0313 0.1002,0.053 0.092,0.0631 0.0832,0.0728 0.0733,0.0823 0.0954,0.0527 0.116,-0.0241 0.2586,-0.1529 0.0768,-0.09 -10e-5,-0.109 -0.0368,-0.1039 -0.0238,-0.1079 -0.011,-0.1111 0.002,-0.1134 0.0401,-0.1379 0.0701,-0.1247 0.0953,-0.1077 0.116,-0.0871 0.1309,-0.0624 0.1396,-0.0346 0.143,-0.0043 0.1408,0.0283 0.1012,0.0509 0.0934,0.0611 0.0847,0.0711 0.0751,0.0807 0.0964,0.0507 0.1155,-0.0265 0.2553,-0.1583 0.075,-0.0916 -0.0025,-0.109 -0.0389,-0.103 -0.0261,-0.1074 -0.0133,-0.1108 -4e-4,-0.1135 0.0373,-0.1387 0.0674,-0.1261 0.093,-0.1097 0.1141,-0.0895 0.1296,-0.0652 0.1389,-0.0375 0.1428,-0.0073 0.1415,0.0254 0.1022,0.0488 0.0947,0.0591 0.0861,0.0693 0.0767,0.0791 0.0975,0.0487 0.1149,-0.0289 0.2519,-0.1636 0.0731,-0.0932 -0.0047,-0.1089 -0.0411,-0.1022 -0.0284,-0.1068 -0.0156,-0.1106 -0.0028,-0.1133 0.0344,-0.1395 0.0648,-0.1275 0.0907,-0.1117 0.1122,-0.0918 0.1282,-0.0678 0.138,-0.0405 0.1427,-0.0103 0.1419,0.0224 0.1033,0.0466 0.0958,0.0573 0.0876,0.0674 0.0784,0.0775 0.0984,0.0466 0.1143,-0.0313 0.2485,-0.1689 0.071,-0.0946 -0.0069,-0.1088 -0.0433,-0.1014 -0.0305,-0.1062 -0.0179,-0.1101 -0.0053,-0.1133 0.0315,-0.1402 0.0621,-0.1288 0.0884,-0.1135 0.1102,-0.0942 0.1267,-0.0705 0.1372,-0.0433 0.1424,-0.0133 0.1424,0.0194 0.1042,0.0445 0.0971,0.0551 0.0889,0.0656 0.08,0.0759 0.0994,0.0445 0.1136,-0.0337 0.2449,-0.174 0.069,-0.0961 -0.0092,-0.1087 -0.0454,-0.1004 -0.0327,-0.1055 -0.0202,-0.1098 -0.0076,-0.1131 0.0285,-0.1408 0.0594,-0.1302 0.0859,-0.1153 0.1083,-0.0965 0.1252,-0.0731 0.1363,-0.0462 0.1421,-0.0162 0.1427,0.0164 0.1051,0.0422 0.0982,0.0532 0.0903,0.0637 0.0816,0.0741 0.1003,0.0425 0.1128,-0.036 0.2412,-0.1792 0.0671,-0.0975 -0.0116,-0.1084 -0.0474,-0.0995 -0.035,-0.1048 -0.0225,-0.1093 -0.0099,-0.113 0.0255,-0.1414 0.0567,-0.1313 0.0835,-0.1171 0.1062,-0.0987 0.1237,-0.0758 0.1352,-0.049 0.1418,-0.0192 0.143,0.0134 0.106,0.0401 0.0993,0.051 0.0916,0.0618 0.0831,0.0725 0.1011,0.0403 0.1121,-0.0384 0.2374,-0.1841 0.065,-0.099 -0.0138,-0.1081 -0.0495,-0.0984 -0.0372,-0.1041 -0.0248,-0.1089 -0.0123,-0.1127 0.0226,-0.1419 0.0539,-0.1324 0.0811,-0.1189 0.1041,-0.1009 0.122,-0.0783 0.1342,-0.0518 0.1413,-0.0222 0.1433,0.0104 0.1068,0.0378 0.1003,0.049 0.0929,0.0599 0.0846,0.0706 0.102,0.0382 0.1113,-0.0407 0.2334,-0.1891 0.0629,-0.1003 -0.016,-0.1078 -0.0516,-0.0973 -0.0393,-0.1033 -0.0271,-0.1083 -0.0147,-0.1124 0.0197,-0.1424 0.051,-0.1336 0.0786,-0.1205 0.102,-0.1031 0.1204,-0.0808 0.1331,-0.0546 0.1408,-0.0252 0.1434,0.0074 0.1076,0.0356 0.1013,0.0469 0.0942,0.0579 0.086,0.0689 0.1028,0.036 0.1104,-0.043 0.2295,-0.1939 0.0607,-0.1016 -0.0183,-0.1075 -0.0536,-0.0962 -0.0415,-0.1024 -0.0293,-0.1078 -0.017,-0.1121 0.0166,-0.1427 0.0483,-0.1346 0.076,-0.1221 0.0998,-0.1052 0.1187,-0.0834 0.1319,-0.0574 0.1402,-0.0281 0.1436,0.0044 0.1083,0.0334 0.1023,0.0447 0.0953,0.0559 0.0875,0.0671 0.1035,0.0339 0.1095,-0.0454 0.2253,-0.1987 0.0587,-0.1028 -0.0206,-0.107 -0.0556,-0.0952 -0.0436,-0.1015 -0.0316,-0.107 -0.0194,-0.1118 0.0136,-0.143 0.0455,-0.1356 0.0735,-0.1237 0.0976,-0.1073 0.1168,-0.0858 0.1307,-0.0601 0.1396,-0.0311 0.1437,0.0014 0.109,0.0311 0.1032,0.0426 0.0964,0.0539 0.0889,0.0652 0.1042,0.0317 0.1085,-0.0476 0.2212,-0.2034 0.0564,-0.104 -0.0228,-0.1066 -0.0576,-0.0939 -0.0457,-0.1006 -0.0338,-0.1064 -0.0217,-0.1113 0.0106,-0.1433 0.0426,-0.1365 0.0709,-0.1252 0.0953,-0.1093 0.115,-0.0883 0.1294,-0.0628 0.139,-0.034 0.1436,-0.0016 0.1096,0.0288 0.1041,0.0404 0.0976,0.0519 0.0901,0.0633 0.1049,0.0296 0.1075,-0.0499 0.2168,-0.208 0.0543,-0.1052 -0.0251,-0.1061 -0.0595,-0.0927 -0.0478,-0.0996 -0.0361,-0.1056 -0.024,-0.1109 0.0076,-0.1434 0.0398,-0.1374 0.0682,-0.1267 0.093,-0.1113 0.1132,-0.0906 0.128,-0.0656 0.1382,-0.0368 0.1436,-0.0046 0.1102,0.0264 0.1049,0.0383 0.0986,0.0498 0.0915,0.0614 0.1055,0.0274 0.1064,-0.0522 0.2124,-0.2124 0.0521,-0.1063 -0.0273,-0.1056 -0.0614,-0.0914 -0.05,-0.0986 -0.0382,-0.1049 -0.0263,-0.1103 0.0046,-0.1436 0.0368,-0.1382 0.0656,-0.128 0.0906,-0.1132 0.1113,-0.093 0.1267,-0.0682 0.1374,-0.0398 0.1434,-0.0076 0.1107,0.0242 0.1057,0.036 0.0997,0.0478 0.0927,0.0594 0.106,0.0252 0.1053,-0.0544 0.208,-0.2168 0.0498,-0.1074 -0.0295,-0.105 -0.0633,-0.0901 -0.052,-0.0975 -0.0404,-0.1041 -0.0287,-0.1097 0.0016,-0.1436 0.034,-0.139 0.0628,-0.1294 0.0883,-0.115 0.1093,-0.0953 0.1252,-0.0709 0.1365,-0.0426 0.1433,-0.0106 0.1112,0.0218 0.1064,0.0338 0.1006,0.0457 0.094,0.0575 0.1065,0.0229 0.1041,-0.0565 0.2034,-0.2212 0.0475,-0.1084 -0.0316,-0.1043 -0.0652,-0.0888 -0.054,-0.0964 -0.0426,-0.1032 -0.031,-0.1091 -0.0014,-0.1437 0.0311,-0.1396 0.0601,-0.1307 0.0858,-0.1168 0.1073,-0.0976 0.1237,-0.0735 0.1356,-0.0455 0.143,-0.0136 0.1116,0.0195 0.1071,0.0316 0.1016,0.0435 0.0952,0.0556 0.1069,0.0207 0.1029,-0.0588 0.1987,-0.2253 0.0453,-0.1094 -0.0338,-0.1036 -0.0671,-0.0874 -0.056,-0.0953 -0.0448,-0.1023 -0.0332,-0.1084 -0.0044,-0.1436 0.0281,-0.1402 0.0574,-0.1319 0.0834,-0.1187 0.1052,-0.0998 0.1221,-0.076 0.1346,-0.0483 0.1427,-0.0166 0.112,0.0171 0.1078,0.0293 0.1024,0.0414 0.0963,0.0536 0.1074,0.0184 0.1017,-0.0608 0.1939,-0.2295 0.0429,-0.1103 -0.0359,-0.1029 -0.0689,-0.086 -0.058,-0.094 -0.0469,-0.1014 -0.0355,-0.1077 -0.0074,-0.1434 0.0252,-0.1408 0.0546,-0.1331 0.0808,-0.1204 0.1031,-0.102 0.1205,-0.0786 0.1336,-0.051 0.1424,-0.0197 0.1123,0.0148 0.1083,0.0271 0.1033,0.0393 0.0974,0.0515 0.1077,0.0161 0.1004,-0.063 0.1891,-0.2334 0.0406,-0.1112 -0.0381,-0.1021 -0.0707,-0.0845 -0.0599,-0.0928 -0.049,-0.1004 -0.0377,-0.1069 -0.0104,-0.1433 0.0222,-0.1413 0.0518,-0.1342 0.0783,-0.122 0.1009,-0.1041 0.1189,-0.0811 0.1324,-0.0539 0.1419,-0.0226 0.1126,0.0125 0.1089,0.0247 0.1041,0.0371 0.0985,0.0495 0.108,0.0139 0.0991,-0.0651 0.1841,-0.2374 0.0383,-0.112 -0.0402,-0.1012 -0.0725,-0.0831 -0.0619,-0.0915 -0.051,-0.0993 -0.04,-0.1061 -0.0134,-0.143 0.0192,-0.1418 0.049,-0.1352 0.0758,-0.1237 0.0987,-0.1062 0.1171,-0.0835 0.1313,-0.0567 0.1414,-0.0255 0.1129,0.01 0.1093,0.0225 0.1049,0.0349 0.0995,0.0474 0.1083,0.0117 0.0976,-0.0672 0.1792,-0.2412 0.0359,-0.1127 -0.0424,-0.1004 -0.0741,-0.0815 -0.0638,-0.0903 -0.0531,-0.0981 -0.0422,-0.1053 -0.0164,-0.1427 0.0162,-0.1421 0.0462,-0.1363 0.0731,-0.1252 0.0965,-0.1083 0.1153,-0.0859 0.1302,-0.0594 0.1408,-0.0285 0.113,0.0077 0.1098,0.0202 0.1056,0.0327 0.1004,0.0453 0.1086,0.0094 0.0962,-0.0692 0.174,-0.2449 0.0336,-0.1135 -0.0444,-0.0995 -0.0759,-0.0799 -0.0657,-0.0889 -0.0551,-0.097 -0.0444,-0.1044 -0.0194,-0.1424 0.0133,-0.1424 0.0433,-0.1372 0.0705,-0.1267 0.0942,-0.1102 0.1135,-0.0884 0.1288,-0.0621 0.1402,-0.0315 0.1132,0.0054 0.1102,0.0179 0.1062,0.0305 0.1014,0.0432 0.1087,0.0071 0.0947,-0.0712 0.1689,-0.2485 0.0312,-0.1142 -0.0465,-0.0985 -0.0775,-0.0783 -0.0675,-0.0875 -0.0572,-0.0959 -0.0466,-0.1034 -0.0224,-0.1419 0.0103,-0.1427 0.0405,-0.138 0.0678,-0.1282 0.0918,-0.1122 0.1117,-0.0907 0.1275,-0.0648 0.1395,-0.0344 0.1132,0.003 0.1106,0.0156 0.1069,0.0282 0.1022,0.0411 0.1088,0.0048 0.0933,-0.0732 0.1636,-0.2519 0.0288,-0.1148 -0.0486,-0.0976 -0.0791,-0.0767 -0.0693,-0.086 -0.0592,-0.0946 -0.0487,-0.1024 -0.0254,-0.1415 0.0073,-0.1428 0.0375,-0.1389 0.0652,-0.1296 0.0895,-0.1141 0.1097,-0.093 0.1261,-0.0674 0.1387,-0.0373 0.1134,6e-4 0.1108,0.0132 0.1074,0.026 0.1031,0.0389 0.1089,0.0026 0.0917,-0.0751 0.1583,-0.2553 0.0264,-0.1154 -0.0506,-0.0965 -0.0807,-0.0751 -0.0711,-0.0845 -0.0612,-0.0934 -0.0508,-0.1014 -0.0283,-0.1408 0.0043,-0.143 0.0346,-0.1396 0.0624,-0.1309 0.0871,-0.116 0.1077,-0.0953 0.1247,-0.0701 0.1379,-0.0401 0.1133,-0.0018 0.1111,0.0109 0.108,0.0238 0.1039,0.0367 0.1089,3e-4 0.0901,-0.077 0.1529,-0.2586 0.024,-0.1159 -0.0526,-0.0955 -0.0823,-0.0733 -0.0729,-0.083 -0.0631,-0.0921 -0.0529,-0.1003 -0.0313,-0.1402 0.0013,-0.143 0.0317,-0.1404 0.0596,-0.1321 0.0847,-0.1178 0.1057,-0.0976 0.1232,-0.0726 0.1371,-0.0431 0.1132,-0.0041 0.1113,0.0086 0.1084,0.0215 0.1047,0.0345 0.1089,-0.002 0.0884,-0.0789 0.1475,-0.2617 0.0215,-0.1164 -0.0546,-0.0943 -0.0837,-0.0715 -0.0746,-0.0816 -0.0651,-0.0907 -0.055,-0.0992 -0.0342,-0.1395 -0.0016,-0.143 0.0287,-0.141 0.0568,-0.1334 0.0822,-0.1195 0.1036,-0.0997 0.1217,-0.0753 0.1361,-0.0459 0.1131,-0.0065 0.1115,0.0063 0.1088,0.0192 0.1054,0.0323 0.1088,-0.0043 0.0868,-0.0806 0.142,-0.2648 0.0191,-0.1168 -0.0566,-0.0932 -0.0853,-0.0698 -0.0763,-0.0799 -0.0669,-0.0894 -0.0571,-0.0979 -0.037,-0.1388 -0.0047,-0.143 0.0257,-0.1415 0.0541,-0.1346 0.0796,-0.1212 0.1016,-0.1019 0.12,-0.0777 0.1351,-0.0488 0.113,-0.0089 0.1116,0.0039 0.1092,0.017 0.106,0.0301 0.1087,-0.0066 0.0851,-0.0825 0.1364,-0.2676 0.0167,-0.1172 -0.0586,-0.092 -0.0867,-0.068 -0.0779,-0.0783 -0.0688,-0.0879 -0.0591,-0.0968 -0.04,-0.138 -0.0077,-0.1428 0.0228,-0.142 0.0512,-0.1357 0.0771,-0.1228 0.0994,-0.104 0.1184,-0.0803 0.1341,-0.0516 0.1127,-0.0112 0.1117,0.0016 0.1095,0.0146 0.1066,0.0279 0.1086,-0.0088 0.0833,-0.0843 0.1308,-0.2704 0.0142,-0.1176 -0.0605,-0.0907 -0.0881,-0.0661 -0.0796,-0.0767 -0.0705,-0.0865 -0.0612,-0.0955 -0.0429,-0.1371 -0.0106,-0.1426 0.0198,-0.1425 0.0484,-0.1367 0.0745,-0.1244 0.0971,-0.1061 0.1167,-0.0827 0.133,-0.0544 0.1125,-0.0136 0.1116,-7e-4 0.1099,0.0123 0.1071,0.0257 0.1084,-0.0112 0.0815,-0.0859 0.1251,-0.2732 0.0117,-0.1178 -0.0623,-0.0894 -0.0895,-0.0643 -0.0811,-0.075 -0.0724,-0.085 -0.0632,-0.0942 -0.0457,-0.1362 -0.0136,-0.1423 0.0168,-0.1429 0.0455,-0.1377 0.0719,-0.1259 0.0949,-0.1081 0.1149,-0.0852 0.1318,-0.0571 0.1122,-0.016 0.1116,-0.0031 0.1101,0.0101 0.1077,0.0234 0.1081,-0.0134 0.0797,-0.0876 0.1193,-0.2758 0.0093,-0.118 -0.0642,-0.0881 -0.0908,-0.0624 -0.0827,-0.0733 -0.0742,-0.0834 -0.0651,-0.0928 -0.0485,-0.1353 -0.0166,-0.142 0.0138,-0.1432 0.0426,-0.1386 0.0692,-0.1275 0.0926,-0.11 0.1132,-0.0875 0.1305,-0.0599 0.1119,-0.0183 0.1115,-0.0054 0.1102,0.0077 0.1082,0.0212 0.1078,-0.0157 0.0779,-0.0893 0.1135,-0.2782 0.0068,-0.1181 -0.0661,-0.0868 -0.092,-0.0605 L 88,35.5091 l -0.0759,-0.0819 -0.067,-0.0914 -0.0514,-0.1342 -0.0196,-0.1417 0.0109,-0.1434 0.0397,-0.1395 0.0665,-0.1289 0.0903,-0.1119 0.1113,-0.0899 0.1293,-0.0626 0.1114,-0.0207 0.1113,-0.0077 0.1105,0.0054 0.1085,0.0189 0.1075,-0.0179 0.076,-0.0909 0.1076,-0.2805 0.0043,-0.1183 -0.0678,-0.0853 -0.0933,-0.0586 -0.0857,-0.0697 -0.0776,-0.0803 -0.0689,-0.09 -0.0542,-0.1331 -0.0226,-0.1412 0.0078,-0.1437 0.0368,-0.1402 0.0638,-0.1303 0.088,-0.1138 0.1093,-0.0922 0.128,-0.0653 0.111,-0.023 0.1111,-0.01 0.1105,0.0031 0.109,0.0166 0.107,-0.0202 0.0741,-0.0925 0.1017,-0.2826 0.0019,-0.1184 -0.0696,-0.0839 -0.0946,-0.0566 -0.0871,-0.0679 -0.0792,-0.0786 -0.0708,-0.0886 -0.057,-0.1319 -0.0255,-0.1407 0.0048,-0.1438 0.0338,-0.141 0.0611,-0.1315 0.0855,-0.1157 0.1075,-0.0945 0.1265,-0.068 0.1105,-0.0252 0.1109,-0.0124 0.1106,7e-4 0.1092,0.0144 0.1066,-0.0224 0.0721,-0.094 0.0959,-0.2848 -7e-4,-0.1183 -0.0713,-0.0825 -0.0957,-0.0545 -0.0886,-0.0661 -0.0809,-0.077 -0.0726,-0.0871 -0.0597,-0.1306 -0.0284,-0.1402 0.0017,-0.1439 0.0309,-0.1416 0.0583,-0.1328 0.0831,-0.1174 0.1054,-0.0967 0.1251,-0.0706 0.1099,-0.0276 0.1107,-0.0148 0.1105,-0.0015 0.1095,0.0121 0.1062,-0.0247 0.0701,-0.0955 0.0898,-0.2867 -0.0031,-0.1183 -0.073,-0.0809 -0.0969,-0.0526 -0.0899,-0.0642 -0.0824,-0.0752 -0.0745,-0.0856 -0.0624,-0.1294 -0.0314,-0.1395 -0.0012,-0.1439 0.0279,-0.1423 0.0555,-0.1339 0.0806,-0.1192 0.1034,-0.0988 0.1236,-0.0733 0.1093,-0.0298 0.1103,-0.0171 0.1105,-0.0038 0.1097,0.0097 0.1056,-0.0268 0.0681,-0.097 0.0838,-0.2885 -0.0056,-0.1182 -0.0747,-0.0794 -0.0979,-0.0505 -0.0912,-0.0623 -0.0841,-0.0735 -0.0762,-0.084 -0.0651,-0.128 -0.0343,-0.1389 -0.0042,-0.1438 0.0249,-0.1429 0.0527,-0.1351 0.0781,-0.1207 0.1012,-0.1011 0.1221,-0.0758 0.1086,-0.0321 0.11,-0.0194 0.1104,-0.0061 0.1099,0.0074 0.105,-0.029 0.066,-0.0984 0.0778,-0.2902 -0.0081,-0.1181 -0.0763,-0.0778 -0.099,-0.0484 -0.0925,-0.0604 -0.0855,-0.0717 -0.078,-0.0824 -0.0678,-0.1267 -0.0372,-0.1381 -0.0072,-0.1436 0.0219,-0.1434 0.0498,-0.1362 0.0756,-0.1224 0.0991,-0.1031 0.1204,-0.0783 0.108,-0.0344 0.1095,-0.0217 0.1102,-0.0085 0.1101,0.0052 0.1043,-0.0313 0.0641,-0.0997 0.0716,-0.2917 -0.0105,-0.1179 -0.078,-0.0762 -0.1,-0.0464 -0.0937,-0.0584 -0.0871,-0.07 -0.0796,-0.0806 -0.0705,-0.1253 -0.04,-0.1373 -0.0103,-0.1435 0.0189,-0.1437 0.047,-0.1372 0.073,-0.124 0.0969,-0.1051 0.1188,-0.0809 0.1072,-0.0367 0.109,-0.0239 0.1101,-0.0108 0.1101,0.0029 0.1037,-0.0335 0.0619,-0.101 0.0655,-0.2932 -0.013,-0.1177 -0.0795,-0.0745 -0.1009,-0.0442 -0.095,-0.0565 -0.0885,-0.0681 -0.0813,-0.079 -0.0731,-0.1237 -0.0429,-0.1364 -0.0133,-0.1433 0.0159,-0.1441 0.0441,-0.1382 0.0704,-0.1254 0.0947,-0.1072 0.1171,-0.0833 0.1064,-0.039 0.1085,-0.0262 0.1098,-0.013 0.1101,5e-4 0.103,-0.0356 0.0598,-0.1023 0.0594,-0.2945 -0.0155,-0.1174 -0.0811,-0.0728 -0.1018,-0.0421 -0.0962,-0.0545 -0.0898,-0.0662 -0.083,-0.0773 -0.0756,-0.1222 -0.0458,-0.1355 -0.0163,-0.1429 0.0129,-0.1445 0.0412,-0.139 0.0677,-0.1269 0.0925,-0.1091 0.1153,-0.0858 0.1055,-0.0411 0.108,-0.0285 0.1094,-0.0154 0.1102,-0.0017 0.1022,-0.0378 0.0576,-0.1036 0.0532,-0.2956 -0.0179,-0.117 -0.0826,-0.0711 -0.1027,-0.0401 -0.0972,-0.0524 -0.0913,-0.0643 -0.0845,-0.0755 -0.0782,-0.1206 -0.0486,-0.1345 -0.0193,-0.1426 0.0099,-0.1446 0.0383,-0.1399 0.065,-0.1283 0.0902,-0.1111 0.1134,-0.0881 0.1047,-0.0433 0.1073,-0.0308 0.1091,-0.0176 0.1102,-0.0041 0.1013,-0.0399 0.0555,-0.1047 0.047,-0.2967 -0.0204,-0.1166 -0.0841,-0.0694 -0.1035,-0.0379 -0.0983,-0.0504 -0.0926,-0.0624 -0.0861,-0.0737 -0.0807,-0.1189 -0.0514,-0.1335 -0.0222,-0.1421 0.0068,-0.1448 0.0353,-0.1407 0.0624,-0.1296 0.0878,-0.1129 0.1116,-0.0905 0.1037,-0.0455 0.1067,-0.033 0.1087,-0.02 0.11,-0.0063 0.1005,-0.042 0.0532,-0.1059 0.0408,-0.2976 -0.0228,-0.1162 -0.0855,-0.0676 -0.1042,-0.0357 -0.0994,-0.0483 -0.0939,-0.0604 -0.0876,-0.072 -0.0832,-0.1171 -0.0542,-0.1324 -0.0252,-0.1416 0.0038,-0.145 0.0324,-0.1413 0.0596,-0.1309 0.0854,-0.1148 0.1097,-0.0928 0.1028,-0.0477 0.1059,-0.0352 0.1083,-0.0222 0.1099,-0.0087 0.0996,-0.044 0.051,-0.107 0.0345,-0.2984 -0.0252,-0.1157 -0.0869,-0.0658 -0.105,-0.0335 -0.1004,-0.0462 -0.0951,-0.0585 -0.0891,-0.07 -0.0856,-0.1155 -0.057,-0.1311 -0.0281,-0.1411 7e-4,-0.14502 0.0295,-0.142 0.0568,-0.13214 0.083,-0.11647 L 94.2302,9.38916 94.332,9.33934 94.4371,9.30193 94.5449,9.27745 94.6546,9.26646 94.7533,9.22031 94.802,9.1123 94.8303,8.81323 94.8026,8.69812 94.7144,8.63416 94.6087,8.60287 94.5074,8.55873 94.4111,8.50229 94.3205,8.43411 94.2325,8.32051 94.1728,8.19055 94.1417,8.05009 94.1394,7.90511 94.1659,7.76251 94.22,7.62923 94.3005,7.51103 94.4062,7.4137 94.5069,7.36176 94.6112,7.32214 94.7185,7.29541 94.8279,7.28214 94.9256,7.23393 94.972,7.12491 94.994,6.82533 94.964,6.71082 94.8744,6.64871 94.7681,6.61964 94.6659,6.57765 94.5685,6.52324 94.4764,6.45695 94.3861,6.34523 94.3237,6.21654 94.2897,6.07678 94.2843,5.93185 94.3078,5.78876 94.3591,5.65436 94.4371,5.5345 94.5407,5.43498 94.6403,5.38094 94.7438,5.33914 94.8505,5.31018 94.9596,5.29462 95.0562,5.24437 95.1004,5.13441 95.1161,4.83438 95.0837,4.72057 94.9928,4.66035 94.886,4.63353 94.7829,4.59367 94.6843,4.54131 94.5909,4.47697 94.4983,4.36717 94.4332,4.23981 94.3962,4.10078 94.3879,3.95601 94.4083,3.81245 94.4568,3.677 94.5323,3.55554 94.6338,3.45387 94.7323,3.39775 94.8349,3.35381 94.9409,3.32262 95.0497,3.30476 95.1452,3.25252 95.1871,3.14165 95.1965,2.84137 95.1617,2.72826 95.0696,2.66995 94.9622,2.64537 94.8583,2.60768 94.7587,2.5574 94.664,2.49504 94.569,2.38719 94.5013,2.26123 94.4614,2.123 94.45,1.97844 94.4675,1.83447 94.5131,1.69804 94.586,1.57503 94.6854,1.47125 94.7826,1.41309 94.8843,1.367 94.9897,1.3336 95.098,1.31348 95.1925,1.25923 95.232,1.14748 95.2352,0.847107 95.198,0.734741 95.1047,0.678375 94.9968,0.656052 94.8921,0.620544 94.7914,0.572357 94.6954,0.511993 94.5983,0.406158 94.5279,0.281647 94.4852,0.144287 94.4707,0 l 0.0145,-0.144287 0.0427,-0.13736 0.0704,-0.124511 0.0971,-0.105835 0.096,-0.060196 0.1007,-0.048203 0.1047,-0.035599 0.1079,-0.022384 0.0933,-0.056214 0.0372,-0.112518 L 95.232,-1.14748 95.1925,-1.25909 95.098,-1.31348 94.9897,-1.33354 94.8843,-1.36685 94.7826,-1.41292 94.6854,-1.47125 94.586,-1.57503 94.5131,-1.69804 94.4675,-1.83447 94.45,-1.97844 94.4614,-2.123 l 0.0399,-0.13823 0.0677,-0.12596 0.095,-0.10785 0.0947,-0.06218 0.0996,-0.05031 0.1039,-0.03778 0.1074,-0.02464 0.0921,-0.05815 0.0348,-0.11327 -0.0094,-0.30028 -0.0419,-0.11073 -0.0955,-0.05238 -0.1088,-0.01781 -0.106,-0.03108 -0.1026,-0.04393 -0.0985,-0.05629 -0.1015,-0.10167 -0.0755,-0.12146 -0.0485,-0.13545 -0.0204,-0.14356 0.0083,-0.14477 0.037,-0.13903 0.0651,-0.12736 0.0926,-0.1098 0.0934,-0.06417 0.0986,-0.05238 0.1031,-0.03995 0.1068,-0.02688 0.0909,-0.06008 0.0324,-0.11395 -0.0157,-0.30003 -0.0441,-0.10982 -0.0967,-0.05039 -0.1091,-0.01551 -0.1066,-0.02886 -0.1036,-0.04176 -0.0996,-0.05423 -0.1036,-0.09952 -0.078,-0.11986 -0.0513,-0.1344 -0.0235,-0.14309 0.0054,-0.14493 0.034,-0.13976 0.0624,-0.12869 0.0903,-0.11172 0.0921,-0.06611 0.0974,-0.05442 0.1022,-0.04212 0.1063,-0.02911 0.0896,-0.06197 0.03,-0.11465 -0.022,-0.29958 -0.0464,-0.10889 -0.0977,-0.04834 -0.1094,-0.01322 -0.1072,-0.02663 -0.1044,-0.03958 -0.1007,-0.05213 -0.1057,-0.09733 -0.0805,-0.1182 -0.0541,-0.13328 -0.0265,-0.1426 0.0023,-0.14498 0.0311,-0.14046 0.0597,-0.12996 0.088,-0.1136 0.0906,-0.06801 0.0963,-0.05646 0.1013,-0.04423 0.1057,-0.03135 0.0882,-0.06382 0.0277,-0.11525 L 94.802,-9.1123 94.7533,-9.22017 94.6546,-9.26646 94.545,-9.2774 94.4372,-9.30177 94.332,-9.33916 l -0.1018,-0.05 -0.1077,-0.09511 -0.083,-0.11647 -0.0568,-0.13214 -0.0295,-0.142 -7e-4,-0.14502 0.0281,-0.1411 0.057,-0.1311 0.0856,-0.1155 0.0891,-0.0699 0.0951,-0.0584 0.1004,-0.0464 0.105,-0.0335 0.0869,-0.0657 0.0252,-0.1158 -0.0345,-0.2984 -0.051,-0.1068 -0.0996,-0.0442 -0.1099,-0.0087 -0.1083,-0.0221 -0.1059,-0.0352 -0.1028,-0.0478 -0.1097,-0.0928 -0.0854,-0.1148 -0.0596,-0.1309 -0.0324,-0.1413 -0.0038,-0.145 0.0252,-0.1416 0.0542,-0.1324 0.0832,-0.1171 0.0877,-0.0718 0.0938,-0.0604 0.0994,-0.0485 0.1042,-0.0357 0.0855,-0.0675 0.0228,-0.1163 -0.0408,-0.2976 -0.0531,-0.1057 -0.1006,-0.0422 -0.11,-0.0063 -0.1087,-0.0198 -0.1066,-0.033 -0.1038,-0.0457 -0.1116,-0.0905 -0.0878,-0.1129 -0.0624,-0.1296 -0.0353,-0.1407 -0.0068,-0.1448 0.0222,-0.1421 0.0514,-0.1335 0.0807,-0.1189 0.0862,-0.0736 0.0925,-0.0624 0.0984,-0.0505 0.1034,-0.0379 0.0841,-0.0692 0.0204,-0.1168 -0.047,-0.2967 -0.0554,-0.1046 -0.1014,-0.04 -0.1102,-0.004 -0.1091,-0.0176 -0.1073,-0.0307 -0.1047,-0.0435 -0.1134,-0.0881 -0.0902,-0.1111 -0.065,-0.1283 -0.0383,-0.1399 -0.0099,-0.1446 0.0193,-0.1426 0.0486,-0.1345 0.0782,-0.1206 0.0846,-0.0753 0.0912,-0.0643 0.0972,-0.0526 0.1027,-0.0401 0.0826,-0.071 0.0179,-0.1171 -0.0532,-0.2956 -0.0576,-0.1035 -0.1022,-0.0379 -0.1101,-0.0017 -0.1095,-0.0152 -0.1079,-0.0285 -0.1056,-0.0413 -0.1153,-0.0858 -0.0925,-0.1091 -0.0677,-0.1269 -0.0412,-0.139 -0.0129,-0.1445 0.0163,-0.1429 0.0458,-0.1355 0.0756,-0.1222 0.083,-0.0771 0.0899,-0.0662 0.0961,-0.0546 0.1018,-0.0422 0.0811,-0.0727 0.0155,-0.1175 -0.0594,-0.2945 -0.0598,-0.1022 -0.103,-0.0357 -0.1101,6e-4 -0.1098,-0.013 -0.1085,-0.0262 -0.1064,-0.0391 -0.1171,-0.0833 -0.0947,-0.1072 -0.0704,-0.1254 -0.0441,-0.1382 -0.0159,-0.1441 0.0133,-0.1433 0.0429,-0.1364 0.0731,-0.1237 0.0813,-0.0788 0.0885,-0.0681 0.095,-0.0566 0.1009,-0.0443 0.0795,-0.0744 0.013,-0.1178 -0.0655,-0.2932 -0.0619,-0.1009 -0.1037,-0.0336 -0.1101,0.0029 -0.11,-0.0106 -0.1091,-0.024 -0.1072,-0.0368 -0.1188,-0.0809 -0.0969,-0.1051 -0.073,-0.124 -0.047,-0.1372 -0.0189,-0.1437 0.0103,-0.1435 0.04,-0.1373 0.0705,-0.1253 0.0797,-0.0805 0.087,-0.0699 0.0938,-0.0586 0.0999,-0.0464 0.078,-0.076 0.0105,-0.1181 -0.0716,-0.2917 -0.064,-0.0996 -0.1044,-0.0314 -0.1101,0.0052 -0.1102,-0.0084 -0.1095,-0.0216 -0.108,-0.0346 -0.1204,-0.0783 -0.0991,-0.1031 -0.0756,-0.1224 -0.0498,-0.1362 -0.0219,-0.1434 0.0072,-0.1436 0.0372,-0.1381 0.0678,-0.1267 0.078,-0.0822 0.0855,-0.0717 0.0925,-0.0605 0.099,-0.0485 0.0764,-0.0777 0.008,-0.1182 -0.0778,-0.2902 -0.066,-0.0982 -0.105,-0.0292 -0.1099,0.0075 -0.1104,-0.0061 -0.1099,-0.0193 -0.1087,-0.0323 -0.1221,-0.0758 -0.1012,-0.1011 -0.0781,-0.1207 -0.0527,-0.1351 -0.0249,-0.1429 0.0042,-0.1438 0.0343,-0.1389 0.0651,-0.128 0.0763,-0.0838 0.084,-0.0735 0.0912,-0.0624 0.0979,-0.0506 0.0748,-0.0793 0.0055,-0.1183 -0.0838,-0.2885 -0.0681,-0.0969 -0.1056,-0.0269 -0.1097,0.0098 -0.1105,-0.0038 -0.1103,-0.017 -0.1093,-0.03 -0.1236,-0.0733 -0.1034,-0.0988 -0.0806,-0.1192 -0.0555,-0.1339 -0.0279,-0.1423 0.0012,-0.1439 0.0314,-0.1395 0.0624,-0.1294 0.0745,-0.0854 0.0825,-0.0753 0.0899,-0.0643 0.0968,-0.0526 0.0731,-0.0808 0.003,-0.1184 -0.0898,-0.2867 -0.0701,-0.0954 -0.1062,-0.0248 -0.1095,0.0121 -0.1105,-0.0014 -0.1106,-0.0147 -0.11,-0.0278 -0.1251,-0.0706 -0.1054,-0.0967 -0.0831,-0.1174 -0.0583,-0.1328 -0.0309,-0.1416 -0.0017,-0.1439 0.0284,-0.1402 0.0597,-0.1306 0.0727,-0.0869 0.0809,-0.077 0.0885,-0.0662 0.0957,-0.0546 0.0713,-0.0823 7e-4,-0.1185 -0.0959,-0.2848 -0.0721,-0.0939 -0.1066,-0.0225 -0.1092,0.0144 -0.1105,9e-4 -0.111,-0.0124 -0.1105,-0.0254 -0.1265,-0.068 -0.1075,-0.0945 -0.0855,-0.1157 -0.0611,-0.1315 -0.0338,-0.141 -0.0048,-0.1438 0.0255,-0.1407 0.057,-0.1319 0.0708,-0.0884 0.0793,-0.0786 0.0871,-0.0681 0.0945,-0.0566 0.0696,-0.0838 -0.0019,-0.1185 -0.1017,-0.2826 -0.074,-0.0924 -0.1071,-0.0203 -0.109,0.0167 -0.1104,0.0032 -0.1112,-0.0101 -0.111,-0.0231 -0.128,-0.0653 -0.1093,-0.0922 -0.088,-0.1138 -0.0638,-0.1303 -0.0368,-0.1402 -0.0078,-0.1437 0.0226,-0.1412 0.0542,-0.1331 0.069,-0.0898 0.0775,-0.0803 0.0857,-0.0699 0.0933,-0.0586 0.0679,-0.0852 -0.0044,-0.1184 -0.1076,-0.2805 -0.076,-0.0908 -0.1075,-0.018 -0.1085,0.0189 -0.1104,0.0056 -0.1113,-0.0078 -0.1115,-0.0208 -0.1293,-0.0626 -0.1113,-0.0899 -0.0903,-0.1119 -0.0665,-0.1289 -0.0397,-0.1395 -0.0109,-0.1434 0.0196,-0.1417 0.0514,-0.1342 0.0671,-0.0913 0.0759,-0.0818 0.0842,-0.0717 0.092,-0.0605 0.0661,-0.0866 -0.0068,-0.1183 -0.1135,-0.2782 -0.0779,-0.0892 -0.1078,-0.0158 -0.1081,0.0213 -0.1103,0.0078 -0.1115,-0.0054 -0.1119,-0.0185 -0.1305,-0.0599 -0.1132,-0.0875 -0.0926,-0.11 -0.0692,-0.1275 -0.0426,-0.1386 -0.0138,-0.1432 0.0166,-0.142 0.0485,-0.1353 0.0652,-0.0926 0.0741,-0.0835 0.0827,-0.0734 0.0908,-0.0624 0.0642,-0.088 -0.0093,-0.1181 -0.1193,-0.2758 -0.0797,-0.0875 -0.1081,-0.0135 -0.1077,0.0235 -0.11,0.0101 -0.1116,-0.0031 -0.1123,-0.0161 -0.1318,-0.0571 -0.1149,-0.0852 -0.0949,-0.1081 -0.0719,-0.1259 -0.0455,-0.1377 -0.0168,-0.1429 0.0136,-0.1423 0.0457,-0.1362 0.0633,-0.0941 0.0723,-0.085 0.0811,-0.075 0.0895,-0.0644 0.0624,-0.0893 -0.0118,-0.1179 -0.1251,-0.2732 -0.0815,-0.0858 -0.1084,-0.0113 -0.1071,0.0258 -0.1098,0.0124 -0.1117,-7e-4 -0.1125,-0.0138 -0.133,-0.0544 -0.1167,-0.0827 -0.0971,-0.1061 -0.0745,-0.1244 -0.0484,-0.1367 -0.0198,-0.1425 0.0106,-0.1426 0.0429,-0.1371 0.0612,-0.0954 0.0706,-0.0864 0.0795,-0.0768 0.0881,-0.0662 0.0605,-0.0906 -0.0142,-0.1177 -0.1308,-0.2704 -0.0833,-0.0841 -0.1086,-0.009 -0.1066,0.0279 -0.1095,0.0148 -0.1116,0.0016 -0.1128,-0.0114 -0.1341,-0.0516 -0.1184,-0.0803 -0.0994,-0.104 -0.0771,-0.1228 -0.0512,-0.1357 -0.0228,-0.142 0.0077,-0.1428 0.04,-0.138 0.0592,-0.0966 0.0687,-0.088 0.0779,-0.0784 0.0867,-0.068 0.0586,-0.0919 -0.0167,-0.1173 -0.1364,-0.2676 -0.085,-0.0824 -0.1088,-0.0067 -0.106,0.0302 -0.1092,0.017 -0.1115,0.0039 -0.1131,-0.009 -0.1351,-0.0488 -0.12,-0.0777 -0.1016,-0.1019 -0.0796,-0.1212 -0.0541,-0.1346 -0.0257,-0.1415 0.0047,-0.143 0.037,-0.1388 0.0572,-0.0978 0.0669,-0.0893 0.0763,-0.0801 0.0852,-0.0698 0.0566,-0.093 -0.0191,-0.117 -0.142,-0.2648 -0.0867,-0.0805 -0.1089,-0.0044 -0.1053,0.0324 -0.1088,0.0193 -0.1115,0.0062 -0.1132,-0.0066 -0.1361,-0.0459 -0.1217,-0.0753 -0.1036,-0.0997 -0.0822,-0.1195 -0.0568,-0.1334 -0.0287,-0.141 0.0016,-0.143 0.0342,-0.1395 0.0551,-0.099 0.065,-0.0908 0.0746,-0.0816 0.0837,-0.0716 0.0547,-0.0942 -0.0216,-0.1165 -0.1475,-0.2617 -0.0884,-0.0788 -0.1089,-0.0021 -0.1047,0.0346 -0.1083,0.0216 -0.1113,0.0086 -0.1133,-0.0043 -0.1371,-0.0431 -0.1232,-0.0726 -0.1057,-0.0976 -0.0847,-0.1178 -0.0596,-0.1321 -0.0317,-0.1404 -0.0013,-0.143 0.0313,-0.1402 0.053,-0.1002 0.0631,-0.092 0.0728,-0.0832 0.0823,-0.0733 0.0527,-0.0954 -0.0241,-0.116 -0.1529,-0.2586 -0.09,-0.0768 -0.109,10e-5 -0.1039,0.0368 -0.1079,0.0238 -0.1111,0.011 -0.1134,-0.002 -0.1379,-0.0401 -0.1247,-0.0701 -0.1077,-0.0953 -0.0871,-0.116 -0.0624,-0.1309 -0.0346,-0.1396 -0.0043,-0.143 0.0283,-0.1408 0.0509,-0.1012 0.0611,-0.0934 0.0711,-0.0847 0.0807,-0.0751 0.0507,-0.0964 -0.0265,-0.1155 -0.1583,-0.2553 -0.0916,-0.075 -0.109,0.0025 -0.103,0.0389 -0.1074,0.0261 -0.1108,0.0133 -0.1135,4e-4 -0.1387,-0.0373 -0.1261,-0.0674 -0.1097,-0.093 -0.0895,-0.1141 -0.0652,-0.1296 -0.0375,-0.1389 -0.0073,-0.1428 0.0254,-0.1415 0.0488,-0.1022 0.0591,-0.0947 0.0693,-0.0861 0.0791,-0.0767 0.0487,-0.0975 -0.0289,-0.1149 -0.1636,-0.2519 -0.0932,-0.0731 -0.1089,0.0047 -0.1022,0.0411 -0.1068,0.0284 -0.1106,0.0156 -0.1133,0.0028 -0.1395,-0.0344 -0.1275,-0.0648 -0.1117,-0.0907 -0.0918,-0.1122 -0.0678,-0.1282 -0.0405,-0.138 -0.0103,-0.1427 0.0224,-0.1419 0.0466,-0.1033 0.0573,-0.0958 0.0674,-0.0876 0.0775,-0.0784 0.0466,-0.0984 -0.0313,-0.1143 -0.1689,-0.2485 -0.0946,-0.071 -0.1088,0.0069 -0.1014,0.0433 -0.1062,0.0305 -0.1101,0.0179 -0.1133,0.0053 -0.1402,-0.0315 -0.1288,-0.0621 -0.1135,-0.0884 -0.0942,-0.1102 -0.0705,-0.1267 -0.0433,-0.1372 -0.0133,-0.1424 0.0194,-0.1424 0.0445,-0.1042 0.0551,-0.0971 0.0656,-0.0889 0.0759,-0.08 0.0445,-0.0994 -0.0337,-0.1136 -0.174,-0.2449 -0.0961,-0.069 -0.1087,0.0092 -0.1004,0.0454 -0.1055,0.0327 -0.1098,0.0202 -0.1131,0.0076 -0.1408,-0.0285 -0.1302,-0.0594 -0.1153,-0.0859 -0.0965,-0.1083 -0.0731,-0.1252 -0.0462,-0.1363 -0.0162,-0.1421 0.0164,-0.1427 0.0422,-0.1051 0.0532,-0.0982 0.0637,-0.0903 0.0741,-0.0816 0.0425,-0.1003 -0.036,-0.1128 -0.1792,-0.2412 -0.0975,-0.0671 -0.1084,0.0116 -0.0995,0.0474 -0.1048,0.035 -0.1093,0.0225 -0.113,0.0099 -0.1414,-0.0255 -0.1313,-0.0567 -0.1171,-0.0835 -0.0987,-0.1062 -0.0758,-0.1237 -0.049,-0.1352 -0.0192,-0.1418 0.0134,-0.143 0.0401,-0.106 0.051,-0.0993 0.0618,-0.0916 0.0725,-0.0831 0.0403,-0.1011 -0.0384,-0.1121 -0.1841,-0.2374 -0.099,-0.065 -0.1081,0.0138 -0.0984,0.0495 -0.1041,0.0372 -0.1089,0.0248 -0.1127,0.0123 -0.1419,-0.0226 -0.1324,-0.0539 -0.1189,-0.0811 -0.1009,-0.1041 -0.0783,-0.122 -0.0518,-0.1342 -0.0222,-0.1413 0.0104,-0.1433 0.0378,-0.1068 0.049,-0.1003 0.0599,-0.0929 0.0706,-0.0846 0.0382,-0.102 -0.0407,-0.1113 -0.1891,-0.2334 -0.1003,-0.0629 -0.1078,0.016 -0.0973,0.0516 -0.1033,0.0393 -0.1083,0.0271 -0.1124,0.0147 -0.1424,-0.0197 -0.1336,-0.051 -0.1205,-0.0786 -0.1031,-0.102 -0.0808,-0.1204 -0.0546,-0.1331 -0.0252,-0.1408 0.0074,-0.1434 0.0356,-0.1076 0.0469,-0.1013 0.0579,-0.0942 0.0689,-0.086 0.036,-0.1028 -0.043,-0.1104 -0.1939,-0.2295 -0.1016,-0.0607 -0.1075,0.0183 -0.0962,0.0536 -0.1024,0.0415 -0.1078,0.0293 -0.1121,0.017 -0.1427,-0.0166 -0.1346,-0.0483 -0.1221,-0.076 -0.1052,-0.0998 -0.0834,-0.1187 -0.0574,-0.1319 -0.0281,-0.1402 0.0044,-0.1436 0.0334,-0.1083 0.0447,-0.1023 0.0559,-0.0953 0.0671,-0.0875 0.0339,-0.1035 -0.0454,-0.1095 -0.1987,-0.2253 -0.1028,-0.0587 -0.107,0.0206 -0.0952,0.0556 -0.1015,0.0436 -0.107,0.0316 -0.1118,0.0194 -0.143,-0.0136 -0.1356,-0.0455 -0.1237,-0.0735 -0.1073,-0.0976 -0.0858,-0.1168 -0.0601,-0.1307 -0.0311,-0.1396 0.0014,-0.1437 0.0311,-0.109 0.0426,-0.1032 0.0539,-0.0964 0.0652,-0.0889 0.0317,-0.1042 -0.0476,-0.1085 -0.2034,-0.2212 -0.104,-0.0564 -0.1066,0.0228 -0.0939,0.0576 -0.1006,0.0457 -0.1064,0.0338 -0.1113,0.0217 -0.1433,-0.0106 -0.1365,-0.0426 -0.1252,-0.0709 -0.1093,-0.0953 -0.0883,-0.115 -0.0628,-0.1294 -0.034,-0.139 -0.0016,-0.1436 0.0288,-0.1096 0.0404,-0.1041 0.0519,-0.0976 0.0633,-0.0901 0.0296,-0.1049 -0.0499,-0.1075 -0.208,-0.2168 -0.1052,-0.0543 -0.1061,0.0251 -0.0927,0.0595 -0.0996,0.0478 -0.1056,0.0361 -0.1109,0.024 -0.1434,-0.0076 -0.1374,-0.0398 -0.1267,-0.0682 -0.1113,-0.093 -0.0906,-0.1132 -0.0656,-0.128 -0.0368,-0.1382 -0.0046,-0.1436 0.0264,-0.1102 0.0383,-0.1049 0.0498,-0.0986 0.0614,-0.0915 0.0274,-0.1055 -0.0522,-0.1064 -0.2124,-0.2124 -0.1063,-0.0521 -0.1056,0.0273 -0.0914,0.0614 -0.0986,0.05 -0.1049,0.0382 -0.1103,0.0263 -0.1436,-0.0046 -0.1382,-0.0368 -0.128,-0.0656 -0.1132,-0.0906 -0.093,-0.1113 -0.0682,-0.1267 -0.0398,-0.1374 -0.0076,-0.1434 0.0242,-0.1107 0.036,-0.1057 0.0478,-0.0997 0.0594,-0.0927 0.0252,-0.106 -0.0544,-0.1053 -0.2168,-0.208 -0.1074,-0.0498 -0.105,0.0295 -0.0901,0.0633 -0.0975,0.052 -0.1041,0.0404 -0.1097,0.0287 -0.1436,-0.0016 -0.139,-0.034 -0.1294,-0.0628 -0.115,-0.0883 -0.0953,-0.1093 -0.0709,-0.1252 -0.0426,-0.1365 -0.0106,-0.1433 0.0218,-0.1112 0.0338,-0.1064 0.0457,-0.1006 0.0575,-0.094 0.0229,-0.1065 -0.0565,-0.1041 -0.2212,-0.2034 -0.1084,-0.0475 -0.1043,0.0316 -0.0888,0.0652 -0.0964,0.054 -0.1032,0.0426 -0.1091,0.031 -0.1437,0.0014 -0.1396,-0.0311 -0.1307,-0.0601 -0.1168,-0.0858 -0.0976,-0.1073 -0.0735,-0.1237 -0.0455,-0.1356 -0.0136,-0.143 0.0195,-0.1116 0.0316,-0.1071 0.0435,-0.1016 0.0556,-0.0952 0.0207,-0.1069 -0.0588,-0.1029 -0.2253,-0.1987 -0.1094,-0.0453 -0.1036,0.0338 -0.0874,0.0671 -0.0953,0.056 -0.1023,0.0448 -0.1084,0.0332 -0.1436,0.0044 -0.1402,-0.0281 -0.1319,-0.0574 -0.1187,-0.0834 -0.0998,-0.1052 -0.076,-0.1221 -0.0483,-0.1346 -0.0166,-0.1427 0.0171,-0.112 0.0293,-0.1078 0.0414,-0.1024 0.0536,-0.0963 0.0184,-0.1074 -0.0608,-0.1017 -0.2295,-0.1939 -0.1103,-0.0429 -0.1029,0.0359 -0.086,0.0689 -0.094,0.058 -0.1014,0.0469 -0.1077,0.0355 -0.1434,0.0074 -0.1408,-0.0252 -0.1331,-0.0546 -0.1204,-0.0808 -0.102,-0.1031 -0.0786,-0.1205 -0.051,-0.1336 -0.0197,-0.1424 0.0148,-0.1123 0.0271,-0.1083 0.0393,-0.1033 0.0515,-0.0974 0.0161,-0.1077 -0.063,-0.1004 -0.2334,-0.1891 -0.1112,-0.0406 -0.1021,0.0381 -0.0845,0.0707 -0.0928,0.0599 -0.1004,0.049 -0.1069,0.0377 -0.1433,0.0104 -0.1413,-0.0222 -0.1342,-0.0518 -0.122,-0.0783 -0.1041,-0.1009 -0.0811,-0.1189 -0.0539,-0.1324 -0.0226,-0.1419 0.0125,-0.1126 0.0247,-0.1089 0.0371,-0.1041 0.0495,-0.0985 0.0139,-0.108 -0.0651,-0.0991 -0.2374,-0.1841 -0.112,-0.0383 -0.1012,0.0402 -0.0831,0.0725 -0.0915,0.0619 -0.0993,0.051 -0.1061,0.04 -0.143,0.0134 -0.1418,-0.0192 -0.1352,-0.049 -0.1237,-0.0758 -0.1062,-0.0987 -0.0835,-0.1171 -0.0567,-0.1313 -0.0255,-0.1414 0.01,-0.1129 0.0225,-0.1093 0.0349,-0.1049 0.0474,-0.0995 0.0117,-0.1083 -0.0672,-0.0976 -0.2412,-0.1792 -0.1127,-0.0359 -0.1004,0.0424 -0.0815,0.0741 -0.0903,0.0638 -0.0981,0.0531 -0.1053,0.0422 -0.1427,0.0164 -0.1421,-0.0162 -0.1363,-0.0462 -0.1252,-0.0731 -0.1083,-0.0965 -0.0859,-0.1153 -0.0594,-0.1302 -0.0285,-0.1408 0.0077,-0.113 0.0202,-0.1098 0.0327,-0.1056 0.0453,-0.1004 0.0094,-0.1086 -0.0692,-0.0962 -0.2449,-0.174 -0.1135,-0.0336 -0.0995,0.0444 -0.0799,0.0759 -0.0889,0.0657 -0.097,0.0551 -0.1044,0.0444 -0.1424,0.0194 -0.1424,-0.0133 -0.1372,-0.0433 -0.1267,-0.0705 -0.1102,-0.0942 -0.0884,-0.1135 -0.0621,-0.1288 -0.0315,-0.1402 0.0054,-0.1132 0.0179,-0.1102 0.0305,-0.1062 0.0432,-0.1014 0.0071,-0.1087 -0.0712,-0.0947 -0.2485,-0.1689 -0.1142,-0.0312 -0.0985,0.0465 -0.0783,0.0775 -0.0875,0.0675 -0.0959,0.0572 -0.1034,0.0466 -0.1419,0.0224 -0.1427,-0.0103 -0.138,-0.0405 -0.1282,-0.0678 -0.1122,-0.0918 -0.0907,-0.1117 -0.0648,-0.1275 -0.0344,-0.1395 0.003,-0.1132 0.0156,-0.1106 0.0282,-0.1069 0.0411,-0.1022 0.0048,-0.1088 -0.0732,-0.0933 -0.2519,-0.1636 -0.1148,-0.0288 -0.0976,0.0486 -0.0767,0.0791 -0.086,0.0693 -0.0946,0.0592 -0.1024,0.0487 -0.1415,0.0254 -0.1428,-0.0073 -0.1389,-0.0375 -0.1296,-0.0652 -0.1141,-0.0895 -0.093,-0.1097 -0.0674,-0.1261 -0.0373,-0.1387 6e-4,-0.1134 0.0132,-0.1108 0.026,-0.1074 0.0389,-0.1031 0.0026,-0.1089 -0.0751,-0.0917 -0.2553,-0.1583 -0.1154,-0.0264 -0.0965,0.0506 -0.0751,0.0807 -0.0845,0.0711 -0.0934,0.0612 -0.1014,0.0508 -0.1408,0.0283 -0.143,-0.0043 -0.1396,-0.0346 -0.1309,-0.0624 -0.116,-0.0871 -0.0953,-0.1077 -0.0701,-0.1247 -0.0401,-0.1379 -0.0018,-0.1133 0.0109,-0.1111 0.0238,-0.108 0.0367,-0.1039 3e-4,-0.1089 -0.077,-0.0901 -0.2586,-0.1529 -0.1159,-0.024 -0.0955,0.0526 -0.0733,0.0823 -0.083,0.0729 -0.0921,0.0631 -0.1003,0.0529 -0.1402,0.0313 -0.143,-0.0013 -0.1404,-0.0317 -0.1321,-0.0596 -0.1178,-0.0847 -0.0976,-0.1057 -0.0726,-0.1232 -0.0431,-0.1371 -0.0041,-0.1132 0.0086,-0.1113 0.0215,-0.1084 0.0345,-0.1047 -0.002,-0.1089 -0.0789,-0.0884 -0.2617,-0.1475 -0.1164,-0.0215 -0.0943,0.0546 -0.0715,0.0837 -0.0816,0.0746 -0.0907,0.0651 -0.0992,0.055 -0.1395,0.0342 -0.143,0.0016 -0.141,-0.0287 -0.1334,-0.0568 -0.1195,-0.0822 -0.0997,-0.1036 -0.0753,-0.1217 -0.0459,-0.1361 -0.0065,-0.1131 0.0063,-0.1115 0.0192,-0.1088 0.0323,-0.1054 -0.0043,-0.1088 -0.0806,-0.0868 -0.2648,-0.142 -0.1168,-0.0191 -0.0932,0.0566 -0.0698,0.0853 -0.0799,0.0763 -0.0894,0.0669 -0.0979,0.0571 -0.1388,0.037 -0.143,0.0047 -0.1415,-0.0257 -0.1346,-0.0541 -0.1212,-0.0796 -0.1019,-0.1016 -0.0777,-0.12 -0.0488,-0.1351 -0.0089,-0.113 0.0039,-0.1116 0.017,-0.1092 0.0301,-0.106 -0.0066,-0.1087 -0.0825,-0.0851 -0.2676,-0.1364 -0.1172,-0.0167 -0.092,0.0586 -0.068,0.0867 -0.0783,0.0779 -0.0879,0.0688 -0.0968,0.0591 -0.138,0.04 -0.1428,0.0077 -0.142,-0.0228 -0.1357,-0.0512 -0.1228,-0.0771 -0.104,-0.0994 -0.0803,-0.1184 -0.0516,-0.1341 -0.0112,-0.1127 0.0016,-0.1117 0.0146,-0.1095 0.0279,-0.1066 -0.0088,-0.1086 -0.0843,-0.0833 -0.2704,-0.1308 -0.1176,-0.0142 -0.0907,0.0605 -0.0661,0.0881 -0.0767,0.0796 -0.0865,0.0705 -0.0955,0.0612 -0.1371,0.0429 -0.1426,0.0106 -0.1425,-0.0198 -0.1367,-0.0484 -0.1244,-0.0745 -0.1061,-0.0971 -0.0827,-0.1167 -0.0544,-0.133 -0.0136,-0.1125 -7e-4,-0.1116 0.0123,-0.1099 0.0257,-0.1071 -0.0112,-0.1084 -0.0859,-0.0815 -0.2732,-0.1251 -0.1178,-0.0117 -0.0894,0.0623 -0.0643,0.0895 -0.075,0.0811 -0.085,0.0724 -0.0942,0.0632 -0.1362,0.0457 -0.1423,0.0136 -0.1429,-0.0168 -0.1377,-0.0455 -0.1259,-0.0719 -0.1081,-0.0949 -0.0852,-0.1149 -0.0571,-0.1318 -0.016,-0.1122 -0.0031,-0.1116 0.0101,-0.1101 0.0234,-0.1077 -0.0134,-0.1081 -0.0876,-0.0797 -0.2758,-0.1193 -0.118,-0.0093 -0.0881,0.0642 -0.0624,0.0908 -0.0733,0.0827 -0.0834,0.0742 -0.0928,0.0651 -0.1353,0.0485 -0.142,0.0166 -0.1432,-0.0138 -0.1386,-0.0426 -0.1275,-0.0692 -0.11,-0.0926 -0.0875,-0.1132 -0.0599,-0.1305 -0.0183,-0.1119 -0.0054,-0.1115 0.0077,-0.1102 0.0212,-0.1082 -0.0157,-0.1078 -0.0893,-0.0779 -0.2782,-0.1135 -0.1181,-0.0068 -0.0868,0.0661 -0.0605,0.092 -0.0715,0.0843 -0.0819,0.0759 -0.0914,0.067 -0.1342,0.0514 -0.1417,0.0196 -0.1434,-0.0109 -0.1395,-0.0397 -0.1289,-0.0665 -0.1119,-0.0903 -0.0899,-0.1113 -0.0626,-0.1293 -0.0207,-0.1114 -0.0077,-0.1113 0.0054,-0.1105 0.0189,-0.1085 -0.0179,-0.1075 -0.0909,-0.076 -0.2805,-0.1076 -0.1183,-0.0043 -0.0853,0.0678 -0.0586,0.0933 -0.0697,0.0857 -0.0803,0.0776 -0.09,0.0689 -0.1331,0.0542 -0.1412,0.0226 -0.1437,-0.0078 -0.1402,-0.0368 -0.1303,-0.0638 -0.1138,-0.088 -0.0922,-0.1093 -0.0653,-0.128 -0.023,-0.111 -0.01,-0.1111 0.0031,-0.1105 0.0166,-0.109 -0.0202,-0.107 -0.0925,-0.0741 -0.2826,-0.1017 -0.1184,-0.0019 -0.0839,0.0696 -0.0566,0.0946 -0.0679,0.0871 -0.0786,0.0792 -0.0886,0.0708 -0.1319,0.057 -0.1407,0.0255 -0.1438,-0.0048 -0.141,-0.0338 -0.1315,-0.0611 -0.1157,-0.0855 -0.0945,-0.1075 -0.068,-0.1265 -0.0252,-0.1105 -0.0124,-0.1109 7e-4,-0.1106 0.0144,-0.1092 -0.0224,-0.1066 -0.094,-0.0721 -0.2848,-0.0959 -0.1183,7e-4 -0.0825,0.0713 -0.0545,0.0957 -0.0661,0.0886 -0.077,0.0809 -0.0871,0.0726 -0.1306,0.0597 -0.1402,0.0284 -0.1439,-0.0017 -0.1416,-0.0309 -0.1328,-0.0583 -0.1174,-0.0831 -0.0967,-0.1054 -0.0706,-0.1251 -0.0276,-0.1099 -0.0148,-0.1107 -0.0015,-0.1105 0.0121,-0.1095 -0.0247,-0.1062 -0.0955,-0.0701 -0.2867,-0.0898 -0.1183,0.0031 -0.0809,0.073 -0.0526,0.0969 -0.0642,0.0899 -0.0752,0.0824 -0.0856,0.0745 -0.1294,0.0624 -0.1395,0.0314 -0.1439,0.0012 -0.1423,-0.0279 -0.1339,-0.0555 -0.1192,-0.0806 -0.0988,-0.1034 -0.0733,-0.1236 -0.0298,-0.1093 -0.0171,-0.1103 -0.0038,-0.1105 0.0097,-0.1097 -0.0268,-0.1056 -0.097,-0.0681 -0.2885,-0.0838 -0.1182,0.0056 -0.0794,0.0747 -0.0505,0.0979 -0.0623,0.0912 -0.0735,0.0841 -0.084,0.0762 -0.128,0.0651 -0.1389,0.0343 -0.1438,0.0042 -0.1429,-0.0249 -0.1351,-0.0527 -0.1207,-0.0781 -0.1011,-0.1012 -0.0758,-0.1221 -0.0321,-0.1086 -0.0194,-0.11 -0.0061,-0.1104 0.0074,-0.1099 -0.029,-0.105 -0.0984,-0.066 -0.2902,-0.0778 -0.1181,0.0081 -0.0778,0.0763 -0.0484,0.099 -0.0604,0.0925 -0.0717,0.0855 -0.0824,0.078 -0.1267,0.0678 -0.1381,0.0372 -0.1436,0.0072 -0.1434,-0.0219 -0.1362,-0.0498 -0.1224,-0.0756 -0.1031,-0.0991 -0.0783,-0.1204 -0.0344,-0.108 -0.0217,-0.1095 -0.0085,-0.1102 0.0052,-0.1101 -0.0313,-0.1043 -0.0997,-0.0641 -0.2917,-0.0716 -0.1179,0.0105 -0.0762,0.078 -0.0464,0.1 -0.0584,0.0937 -0.07,0.0871 -0.0806,0.0796 -0.1253,0.0705 -0.1373,0.04 -0.1435,0.0103 -0.1437,-0.0189 -0.1372,-0.047 -0.124,-0.073 -0.1051,-0.0969 -0.0809,-0.1188 -0.0367,-0.1072 -0.0239,-0.109 -0.0108,-0.1101 0.0029,-0.1101 -0.0335,-0.1037 -0.101,-0.0619 -0.2932,-0.0655 -0.1177,0.013 -0.0745,0.0795 -0.0442,0.1009 -0.0565,0.095 -0.0681,0.0885 -0.079,0.0813 -0.1237,0.0731 -0.1364,0.0429 -0.1433,0.0133 -0.1441,-0.0159 -0.1382,-0.0441 -0.1254,-0.0704 -0.1072,-0.0947 -0.0833,-0.1171 -0.039,-0.1064 -0.0262,-0.1085 -0.013,-0.1098 5e-4,-0.1101 -0.0356,-0.103 -0.1023,-0.0598 -0.2945,-0.0594 -0.1174,0.0155 -0.0728,0.0811 -0.0421,0.1018 -0.0545,0.0962 -0.0662,0.0898 -0.0773,0.083 -0.1222,0.0756 -0.1355,0.0458 -0.1429,0.0163 -0.1445,-0.0129 -0.139,-0.0412 -0.1269,-0.0677 -0.1091,-0.0925 -0.0858,-0.1153 -0.0411,-0.1055 -0.0285,-0.108 -0.0154,-0.1094 -0.0017,-0.1102 -0.0378,-0.1022 -0.1036,-0.0576 -0.2956,-0.0532 -0.117,0.0179 -0.0711,0.0826 -0.0401,0.1027 -0.0524,0.0972 -0.0643,0.0913 -0.0755,0.0845 -0.1206,0.0782 -0.1345,0.0486 -0.1426,0.0193 -0.1446,-0.0099 -0.1399,-0.0383 -0.1283,-0.065 -0.1111,-0.0902 -0.0881,-0.1134 -0.0433,-0.1047 -0.0308,-0.1073 -0.0176,-0.1091 -0.0041,-0.1102 -0.0399,-0.1013 -0.1047,-0.0555 -0.2967,-0.047 -0.1166,0.0204 -0.0694,0.0841 -0.0379,0.1035 -0.0504,0.0983 -0.0624,0.0926 -0.0737,0.0861 -0.1189,0.0807 -0.1335,0.0514 -0.1421,0.0222 -0.1448,-0.0068 -0.1407,-0.0353 -0.1296,-0.0624 -0.1129,-0.0878 -0.0905,-0.1116 -0.0455,-0.1037 -0.033,-0.1067 -0.02,-0.1087 -0.0063,-0.11 -0.042,-0.1005 -0.1059,-0.0532 -0.2976,-0.0408 -0.1162,0.0228 -0.0676,0.0855 -0.0357,0.1042 -0.0483,0.0994 -0.0604,0.0939 -0.072,0.0876 -0.1171,0.0832 -0.1324,0.0542 -0.1416,0.0252 -0.145,-0.0038 -0.1413,-0.0324 -0.1309,-0.0596 -0.1148,-0.0854 -0.0928,-0.1097 -0.0477,-0.1028 -0.0352,-0.1059 -0.0222,-0.1083 -0.0087,-0.1099 -0.044,-0.0996 -0.107,-0.051 -0.2984,-0.0345 -0.1157,0.0252 -0.0658,0.0869 -0.0335,0.105 -0.0462,0.1004 -0.0585,0.0951 -0.07,0.0891 -0.1155,0.0856 -0.1311,0.057 -0.1411,0.0281 -0.14502,-7e-4 -0.142,-0.0295 -0.13214,-0.0568 -0.11647,-0.083 -0.09511,-0.1077 -0.04982,-0.1018 -0.03741,-0.1051 -0.02448,-0.1078 -0.01099,-0.1097 -0.04615,-0.0987 -0.10801,-0.0487 -0.29907,-0.0283 -0.11511,0.0277 -0.06396,0.0882 -0.03129,0.1057 -0.04414,0.1013 -0.05644,0.0963 -0.06818,0.0906 -0.1136,0.088 -0.12996,0.0597 -0.14046,0.0311 -0.14498,0.0023 -0.1426,-0.0265 -0.13328,-0.0541 -0.1182,-0.0805 -0.09733,-0.1057 -0.05194,-0.1007 -0.03962,-0.1043 -0.02673,-0.1073 -0.01327,-0.1094 -0.04821,-0.0977 -0.10902,-0.0464 -0.29958,-0.022 -0.11451,0.03 -0.06211,0.0896 -0.02907,0.1063 -0.04199,0.1022 -0.05441,0.0974 -0.06629,0.0921 -0.11172,0.0903 -0.12869,0.0624 -0.13976,0.034 -0.14493,0.0054 -0.14309,-0.0235 -0.1344,-0.0513 -0.11986,-0.078 -0.09952,-0.1036 -0.05404,-0.0996 -0.0418,-0.1035 -0.02896,-0.1067 -0.01556,-0.1091 -0.05025,-0.0966 -0.10996,-0.0442 -0.30003,-0.0157 -0.11381,0.0324 -0.06022,0.0909 -0.02682,0.1068 -0.03986,0.1031 -0.05236,0.0986 -0.06434,0.0934 -0.1098,0.0926 -0.12736,0.0651 -0.13903,0.037 -0.14477,0.0083 -0.14356,-0.0204 -0.13545,-0.0485 -0.12146,-0.0755 -0.10167,-0.1015 -0.05612,-0.0985 -0.04394,-0.1026 -0.03119,-0.106 -0.01786,-0.1088 -0.05224,-0.0955 -0.11087,-0.0419 -0.30028,-0.0094 -0.11311,0.0348 -0.05831,0.0921 -0.02458,0.1074 -0.03769,0.1039 -0.05028,0.0996 -0.06236,0.0947 -0.10785,0.095 -0.12596,0.0677 L 2.123,-94.4614 1.97844,-94.45 1.83447,-94.4675 1.69804,-94.5131 1.57503,-94.586 1.47125,-94.6854 1.41309,-94.7826 1.367,-94.8843 1.3336,-94.9897 1.31348,-95.098 1.25923,-95.1925 1.14748,-95.232 l -0.300373,-0.0032 -0.112366,0.0372 -0.056366,0.0933 -0.022323,0.1079 -0.035508,0.1047 -0.048187,0.1007 -0.060364,0.096 -0.105835,0.0971 -0.124511,0.0704 -0.13736,0.0427 L 0,-94.4707 l -0.144287,-0.0145 -0.13736,-0.0427 -0.124511,-0.0704 -0.105835,-0.0971 -0.060196,-0.096 -0.048203,-0.1007 -0.035599,-0.1047 -0.022384,-0.1079 -0.056214,-0.0933 -0.112518,-0.0372 -0.300373,0.0032 -0.11161,0.0395 -0.05439,0.0945 -0.02006,0.1083 -0.03331,0.1054 -0.04607,0.1017 -0.05833,0.0972 -0.10378,0.0994 -0.12301,0.0729 -0.13643,0.0456 -0.14397,0.0175 -0.14456,-0.0114 -0.13823,-0.0399 -0.12596,-0.0677 -0.10785,-0.095 -0.06218,-0.0947 -0.05031,-0.0996 -0.03778,-0.1039 -0.02464,-0.1074 -0.05815,-0.0921 -0.11327,-0.0348 -0.30028,0.0094 -0.11073,0.0419 -0.05238,0.0955 -0.01781,0.1088 -0.03108,0.106 -0.04393,0.1026 -0.05629,0.0985 -0.10167,0.1015 -0.12146,0.0755 -0.13545,0.0485 -0.14356,0.0204 -0.14477,-0.0083 -0.13903,-0.037 -0.12736,-0.0651 -0.1098,-0.0926 -0.06417,-0.0934 -0.05238,-0.0986 -0.03995,-0.1031 -0.02688,-0.1068 -0.06008,-0.0909 -0.11395,-0.0324 -0.30003,0.0157 -0.10982,0.0441 -0.05039,0.0967 -0.01551,0.1091 -0.02886,0.1066 -0.04176,0.1036 -0.05423,0.0996 -0.09952,0.1036 -0.11986,0.078 -0.1344,0.0513 -0.14309,0.0235 -0.14493,-0.0054 -0.13976,-0.034 -0.12869,-0.0624 -0.11172,-0.0903 -0.06611,-0.0921 -0.05442,-0.0974 -0.04212,-0.1022 -0.02911,-0.1063 -0.06197,-0.0896 -0.11465,-0.03 -0.29958,0.022 -0.10889,0.0464 -0.04834,0.0977 -0.01322,0.1094 -0.02663,0.1072 -0.03958,0.1044 -0.05213,0.1007 -0.09733,0.1057 -0.1182,0.0805 -0.13328,0.0541 -0.1426,0.0265 -0.14498,-0.0023 -0.14046,-0.0311 -0.12996,-0.0597 -0.1136,-0.088 -0.06801,-0.0906 -0.05646,-0.0963 -0.04423,-0.1013 -0.03135,-0.1057 -0.06382,-0.0882 -0.11525,-0.0277 -0.29907,0.0283 -0.10787,0.0487 -0.04629,0.0987 -0.01094,0.1096 -0.02437,0.1078 -0.03739,0.1052 -0.05,0.1018 -0.09511,0.1077 -0.11647,0.083 -0.13214,0.0568 -0.142,0.0295 -0.14502,7e-4 -0.1411,-0.0281 -0.1311,-0.057 -0.1155,-0.0856 -0.0699,-0.0891 -0.0584,-0.0951 -0.0464,-0.1004 -0.0335,-0.105 -0.0657,-0.0869 -0.1158,-0.0252 -0.2984,0.0345 -0.1068,0.051 -0.0442,0.0996 -0.0087,0.1099 -0.0221,0.1083 -0.0352,0.1059 -0.0478,0.1028 -0.0928,0.1097 -0.1148,0.0854 -0.1309,0.0596 -0.1413,0.0324 -0.145,0.0038 -0.1416,-0.0252 -0.1324,-0.0542 -0.1171,-0.0832 -0.0718,-0.0877 -0.0604,-0.0938 -0.0485,-0.0994 -0.0357,-0.1042 -0.0675,-0.0855 -0.1163,-0.0228 -0.2976,0.0408 -0.1057,0.0531 -0.0422,0.1006 -0.0063,0.11 -0.0198,0.1087 -0.033,0.1066 -0.0457,0.1038 -0.0905,0.1116 -0.1129,0.0878 -0.1296,0.0624 -0.1407,0.0353 -0.1448,0.0068 -0.1421,-0.0222 -0.1335,-0.0514 -0.1189,-0.0807 -0.0736,-0.0862 -0.0624,-0.0925 -0.0505,-0.0984 -0.0379,-0.1034 -0.0692,-0.0841 -0.1168,-0.0204 -0.2967,0.047 -0.1046,0.0554 -0.04,0.1014 -0.004,0.1102 -0.0176,0.1091 -0.0307,0.1073 -0.0435,0.1047 -0.0881,0.1134 -0.1111,0.0902 -0.1283,0.065 -0.1399,0.0383 -0.1446,0.0099 -0.1426,-0.0193 -0.1345,-0.0486 -0.1206,-0.0782 -0.0753,-0.0846 -0.0643,-0.0912 -0.0526,-0.0972 -0.0401,-0.1027 -0.071,-0.0826 -0.1171,-0.0179 -0.2956,0.0532 -0.1035,0.0576 -0.0379,0.1022 -0.0017,0.1101 -0.0152,0.1095 -0.0285,0.1079 -0.0413,0.1056 -0.0858,0.1153 -0.1091,0.0925 -0.1269,0.0677 -0.139,0.0412 -0.1445,0.0129 -0.1429,-0.0163 -0.1355,-0.0458 -0.1222,-0.0756 -0.0771,-0.083 -0.0662,-0.0899 -0.0546,-0.0961 -0.0422,-0.1018 -0.0727,-0.0811 -0.1175,-0.0155 -0.2945,0.0594 -0.1022,0.0598 -0.0357,0.103 6e-4,0.1101 -0.013,0.1098 -0.0262,0.1085 -0.0391,0.1064 -0.0833,0.1171 -0.1072,0.0947 -0.1254,0.0704 -0.1382,0.0441 -0.1441,0.0159 -0.1433,-0.0133 -0.1364,-0.0429 -0.1237,-0.0731 -0.0788,-0.0813 -0.0681,-0.0885 -0.0566,-0.095 -0.0443,-0.1009 -0.0744,-0.0795 -0.1178,-0.013 -0.2932,0.0655 -0.1009,0.0619 -0.0336,0.1037 0.0029,0.1101 -0.0106,0.11 -0.024,0.1091 -0.0368,0.1072 -0.0809,0.1188 -0.1051,0.0969 -0.124,0.073 -0.1372,0.047 -0.1437,0.0189 -0.1435,-0.0103 -0.1373,-0.04 -0.1253,-0.0705 -0.0805,-0.0797 -0.0699,-0.087 -0.0586,-0.0938 -0.0464,-0.0999 -0.076,-0.078 -0.1181,-0.0105 -0.2917,0.0716 -0.0996,0.064 -0.0314,0.1044 0.0052,0.1101 -0.0084,0.1102 -0.0216,0.1095 -0.0346,0.108 -0.0783,0.1204 -0.1031,0.0991 -0.1224,0.0756 -0.1362,0.0498 -0.1434,0.0219 -0.1436,-0.0072 -0.1381,-0.0372 -0.1267,-0.0678 -0.0822,-0.078 -0.0717,-0.0855 -0.0605,-0.0925 -0.0485,-0.099 -0.0777,-0.0764 -0.1182,-0.008 -0.2902,0.0778 -0.0982,0.066 -0.0292,0.105 0.0075,0.1099 -0.0061,0.1104 -0.0193,0.1099 -0.0323,0.1087 -0.0758,0.1221 -0.1011,0.1012 -0.1207,0.0781 -0.1351,0.0527 -0.1429,0.0249 -0.1438,-0.0042 -0.1389,-0.0343 -0.128,-0.0651 -0.0838,-0.0763 -0.0735,-0.084 -0.0624,-0.0912 -0.0506,-0.0979 -0.0793,-0.0748 -0.1183,-0.0055 -0.2885,0.0838 -0.0969,0.0681 -0.0269,0.1056 0.0098,0.1097 -0.0038,0.1105 -0.017,0.1103 -0.03,0.1093 -0.0733,0.1236 -0.0988,0.1034 -0.1192,0.0806 -0.1339,0.0555 -0.1423,0.0279 -0.1439,-0.0012 -0.1395,-0.0314 -0.1294,-0.0624 -0.0854,-0.0745 -0.0753,-0.0825 -0.0643,-0.0899 -0.0526,-0.0968 -0.0808,-0.0731 -0.1184,-0.003 -0.2867,0.0898 -0.0954,0.0701 -0.0248,0.1062 0.0121,0.1095 -0.0014,0.1105 -0.0147,0.1106 -0.0278,0.11 -0.0706,0.1251 -0.0967,0.1054 -0.1174,0.0831 -0.1328,0.0583 -0.1416,0.0309 -0.1439,0.0017 -0.1402,-0.0284 -0.1306,-0.0597 -0.0869,-0.0727 -0.077,-0.0809 -0.0662,-0.0885 -0.0546,-0.0957 -0.0823,-0.0713 -0.1185,-7e-4 -0.2848,0.0959 -0.0939,0.0721 -0.0225,0.1066 0.0144,0.1092 9e-4,0.1105 -0.0124,0.111 -0.0254,0.1105 -0.068,0.1265 -0.0945,0.1075 -0.1157,0.0855 -0.1315,0.0611 -0.141,0.0338 -0.1438,0.0048 -0.1407,-0.0255 -0.1319,-0.057 -0.0884,-0.0708 -0.0786,-0.0793 -0.0681,-0.0871 -0.0566,-0.0945 -0.0838,-0.0696 -0.1185,0.0019 -0.2826,0.1017 -0.0924,0.074 -0.0203,0.1071 0.0167,0.109 0.0032,0.1104 -0.0101,0.1112 -0.0231,0.111 -0.0653,0.128 -0.0922,0.1093 -0.1138,0.088 -0.1303,0.0638 -0.1402,0.0368 -0.1437,0.0078 -0.1412,-0.0226 -0.1331,-0.0542 -0.0898,-0.069 -0.0803,-0.0775 -0.0699,-0.0857 -0.0586,-0.0933 -0.0852,-0.0679 -0.1184,0.0044 -0.2805,0.1076 -0.0908,0.076 -0.018,0.1075 0.0189,0.1085 0.0056,0.1104 -0.0078,0.1113 -0.0208,0.1115 -0.0626,0.1293 -0.0899,0.1113 -0.1119,0.0903 -0.1289,0.0665 -0.1395,0.0397 -0.1434,0.0109 -0.1417,-0.0196 -0.1342,-0.0514 -0.0913,-0.0671 -0.0818,-0.0759 -0.0717,-0.0842 -0.0605,-0.092 -0.0866,-0.0661 -0.1183,0.0068 -0.2782,0.1135 -0.0892,0.0779 -0.0158,0.1078 0.0213,0.1081 0.0078,0.1103 -0.0054,0.1115 -0.0185,0.1119 -0.0599,0.1305 -0.0875,0.1132 -0.11,0.0926 -0.1275,0.0692 -0.1386,0.0426 -0.1432,0.0138 -0.142,-0.0166 -0.1353,-0.0485 -0.0926,-0.0652 -0.0835,-0.0741 -0.0734,-0.0827 -0.0624,-0.0908 -0.088,-0.0642 -0.1181,0.0093 -0.2758,0.1193 -0.0875,0.0797 -0.0135,0.1081 0.0235,0.1077 0.0101,0.11 -0.0031,0.1116 -0.0161,0.1123 -0.0571,0.1318 -0.0852,0.1149 -0.1081,0.0949 -0.1259,0.0719 -0.1377,0.0455 -0.1429,0.0168 -0.1423,-0.0136 -0.1362,-0.0457 -0.0941,-0.0633 -0.085,-0.0723 -0.075,-0.0811 -0.0644,-0.0895 -0.0893,-0.0624 -0.1179,0.0118 -0.2732,0.1251 -0.0858,0.0815 -0.0113,0.1084 0.0258,0.1071 0.0124,0.1098 -7e-4,0.1117 -0.0138,0.1125 -0.0544,0.133 -0.0827,0.1167 -0.1061,0.0971 -0.1244,0.0745 -0.1367,0.0484 -0.1425,0.0198 -0.1426,-0.0106 -0.1371,-0.0429 -0.0954,-0.0612 -0.0864,-0.0706 -0.0768,-0.0795 -0.0662,-0.0881 -0.0906,-0.0605 -0.1177,0.0142 -0.2704,0.1308 -0.0841,0.0833 -0.009,0.1086 0.0279,0.1066 0.0148,0.1095 0.0016,0.1116 -0.0114,0.1128 -0.0516,0.1341 -0.0803,0.1184 -0.104,0.0994 -0.1228,0.0771 -0.1357,0.0512 -0.142,0.0228 -0.1428,-0.0077 -0.138,-0.04 -0.0966,-0.0592 -0.088,-0.0687 -0.0784,-0.0779 -0.068,-0.0867 -0.0919,-0.0586 -0.1173,0.0167 -0.2676,0.1364 -0.0824,0.085 -0.0067,0.1088 0.0302,0.106 0.017,0.1092 0.0039,0.1115 -0.009,0.1131 -0.0488,0.1351 -0.0777,0.12 -0.1019,0.1016 -0.1212,0.0796 -0.1346,0.0541 -0.1415,0.0257 -0.143,-0.0047 -0.1388,-0.037 -0.0978,-0.0572 -0.0893,-0.0669 -0.0801,-0.0763 -0.0698,-0.0852 -0.093,-0.0566 -0.117,0.0191 -0.2648,0.142 -0.0805,0.0867 -0.0044,0.1089 0.0324,0.1053 0.0193,0.1088 0.0062,0.1115 -0.0066,0.1132 -0.0459,0.1361 -0.0753,0.1217 -0.0997,0.1036 -0.1195,0.0822 -0.1334,0.0568 -0.141,0.0287 -0.143,-0.0016 -0.1395,-0.0342 -0.099,-0.0551 -0.0908,-0.065 -0.0816,-0.0746 -0.0716,-0.0837 -0.0942,-0.0547 -0.1165,0.0216 -0.2617,0.1475 -0.0788,0.0884 -0.0021,0.1089 0.0346,0.1047 0.0216,0.1083 0.0086,0.1113 -0.0043,0.1133 -0.0431,0.1371 -0.0726,0.1232 -0.0976,0.1057 -0.1178,0.0847 -0.1321,0.0596 -0.1404,0.0317 -0.143,0.0013 -0.1402,-0.0313 -0.1002,-0.053 -0.092,-0.0631 -0.0832,-0.0728 -0.0733,-0.0823 -0.0954,-0.0527 -0.116,0.0241 -0.2586,0.1529 -0.0768,0.09 10e-5,0.109 0.0368,0.1039 0.0238,0.1079 0.011,0.1111 -0.002,0.1134 -0.0401,0.1379 -0.0701,0.1247 -0.0953,0.1077 -0.116,0.0871 -0.1309,0.0624 -0.1396,0.0346 -0.143,0.0043 -0.1408,-0.0283 -0.1012,-0.0509 -0.0934,-0.0611 -0.0847,-0.0711 -0.0751,-0.0807 -0.0964,-0.0507 -0.1155,0.0265 -0.2553,0.1583 -0.075,0.0916 0.0025,0.109 0.0389,0.103 0.0261,0.1074 0.0133,0.1108 4e-4,0.1135 -0.0373,0.1387 -0.0674,0.1261 -0.093,0.1097 -0.1141,0.0895 -0.1296,0.0652 -0.1389,0.0375 -0.1428,0.0073 -0.1415,-0.0254 -0.1022,-0.0488 -0.0947,-0.0591 -0.0861,-0.0693 -0.0767,-0.0791 -0.0975,-0.0487 -0.1149,0.0289 -0.2519,0.1636 -0.0731,0.0932 0.0047,0.1089 0.0411,0.1022 0.0284,0.1068 0.0156,0.1106 0.0028,0.1133 -0.0344,0.1395 -0.0648,0.1275 -0.0907,0.1117 -0.1122,0.0918 -0.1282,0.0678 -0.138,0.0405 -0.1427,0.0103 -0.1419,-0.0224 -0.1033,-0.0466 -0.0958,-0.0573 -0.0876,-0.0674 -0.0784,-0.0775 -0.0984,-0.0466 -0.1143,0.0313 -0.2485,0.1689 -0.071,0.0946 0.0069,0.1088 0.0433,0.1014 0.0305,0.1062 0.0179,0.1101 0.0053,0.1133 -0.0315,0.1402 -0.0621,0.1288 -0.0884,0.1135 -0.1102,0.0942 -0.1267,0.0705 -0.1372,0.0433 -0.1424,0.0133 -0.1424,-0.0194 -0.1042,-0.0445 -0.0971,-0.0551 -0.0889,-0.0656 -0.08,-0.0759 -0.0994,-0.0445 -0.1136,0.0337 -0.2449,0.174 -0.069,0.0961 0.0092,0.1087 0.0454,0.1004 0.0327,0.1055 0.0202,0.1098 0.0076,0.1131 -0.0285,0.1408 -0.0594,0.1302 -0.0859,0.1153 -0.1083,0.0965 -0.1252,0.0731 -0.1363,0.0462 -0.1421,0.0162 -0.1427,-0.0164 -0.1051,-0.0422 -0.0982,-0.0532 -0.0903,-0.0637 -0.0816,-0.0741 -0.1003,-0.0425 -0.1128,0.036 -0.2412,0.1792 -0.0671,0.0975 0.0116,0.1084 0.0474,0.0995 0.035,0.1048 0.0225,0.1093 0.0099,0.113 -0.0255,0.1414 -0.0567,0.1313 -0.0835,0.1171 -0.1062,0.0987 -0.1237,0.0758 -0.1352,0.049 -0.1418,0.0192 -0.143,-0.0134 -0.106,-0.0401 -0.0993,-0.051 -0.0916,-0.0618 -0.0831,-0.0725 -0.1011,-0.0403 -0.1121,0.0384 -0.2374,0.1841 -0.065,0.099 0.0138,0.1081 0.0495,0.0984 0.0372,0.1041 0.0248,0.1089 0.0123,0.1127 -0.0226,0.1419 -0.0539,0.1324 -0.0811,0.1189 -0.1041,0.1009 -0.122,0.0783 -0.1342,0.0518 -0.1413,0.0222 -0.1433,-0.0104 -0.1068,-0.0378 -0.1003,-0.049 -0.0929,-0.0599 -0.0846,-0.0706 -0.102,-0.0382 -0.1113,0.0407 -0.2334,0.1891 -0.0629,0.1003 0.016,0.1078 0.0516,0.0973 0.0393,0.1033 0.0271,0.1083 0.0147,0.1124 -0.0197,0.1424 -0.051,0.1336 -0.0786,0.1205 -0.102,0.1031 -0.1204,0.0808 -0.1331,0.0546 -0.1408,0.0252 -0.1434,-0.0074 -0.1076,-0.0356 -0.1013,-0.0469 -0.0942,-0.0579 -0.086,-0.0689 -0.1028,-0.036 -0.1104,0.043 -0.2295,0.1939 -0.0607,0.1016 0.0183,0.1075 0.0536,0.0962 0.0415,0.1024 0.0293,0.1078 0.017,0.1121 -0.0166,0.1427 -0.0483,0.1346 -0.076,0.1221 -0.0998,0.1052 -0.1187,0.0834 -0.1319,0.0574 -0.1402,0.0281 -0.1436,-0.0044 -0.1083,-0.0334 -0.1023,-0.0447 -0.0953,-0.0559 -0.0875,-0.0671 -0.1035,-0.0339 -0.1095,0.0454 -0.2253,0.1987 -0.0587,0.1028 0.0206,0.107 0.0556,0.0952 0.0436,0.1015 0.0316,0.107 0.0194,0.1118 -0.0136,0.143 -0.0455,0.1356 -0.0735,0.1237 -0.0976,0.1073 -0.1168,0.0858 -0.1307,0.0601 -0.1396,0.0311 -0.1437,-0.0014 -0.109,-0.0311 -0.1032,-0.0426 -0.0964,-0.0539 -0.0889,-0.0652 -0.1042,-0.0317 -0.1085,0.0476 -0.2212,0.2034 -0.0564,0.104 0.0228,0.1066 0.0576,0.0939 0.0457,0.1006 0.0338,0.1064 0.0217,0.1113 -0.0106,0.1433 -0.0426,0.1365 -0.0709,0.1252 -0.0953,0.1093 -0.115,0.0883 -0.1294,0.0628 -0.139,0.034 -0.1436,0.0016 -0.1096,-0.0288 -0.1041,-0.0404 -0.0976,-0.0519 -0.0901,-0.0633 -0.1049,-0.0296 -0.1075,0.0499 -0.2168,0.208 -0.0543,0.1052 0.0251,0.1061 0.0595,0.0927 0.0478,0.0996 0.0361,0.1056 0.024,0.1109 -0.0076,0.1434 -0.0398,0.1374 -0.0682,0.1267 -0.093,0.1113 -0.1132,0.0906 -0.128,0.0656 -0.1382,0.0368 -0.1436,0.0046 -0.1102,-0.0264 -0.1049,-0.0383 -0.0986,-0.0498 -0.0915,-0.0614 -0.1055,-0.0274 -0.1064,0.0522 -0.2124,0.2124 -0.0521,0.1063 0.0273,0.1056 0.0614,0.0914 0.05,0.0986 0.0382,0.1049 0.0263,0.1103 -0.0046,0.1436 -0.0368,0.1382 -0.0656,0.128 -0.0906,0.1132 -0.1113,0.093 -0.1267,0.0682 -0.1374,0.0398 -0.1434,0.0076 -0.1107,-0.0242 -0.1057,-0.036 -0.0997,-0.0478 -0.0927,-0.0594 -0.106,-0.0252 -0.1053,0.0544 -0.208,0.2168 -0.0498,0.1074 0.0295,0.105 0.0633,0.0901 0.052,0.0975 0.0404,0.1041 0.0287,0.1097 -0.0016,0.1436 -0.034,0.139 -0.0628,0.1294 -0.0883,0.115 -0.1093,0.0953 -0.1252,0.0709 -0.1365,0.0426 -0.1433,0.0106 -0.1112,-0.0218 -0.1064,-0.0338 -0.1006,-0.0457 -0.094,-0.0575 -0.1065,-0.0229 -0.1041,0.0565 -0.2034,0.2212 -0.0475,0.1084 0.0316,0.1043 0.0652,0.0888 0.054,0.0964 0.0426,0.1032 0.031,0.1091 0.0014,0.1437 -0.0311,0.1396 -0.0601,0.1307 -0.0858,0.1168 -0.1073,0.0976 -0.1237,0.0735 -0.1356,0.0455 -0.143,0.0136 -0.1116,-0.0195 -0.1071,-0.0316 -0.1016,-0.0435 -0.0952,-0.0556 -0.1069,-0.0207 -0.1029,0.0588 -0.1987,0.2253 -0.0453,0.1094 0.0338,0.1036 0.0671,0.0874 0.056,0.0953 0.0448,0.1023 0.0332,0.1084 0.0044,0.1436 -0.0281,0.1402 -0.0574,0.1319 -0.0834,0.1187 -0.1052,0.0998 -0.1221,0.076 -0.1346,0.0483 -0.1427,0.0166 -0.112,-0.0171 -0.1078,-0.0293 -0.1024,-0.0414 -0.0963,-0.0536 -0.1074,-0.0184 -0.1017,0.0608 -0.1939,0.2295 -0.0429,0.1103 0.0359,0.1029 0.0689,0.086 0.058,0.094 0.0469,0.1014 0.0355,0.1077 0.0074,0.1434 -0.0252,0.1408 -0.0546,0.1331 -0.0808,0.1204 -0.1031,0.102 -0.1205,0.0786 -0.1336,0.051 -0.1424,0.0197 -0.1123,-0.0148 -0.1083,-0.0271 -0.1033,-0.0393 -0.0974,-0.0515 -0.1077,-0.0161 -0.1004,0.063 -0.1891,0.2334 -0.0406,0.1112 0.0381,0.1021 0.0707,0.0845 0.0599,0.0928 0.049,0.1004 0.0377,0.1069 0.0104,0.1433 -0.0222,0.1413 -0.0518,0.1342 -0.0783,0.122 -0.1009,0.1041 -0.1189,0.0811 -0.1324,0.0539 -0.1419,0.0226 -0.1126,-0.0125 -0.1089,-0.0247 -0.1041,-0.0371 -0.0985,-0.0495 -0.108,-0.0139 -0.0991,0.0651 -0.1841,0.2374 -0.0383,0.112 0.0402,0.1012 0.0725,0.0831 0.0619,0.0915 0.051,0.0993 0.04,0.1061 0.0134,0.143 -0.0192,0.1418 -0.049,0.1352 -0.0758,0.1237 -0.0987,0.1062 -0.1171,0.0835 -0.1313,0.0567 -0.1414,0.0255 -0.1129,-0.01 -0.1093,-0.0225 -0.1049,-0.0349 -0.0995,-0.0474 -0.1083,-0.0117 -0.0976,0.0672 -0.1792,0.2412 -0.0359,0.1127 0.0424,0.1004 0.0741,0.0815 0.0638,0.0903 0.0531,0.0981 0.0422,0.1053 0.0164,0.1427 -0.0162,0.1421 -0.0462,0.1363 -0.0731,0.1252 -0.0965,0.1083 -0.1153,0.0859 -0.1302,0.0594 -0.1408,0.0285 -0.113,-0.0077 -0.1098,-0.0202 -0.1056,-0.0327 -0.1004,-0.0453 -0.1086,-0.0094 -0.0962,0.0692 -0.174,0.2449 -0.0336,0.1135 0.0444,0.0995 0.0759,0.0799 0.0657,0.0889 0.0551,0.097 0.0444,0.1044 0.0194,0.1424 -0.0133,0.1424 -0.0433,0.1372 -0.0705,0.1267 -0.0942,0.1102 -0.1135,0.0884 -0.1288,0.0621 -0.1402,0.0315 -0.1132,-0.0054 -0.1102,-0.0179 -0.1062,-0.0305 -0.1014,-0.0432 -0.1087,-0.0071 -0.0947,0.0712 -0.1689,0.2485 -0.0312,0.1142 0.0465,0.0985 0.0775,0.0783 0.0675,0.0875 0.0572,0.0959 0.0466,0.1034 0.0224,0.1419 -0.0103,0.1427 -0.0405,0.138 -0.0678,0.1282 -0.0918,0.1122 -0.1117,0.0907 -0.1275,0.0648 -0.1395,0.0344 -0.1132,-0.003 -0.1106,-0.0156 -0.1069,-0.0282 -0.1022,-0.0411 -0.1088,-0.0048 -0.0933,0.0732 -0.1636,0.2519 -0.0288,0.1148 0.0486,0.0976 0.0791,0.0767 0.0693,0.086 0.0592,0.0946 0.0487,0.1024 0.0254,0.1415 -0.0073,0.1428 -0.0375,0.1389 -0.0652,0.1296 -0.0895,0.1141 -0.1097,0.093 -0.1261,0.0674 -0.1387,0.0373 -0.1134,-6e-4 -0.1108,-0.0132 -0.1074,-0.026 -0.1031,-0.0389 -0.1089,-0.0026 -0.0917,0.0751 -0.1583,0.2553 -0.0264,0.1154 0.0506,0.0965 0.0807,0.0751 0.0711,0.0845 0.0612,0.0934 0.0508,0.1014 0.0283,0.1408 -0.0043,0.143 -0.0346,0.1396 -0.0624,0.1309 -0.0871,0.116 -0.1077,0.0953 -0.1247,0.0701 -0.1379,0.0401 -0.1133,0.0018 -0.1111,-0.0109 -0.108,-0.0238 -0.1039,-0.0367 -0.1089,-3e-4 -0.0901,0.077 -0.1529,0.2586 -0.024,0.1159 0.0526,0.0955 0.0823,0.0733 0.0729,0.083 0.0631,0.0921 0.0529,0.1003 0.0313,0.1402 -0.0013,0.143 -0.0317,0.1404 -0.0596,0.1321 -0.0847,0.1178 -0.1057,0.0976 -0.1232,0.0726 -0.1371,0.0431 -0.1132,0.0041 -0.1113,-0.0086 -0.1084,-0.0215 -0.1047,-0.0345 -0.1089,0.002 -0.0884,0.0789 -0.1475,0.2617 -0.0215,0.1164 0.0546,0.0943 0.0837,0.0715 0.0746,0.0816 0.0651,0.0907 0.055,0.0992 0.0342,0.1395 0.0016,0.143 -0.0287,0.141 -0.0568,0.1334 -0.0822,0.1195 -0.1036,0.0997 -0.1217,0.0753 -0.1361,0.0459 -0.1131,0.0065 -0.1115,-0.0063 -0.1088,-0.0192 -0.1054,-0.0323 -0.1088,0.0043 -0.0868,0.0806 -0.142,0.2648 -0.0191,0.1168 0.0566,0.0932 0.0853,0.0698 0.0763,0.0799 0.0669,0.0894 0.0571,0.0979 0.037,0.1388 0.0047,0.143 -0.0257,0.1415 -0.0541,0.1346 -0.0796,0.1212 -0.1016,0.1019 -0.12,0.0777 -0.1351,0.0488 -0.113,0.0089 -0.1116,-0.0039 -0.1092,-0.017 -0.106,-0.0301 -0.1087,0.0066 -0.0851,0.0825 -0.1364,0.2676 -0.0167,0.1172 0.0586,0.092 0.0867,0.068 0.0779,0.0783 0.0688,0.0879 0.0591,0.0968 0.04,0.138 0.0077,0.1428 -0.0228,0.142 -0.0512,0.1357 -0.0771,0.1228 -0.0994,0.104 -0.1184,0.0803 -0.1341,0.0516 -0.1127,0.0112 -0.1117,-0.0016 -0.1095,-0.0146 -0.1066,-0.0279 -0.1086,0.0088 -0.0833,0.0843 -0.1308,0.2704 -0.0142,0.1176 0.0605,0.0907 0.0881,0.0661 0.0796,0.0767 0.0705,0.0865 0.0612,0.0955 0.0429,0.1371 0.0106,0.1426 -0.0198,0.1425 -0.0484,0.1367 -0.0745,0.1244 -0.0971,0.1061 -0.1167,0.0827 -0.133,0.0544 -0.1125,0.0136 -0.1116,7e-4 -0.1099,-0.0123 -0.1071,-0.0257 -0.1084,0.0112 -0.0815,0.0859 -0.1251,0.2732 -0.0117,0.1178 0.0623,0.0894 0.0895,0.0643 0.0811,0.075 0.0724,0.085 0.0632,0.0942 0.0457,0.1362 0.0136,0.1423 -0.0168,0.1429 -0.0455,0.1377 -0.0719,0.1259 -0.0949,0.1081 -0.1149,0.0852 -0.1318,0.0571 -0.1122,0.016 -0.1116,0.0031 -0.1101,-0.0101 -0.1077,-0.0234 -0.1081,0.0134 -0.0797,0.0876 -0.1193,0.2758 -0.0093,0.118 0.0642,0.0881 0.0908,0.0624 0.0827,0.0733 0.0742,0.0834 0.0651,0.0928 0.0485,0.1353 0.0166,0.142 -0.0138,0.1432 -0.0426,0.1386 -0.0692,0.1275 -0.0926,0.11 -0.1132,0.0875 -0.1305,0.0599 -0.1119,0.0183 -0.1115,0.0054 -0.1102,-0.0077 -0.1082,-0.0212 -0.1078,0.0157 -0.0779,0.0893 -0.1135,0.2782 -0.0068,0.1181 0.0661,0.0868 0.092,0.0605 0.0843,0.0715 0.0759,0.0819 0.067,0.0914 0.0514,0.1342 0.0196,0.1417 -0.0109,0.1434 -0.0397,0.1395 -0.0665,0.1289 -0.0903,0.1119 -0.1113,0.0899 -0.1293,0.0626 -0.1114,0.0207 -0.1113,0.0077 -0.1105,-0.0054 -0.1085,-0.0189 -0.1075,0.0179 -0.076,0.0909 -0.1076,0.2805 -0.0043,0.1183 0.0678,0.0853 0.0933,0.0586 0.0857,0.0697 0.0776,0.0803 0.0689,0.09 0.0542,0.1331 0.0226,0.1412 -0.0078,0.1437 -0.0368,0.1402 -0.0638,0.1303 -0.088,0.1138 -0.1093,0.0922 -0.128,0.0653 -0.111,0.023 -0.1111,0.01 -0.1105,-0.0031 -0.109,-0.0166 -0.107,0.0202 -0.0741,0.0925 -0.1017,0.2826 -0.0019,0.1184 0.0696,0.0839 0.0946,0.0566 0.0871,0.0679 0.0792,0.0786 0.0708,0.0886 0.057,0.1319 0.0255,0.1407 -0.0048,0.1438 -0.0338,0.141 -0.0611,0.1315 -0.0855,0.1157 -0.1075,0.0945 -0.1265,0.068 -0.1105,0.0252 -0.1109,0.0124 -0.1106,-7e-4 -0.1092,-0.0144 -0.1066,0.0224 -0.0721,0.094 -0.0959,0.2848 7e-4,0.1183 0.0713,0.0825 0.0957,0.0545 0.0886,0.0661 0.0809,0.077 0.0726,0.0871 0.0597,0.1306 0.0284,0.1402 -0.0017,0.1439 -0.0309,0.1416 -0.0583,0.1328 -0.0831,0.1174 -0.1054,0.0967 -0.1251,0.0706 -0.1099,0.0276 -0.1107,0.0148 -0.1105,0.0015 -0.1095,-0.0121 -0.1062,0.0247 -0.0701,0.0955 -0.0898,0.2867 0.0031,0.1183 0.073,0.0809 0.0969,0.0526 0.0899,0.0642 0.0824,0.0752 0.0745,0.0856 0.0624,0.1294 0.0314,0.1395 0.0012,0.1439 -0.0279,0.1423 -0.0555,0.1339 -0.0806,0.1192 -0.1034,0.0988 -0.1236,0.0733 -0.1093,0.0298 -0.1103,0.0171 -0.1105,0.0038 -0.1097,-0.0097 -0.1056,0.0268 -0.0681,0.097 -0.0838,0.2885 0.0056,0.1182 0.0747,0.0794 0.0979,0.0505 0.0912,0.0623 0.0841,0.0735 0.0762,0.084 0.0651,0.128 0.0343,0.1389 0.0042,0.1438 -0.0249,0.1429 -0.0527,0.1351 -0.0781,0.1207 -0.1012,0.1011 -0.1221,0.0758 -0.1086,0.0321 -0.11,0.0194 -0.1104,0.0061 -0.1099,-0.0074 -0.105,0.029 -0.066,0.0984 -0.0778,0.2902 0.0081,0.1181 0.0763,0.0778 0.099,0.0484 0.0925,0.0604 0.0855,0.0717 0.078,0.0824 0.0678,0.1267 0.0372,0.1381 0.0072,0.1436 -0.0219,0.1434 -0.0498,0.1362 -0.0756,0.1224 -0.0991,0.1031 -0.1204,0.0783 -0.108,0.0344 -0.1095,0.0217 -0.1102,0.0085 -0.1101,-0.0052 -0.1043,0.0313 -0.0641,0.0997 -0.0716,0.2917 0.0105,0.1179 0.078,0.0762 0.1,0.0464 0.0937,0.0584 0.0871,0.07 0.0796,0.0806 0.0705,0.1253 0.04,0.1373 0.0103,0.1435 -0.0189,0.1437 -0.047,0.1372 -0.073,0.124 -0.0969,0.1051 -0.1188,0.0809 -0.1072,0.0367 -0.109,0.0239 -0.1101,0.0108 -0.1101,-0.0029 -0.1037,0.0335 -0.0619,0.101 -0.0655,0.2932 0.013,0.1177 0.0795,0.0745 0.1009,0.0442 0.095,0.0565 0.0885,0.0681 0.0813,0.079 0.0731,0.1237 0.0429,0.1364 0.0133,0.1433 -0.0159,0.1441 -0.0441,0.1382 -0.0704,0.1254 -0.0947,0.1072 -0.1171,0.0833 -0.1064,0.039 -0.1085,0.0262 -0.1098,0.013 -0.1101,-5e-4 -0.103,0.0356 -0.0598,0.1023 -0.0594,0.2945 0.0155,0.1174 0.0811,0.0728 0.1018,0.0421 0.0962,0.0545 0.0898,0.0662 0.083,0.0773 0.0756,0.1222 0.0458,0.1355 0.0163,0.1429 -0.0129,0.1445 -0.0412,0.139 -0.0677,0.1269 -0.0925,0.1091 -0.1153,0.0858 -0.1055,0.0411 -0.108,0.0285 -0.1094,0.0154 -0.1102,0.0017 -0.1022,0.0378 -0.0576,0.1036 -0.0532,0.2956 0.0179,0.117 0.0826,0.0711 0.1027,0.0401 0.0972,0.0524 0.0913,0.0643 0.0845,0.0755 0.0782,0.1206 0.0486,0.1345 0.0193,0.1426 -0.0099,0.1446 -0.0383,0.1399 -0.065,0.1283 -0.0902,0.1111 -0.1134,0.0881 -0.1047,0.0433 -0.1073,0.0308 -0.1091,0.0176 -0.1102,0.0041 -0.1013,0.0399 -0.0555,0.1047 -0.047,0.2967 0.0204,0.1166 0.0841,0.0694 0.1035,0.0379 0.0983,0.0504 0.0926,0.0624 0.0861,0.0737 0.0807,0.1189 0.0514,0.1335 0.0222,0.1421 -0.0068,0.1448 -0.0353,0.1407 -0.0624,0.1296 -0.0878,0.1129 -0.1116,0.0905 -0.1037,0.0455 -0.1067,0.033 -0.1087,0.02 -0.11,0.0063 -0.1005,0.042 -0.0532,0.1059 -0.0408,0.2976 0.0228,0.1162 0.0855,0.0676 0.1042,0.0357 0.0994,0.0483 0.0939,0.0604 0.0876,0.072 0.0832,0.1171 0.0542,0.1324 0.0252,0.1416 -0.0038,0.145 -0.0324,0.1413 -0.0596,0.1309 -0.0854,0.1148 -0.1097,0.0928 -0.1028,0.0477 -0.1059,0.0352 -0.1083,0.0222 -0.1099,0.0087 -0.0996,0.044 -0.051,0.107 -0.0345,0.2984 0.0252,0.1157 0.0869,0.0658 0.105,0.0335 0.1004,0.0462 0.0951,0.0585 0.0891,0.07 0.0856,0.1155 0.057,0.1311 0.0281,0.1411 -7e-4,0.14502 -0.0295,0.142 -0.0568,0.13214 -0.083,0.11647 -0.1077,0.09511 -0.1018,0.04982 -0.1051,0.03741 -0.1078,0.02448 -0.1097,0.01099 -0.0987,0.04615 -0.0487,0.10801 -0.0283,0.29907 0.0277,0.11511 0.0882,0.06396 0.1057,0.03129 0.1013,0.04414 0.0963,0.05644 0.0906,0.06818 0.088,0.1136 0.0597,0.12996 0.0311,0.14046 0.0023,0.14498 -0.0265,0.1426 -0.0541,0.13328 -0.0805,0.1182 -0.1057,0.09733 -0.1007,0.05194 -0.1043,0.03962 -0.1073,0.02673 -0.1094,0.01327 -0.0977,0.04821 -0.0464,0.10902 -0.022,0.29958 0.03,0.11451 0.0896,0.06211 0.1063,0.02907 0.1022,0.04199 0.0974,0.05441 0.0921,0.06629 0.0903,0.11172 0.0624,0.12869 0.034,0.13976 0.0054,0.14493 -0.0235,0.14309 -0.0513,0.1344 -0.078,0.11986 -0.1036,0.09952 -0.0996,0.05404 -0.1035,0.0418 -0.1067,0.02896 -0.1091,0.01556 -0.0966,0.05025 -0.0442,0.10996 -0.0157,0.30003 0.0324,0.11381 0.0909,0.06022 0.1068,0.02682 0.1031,0.03986 0.0986,0.05236 0.0934,0.06434 0.0926,0.1098 0.0651,0.12736 0.037,0.13903 0.0083,0.14477 -0.0204,0.14356 -0.0485,0.13545 -0.0755,0.12146 -0.1015,0.10167 -0.0985,0.05612 -0.1026,0.04394 -0.106,0.03119 -0.1088,0.01786 -0.0955,0.05224 -0.0419,0.11087 -0.0094,0.30028 0.0348,0.11311 0.0921,0.05831 0.1074,0.02458 0.1039,0.03769 0.0996,0.05028 0.0947,0.06236 0.095,0.10785 0.0677,0.12596 0.0399,0.13823 0.0114,0.14456 -0.0175,0.14397 -0.0456,0.13643 -0.0729,0.12301 -0.0994,0.10378 -0.0972,0.05816 -0.1017,0.04609 -0.1054,0.0334 -0.1083,0.02012 -0.0945,0.05425 -0.0395,0.11175 -0.0032,0.300373 0.0372,0.112366 0.0933,0.056366 0.1079,0.022323 0.1047,0.035508 0.1007,0.048187 0.096,0.060364 0.0971,0.105835 0.0704,0.124511 0.0427,0.13736 L -94.4707,0 l -0.0145,0.144287 -0.0427,0.13736 -0.0704,0.124511 -0.0971,0.105835 -0.096,0.060196 -0.1007,0.048203 -0.1047,0.035599 -0.1079,0.022384 -0.0933,0.056214 -0.0372,0.112518 z m 135.2418,-1.409031 0.0779,-0.517258 0.1542,-0.499881 0.227,-0.47131 0.2947,-0.43221 0.3558,-0.38346 0.409,-0.32616 0.453,-0.26155 0.487,-0.19112 0.5099,-0.11641 L 43.5,-3.5 l 0.5216,0.03909 0.51,0.11641 0.487,0.19112 0.453,0.26155 0.409,0.32616 0.3558,0.38346 0.2947,0.43221 0.227,0.47131 0.1541,0.499881 0.078,0.517258 V 0.261551 L 46.9122,0.778809 46.7581,1.27869 46.5311,1.75 46.2364,2.18221 45.8806,2.56567 45.4716,2.89183 45.0186,3.15338 44.5316,3.3445 44.0216,3.46091 43.5,3.5 42.9783,3.46091 42.4684,3.3445 41.9814,3.15338 41.5284,2.89183 41.1194,2.56567 40.7636,2.18221 40.4689,1.75 40.2419,1.27869 40.0877,0.778809 40.0098,0.261551 Z m -87,0 0.078,-0.517258 0.1541,-0.499881 0.227,-0.47131 0.2947,-0.43221 0.3558,-0.38346 0.409,-0.32616 0.453,-0.26155 0.487,-0.19112 0.51,-0.11641 L -43.5,-3.5 l 0.5217,0.03909 0.5099,0.11641 0.487,0.19112 0.453,0.26155 0.409,0.32616 0.3558,0.38346 0.2947,0.43221 0.227,0.47131 0.1542,0.499881 0.0779,0.517258 v 0.523102 l -0.0779,0.517258 -0.1542,0.499881 -0.227,0.47131 -0.2947,0.43221 -0.3558,0.38346 -0.409,0.32616 -0.453,0.26155 -0.487,0.19112 -0.5099,0.11641 L -43.5,3.5 l -0.5216,-0.03909 -0.51,-0.11641 -0.487,-0.19112 -0.453,-0.26155 -0.409,-0.32616 -0.3558,-0.38346 -0.2947,-0.43221 -0.227,-0.47131 -0.1541,-0.499881 -0.078,-0.517258 z"
     id="path63"
     inkscape:connector-curvature="0"
     style="fill:none;stroke:#000000;stroke-width:0.5" />
</svg>
