<?xml version="1.0" encoding="UTF-8" standalone="no"?>
<svg
   xmlns:dc="http://purl.org/dc/elements/1.1/"
   xmlns:cc="http://creativecommons.org/ns#"
   xmlns:rdf="http://www.w3.org/1999/02/22-rdf-syntax-ns#"
   xmlns:svg="http://www.w3.org/2000/svg"
   xmlns="http://www.w3.org/2000/svg"
   xmlns:sodipodi="http://sodipodi.sourceforge.net/DTD/sodipodi-0.dtd"
   xmlns:inkscape="http://www.inkscape.org/namespaces/inkscape"
   width="20in"
   height="16in"
   viewBox="-240 50 507.99999 406.39999"
   version="1.1"
   id="svg6"
   sodipodi:docname="beltguard_final.svg"
   inkscape:version="0.92.5 (2060ec1f9f, 2020-04-08)">
  <metadata
     id="metadata12">
    <rdf:RDF>
      <cc:Work
         rdf:about="">
        <dc:format>image/svg+xml</dc:format>
        <dc:type
           rdf:resource="http://purl.org/dc/dcmitype/StillImage" />
        <dc:title>OpenSCAD Model</dc:title>
      </cc:Work>
    </rdf:RDF>
  </metadata>
  <defs
     id="defs10" />
  <sodipodi:namedview
     pagecolor="#ffffff"
     bordercolor="#666666"
     borderopacity="1"
     objecttolerance="10"
     gridtolerance="10"
     guidetolerance="10"
     inkscape:pageopacity="0"
     inkscape:pageshadow="2"
     inkscape:window-width="1920"
     inkscape:window-height="1009"
     id="namedview8"
     showgrid="false"
     units="in"
     inkscape:zoom="0.48688136"
     inkscape:cx="716.12236"
     inkscape:cy="732.98894"
     inkscape:window-x="1920"
     inkscape:window-y="0"
     inkscape:window-maximized="1"
     inkscape:current-layer="svg6" />
  <title
     id="title2">OpenSCAD Model</title>
  <path
     d="m 83.150106,427.46977 1.49716,-0.42044 1.4947,-0.42911 1.49166,-0.43967 1.48905,-0.44828 1.48618,-0.45787 1.48313,-0.46742 1.48042,-0.47599 1.47734,-0.48553 1.47427,-0.49505 1.47099,-0.50453 1.46764,-0.51399 1.464724,-0.52252 1.46126,-0.53194 1.45779,-0.54137 1.45459,-0.54983 1.45104,-0.55922 1.44739,-0.56861 1.44373,-0.57798 1.44033,-0.58637 1.43649,-0.5957 1.43254,-0.605 1.42896,-0.61336 1.42501,-0.62265 1.42097,-0.63191 1.41718,-0.64023 1.41296,-0.64943 1.40881,-0.65868 1.40475,-0.66691 1.40041,-0.67611 1.39644,-0.68435 1.39182,-0.69346 1.38766,-0.70167 1.38286,-0.71177 1.37877,-0.71895 1.37405,-0.72804 1.36943,-0.73716 1.36478,-0.74522 1.35997,-0.75429 1.35541,-0.76239 1.3504,-0.77139 1.34556,-0.77941 1.34082,-0.78746 1.33571,-0.79645 1.33077,-0.80443 1.32557,-0.81339 1.32043,-0.82133 1.31514,-0.83027 1.31017,-0.83721 1.30478,-0.84612 1.29929,-0.85501 1.29412,-0.86189 1.28853,-0.87076 1.28311,-0.87861 1.27759,-0.88645 1.27172,-0.89524 1.26645,-0.9021 1.26059,-0.91088 1.25477,-0.91864 1.24906,-0.92642 1.24315,-0.93415 1.23734,-0.94192 1.23143,-0.94965 1.22543,-0.95735 1.21933,-0.96504 1.21372,-0.97285 1.20713,-0.98041 1.19997,-0.98779 1.19474,-0.99571 1.18855,-1.00337 1.18261,-1.01006 1.17544,-1.01745 1.16926,-1.02512 1.16305,-1.03276 1.15588,-1.04015 1.14997,-1.04686 1.14375,-1.0545 1.13589,-1.06069 1.12944,-1.0693 1.12376,-1.07502 1.11633,-1.08338 1.10969,-1.08886 1.10227,-1.09721 1.09563,-1.10267 1.08918,-1.1113 1.08155,-1.11651 1.07441,-1.1239 1.0682,-1.13155 1.06059,-1.13677 1.05247,-1.1439 1.04653,-1.15059 1.0384,-1.15772 1.03177,-1.16319 1.02459,-1.17058 1.01699,-1.1758 1.00983,-1.18319 1.00195,-1.18936 0.99409,-1.19553 0.98719,-1.20196 0.97957,-1.20717 0.97145,-1.21431 0.96455,-1.22074 0.95597,-1.22568 0.94908,-1.2321 0.94119,-1.23829 0.93263,-1.24324 0.92546,-1.25062 0.91811,-1.25486 0.90902,-1.26175 0.90141,-1.26694 0.8938,-1.27216 0.88594,-1.27834 0.87805,-1.28449 0.86949,-1.28945 0.86092,-1.29438 0.85329,-1.2996 0.84545,-1.30576 0.83685,-1.31072 0.82828,-1.31566 0.82043,-1.32183 0.81209,-1.32582 0.80353,-1.33075 0.79565,-1.33693 0.78612,-1.34162 0.39411,-0.68041 -46.49344,-26.8183 -0.23582,0.406 -0.26461,0.45307 -0.26511,0.45114 -0.2661,0.4514 -0.26757,0.44973 -0.26854,0.44998 -0.27099,0.44858 -0.27099,0.44857 -0.27247,0.4469 -0.2737,0.44619 -0.27467,0.44646 -0.27615,0.44477 -0.27738,0.44408 -0.27859,0.44336 -0.27957,0.44363 -0.28105,0.44196 -0.28227,0.44124 -0.2835,0.44054 -0.28472,0.43983 -0.28499,0.43888 -0.28717,0.43842 -0.2884,0.43771 -0.28866,0.43675 -0.29111,0.43533 -0.29111,0.43534 -0.2933,0.43489 -0.29381,0.43296 -0.29479,0.43321 -0.29627,0.43154 -0.29749,0.43084 -0.29872,0.43013 -0.29968,0.43038 -0.30117,0.42873 -0.3024,0.428 -0.30265,0.42704 -0.30511,0.42564 -0.30509,0.42563 -0.30633,0.42493 -0.30878,0.42351 -0.30878,0.42351 -0.31026,0.42183 -0.31052,0.42088 -0.31271,0.42042 -0.31394,0.41972 -0.31419,0.41875 -0.31639,0.41831 -0.31691,0.41637 -0.31787,0.41664 -0.31936,0.41495 -0.32057,0.41426 -0.32058,0.41425 -0.32304,0.41284 -0.32354,0.41091 -0.32452,0.41116 -0.32574,0.41047 -0.32722,0.40878 -0.32845,0.40809 -0.32845,0.40808 -0.3309,0.40667 -0.33115,0.40571 -0.33265,0.40402 -0.33361,0.4043 -0.33509,0.40262 -0.33509,0.40261 -0.33658,0.40095 -0.33877,0.4005 -0.33929,0.39856 -0.33928,0.39857 -0.34173,0.39715 -0.34174,0.39715 -0.34323,0.39548 -0.34444,0.39477 -0.34593,0.39311 -0.34593,0.3931 -0.34838,0.39168 -0.34837,0.39169 -0.3489,0.38977 -0.35135,0.38833 -0.35135,0.38835 -0.35257,0.38763 -0.35407,0.38597 -0.35527,0.38526 -0.35555,0.38429 -0.35799,0.38287 -0.35702,0.38263 -0.35947,0.3812 -0.35975,0.38024 -0.36192,0.37979 -0.36122,0.37858 -0.36376,0.37718 -0.36422,0.37626 -0.36515,0.37549 -0.36619,0.37472 -0.36712,0.37394 -0.36831,0.37218 -0.36925,0.37141 -0.37019,0.37062 -0.37112,0.36984 -0.37241,0.36811 -0.37325,0.3673 -0.37419,0.36651 -0.37522,0.36576 -0.37605,0.36495 -0.37726,0.3632 -0.37818,0.36242 -0.37903,0.3616 -0.38022,0.35985 -0.38099,0.36007 -0.38199,0.35825 -0.38303,0.3575 -0.38412,0.35572 -0.38506,0.35494 -0.3859,0.35413 -0.38673,0.35333 -0.38777,0.35255 -0.38877,0.35076 -0.3898,0.35001 -0.39054,0.34916 -0.39174,0.34741 -0.39232,0.34757 -0.39367,0.34483 -0.39435,0.345 -0.39519,0.34421 -0.39629,0.34242 -0.39722,0.34163 -0.39822,0.33984 -0.39907,0.33902 -0.39999,0.33825 -0.40074,0.3374 -0.40168,0.33662 -0.40268,0.33482 -0.40361,0.33403 -0.40461,0.33223 -0.40519,0.3324 -0.40629,0.3306 -0.40729,0.32881 -0.40797,0.329 -0.40897,0.32718 -0.40971,0.32636 -0.41091,0.3246 -0.41139,0.32473 -0.41264,0.32197 -0.41323,0.32211 -0.41423,0.32032 -0.41507,0.31951 -0.41591,0.31869 -0.41655,0.31784 -0.41765,0.31605 -0.41875,0.31429 -0.41913,0.31439 -0.42024,0.3126 -0.42097,0.31178 -0.42207,0.31 -0.42246,0.3101 -0.42346,0.3083 -0.42456,0.30652 -0.4253,0.30569 -0.42595,0.30483 -0.42678,0.30401 -0.42769,0.30219 -0.42843,0.30135 -0.42918,0.30051 -0.43027,0.29874 -0.43082,0.29785 -0.43192,0.29607 -0.4323,0.29618 -0.43331,0.29437 -0.43421,0.29255 -0.43495,0.29172 -0.4357,0.29087 -0.43634,0.29001 -0.43724,0.28819 -0.43799,0.28735 -0.43873,0.28651 -0.43963,0.28469 -0.44028,0.28381 -0.44119,0.282 -0.44193,0.28115 -0.44257,0.2803 -0.44347,0.27847 -0.44387,0.27857 -0.44512,0.27581 -0.44541,0.27588 -0.44642,0.27408 -0.44732,0.27225 -0.44761,0.27233 -0.44861,0.27053 -0.44942,0.26867 -0.45006,0.26781 -0.45071,0.26695 -0.45136,0.26609 -0.45226,0.26426 -0.4528,0.26337 -0.45372,0.26155 -0.45436,0.26067 -0.45491,0.25979 -0.45581,0.25797 -0.45636,0.25708 -0.45727,0.25525 -0.45755,0.25532 -0.45873,0.25254 -0.459,0.25261 -0.45982,0.25076 -0.46047,0.24989 -0.46127,0.24805 -0.46182,0.24715 -0.46273,0.24532 -0.46291,0.24537 -0.46409,0.24259 -0.46437,0.24266 -0.46518,0.2408 -0.46589,0.23893 -0.46628,0.23904 -0.46709,0.23718 -0.46789,0.23531 -0.46835,0.23441 -0.46889,0.23352 -0.4698,0.23169 -0.47015,0.23076 -0.47081,0.22989 -0.47151,0.22802 -0.47232,0.22615 -0.47261,0.22623 -0.473334,0.22436 -0.47403,0.22247 -0.47433,0.22256 -0.47539,0.21973 -0.47558,0.21979 -0.4763,0.2179 -0.47701,0.21603 -0.4773,0.2161 -0.47826,0.21326 -0.47856,0.21333 -0.47918,0.21143 -0.47998,0.20958 -0.48017,0.20963 -0.48089,0.20774 -0.4815,0.20585 -0.48205,0.20495 -0.4825,0.20404 -0.48322,0.20216 -0.48357,0.20122 -0.48438,0.19937 -0.48473,0.19842 -0.48519,0.19751 -0.48589,0.19564 -0.48626,0.19469 -0.48696,0.19281 -0.48742,0.1919 -0.48803,0.18999 -0.48823,0.19005 -0.4892,0.1872 -0.48919,0.1872 -0.49001,0.18535 -0.49052,0.18342 -0.49098,0.18249 -0.49133,0.18156 -0.49204,0.17968 -0.4924,0.17874 -0.49275,0.1778 -0.49337,0.1759 -0.49399,0.17399 -0.49408,0.17401 -0.49495,0.17114 -0.49515,0.1712 -0.49567,0.16927 -0.49602,0.16832 -0.49664,0.16641 -0.49735,0.16455 -0.49725,0.16451 -0.49796,0.16263 -0.49849,0.1607 -0.49884,0.15976 -0.49916,0.15882 -0.49974,0.15689 -0.50006,0.15595 -0.50037,0.155 -0.50092,0.15307 -0.5015,0.15115 -0.50154,0.15117 -0.50235,0.14828 -0.50238,0.14829 -0.50294,0.14636 -0.50349,0.14445 -0.50376,0.14348 -0.50404,0.14252 -0.50432,0.14155 -0.50511,0.13868 -0.50512,0.13866 -0.50564,0.13674 -0.50588,0.13576 -0.50641,0.13384 -0.506669,0.13287 -0.507185,0.13094 -0.507414,0.12997 -0.507664,0.12899 -0.508163,0.12706 -0.508653,0.12512 -0.508614,0.12512 -0.509113,0.12317 -0.509602,0.12123 -0.509814,0.12026 -0.510024,0.11928 -0.510504,0.11733 -0.510696,0.11635 -0.511185,0.11442 -0.511376,0.11342 -0.511559,0.11244 -0.512019,0.1105 -0.512259,0.10952 -0.512642,0.10756 -0.512805,0.10656 -0.513064,0.10559 -0.513389,0.10366 -0.513648,0.10267 -0.51407,0.10067 -0.514233,0.0997 -0.514655,0.0978 -0.51472,0.0968 -0.51498,0.0958 -0.515305,0.0938 -0.515565,0.0928 -0.51589,0.0908 -0.516052,0.0898 -0.516215,0.0889 -0.516539,0.0869 -0.516703,0.0859 -0.517028,0.0839 -0.51719,0.0829 -0.517353,0.0819 -0.51768,0.0799 -0.517744,0.0789 -0.518167,0.0769 -0.518232,0.0759 -0.518654,0.074 -0.51872,0.0729 -0.518787,0.0719 -0.519207,0.07 -0.519178,0.0689 -0.51934,0.0679 -0.519666,0.0659 -0.519635,0.0649 -0.520057,0.0629 -0.520123,0.0619 -0.520448,0.0599 -0.520515,0.0589 -0.520482,0.0579 -0.520906,0.0559 -0.520874,0.0549 -0.520941,0.0538 -0.521265,0.0519 -0.521496,0.0498 -0.521302,0.0498 -0.521626,0.0478 -0.521855,0.0458 -0.521922,0.0448 -0.521891,0.0437 -0.522216,0.0418 -0.522185,0.0407 -0.522252,0.0398 -0.52248,0.0377 -0.52245,0.0367 -0.522679,0.0346 -0.522744,0.0336 -0.522714,0.0326 -0.522943,0.0306 -0.522912,0.0295 -0.523237,0.0276 -0.523111,0.0265 -0.52308,0.0254 -0.523405,0.0235 -0.523278,0.0225 -0.523246,0.0214 -0.523476,0.0193 -0.523445,0.0183 -0.523578,0.0163 -0.523643,0.0153 -0.52352,0.0137 -0.523749,0.0118 -0.523621,0.0107 -0.52385,0.009 -0.523818,0.008 -0.523691,0.007 -0.523564,0.006 -0.52379,0.004 -0.524021,0.002 -0.523535,0.002 -0.524122,-0.001 -0.523637,-10e-4 -0.523865,-0.003 -0.523738,-0.004 -0.523871,-0.006 -0.523485,-0.007 -0.523974,-0.01 -0.52349,-0.01 -0.523719,-0.0116 -0.523754,-0.0138 -0.523464,-0.0138 -0.5235,-0.0159 -0.523728,-0.0178 -0.5235051,-0.019 -0.523378,-0.02 -0.52325,-0.0211 -0.523286,-0.0232 -0.523255,-0.0241 -0.523291,-0.0263 -0.523067,-0.0274 -0.523037,-0.0284 -0.522813,-0.0295 -0.522848,-0.0315 -0.522722,-0.0327 -0.522756,-0.0346 -0.52263,-0.0358 -0.522406,-0.0369 -0.522442,-0.039 -0.522315,-0.04 -0.52209,-0.0411 -0.52222199,-0.0431 -0.521903,-0.0443 -0.521775,-0.0453 -0.521551,-0.0464 -0.52158801,-0.0485 -0.521622,-0.0506 -0.521141,-0.0507 -0.521174,-0.0527 -0.520952,-0.0538 -0.520987,-0.0559 -0.520763,-0.057 -0.520443,-0.0581 -0.520317,-0.0592 -0.520255,-0.0613 -0.520031,-0.0624 -0.520067,-0.0644 -0.5194869,-0.0646 -0.519782,-0.0676 -0.519299,-0.0677 -0.519238,-0.0698 -0.519014,-0.0709 -0.518693,-0.072 -0.51847,-0.0731 -0.518409,-0.0752 -0.518089,-0.0763 -0.518124,-0.0784 -0.517805,-0.0795 -0.51758,-0.0806 -0.517163,-0.0817 -0.517199,-0.0838 -0.516975,-0.0849 -0.516558,-0.086 -0.516497,-0.0881 -0.516015,-0.0883 -0.516115,-0.0913 -0.515634,-0.0915 -0.515476,-0.0936 -0.515252,-0.0947 -0.514834,-0.0958 -0.514514,-0.0969 -0.514453,-0.099 -0.514134,-0.10017 -0.513716,-0.1013 -0.513751,-0.10337 -0.513335,-0.10452 -0.512919,-0.10566 -0.512694,-0.10675 -0.512536,-0.10887 -0.51212,-0.11001 -0.511799,-0.11114 -0.511479,-0.11226 -0.511321,-0.11438 -0.510905,-0.11551 -0.510584,-0.11664 -0.510427,-0.11876 -0.50975,-0.11894 -0.50969,-0.12102 -0.509273,-0.12217 -0.509114,-0.12428 -0.508535,-0.12444 -0.508281,-0.12657 -0.507962,-0.12771 -0.507803,-0.12981 -0.50703,-0.13002 -0.506969,-0.13211 -0.506553,-0.13325 -0.506395,-0.13536 -0.505719,-0.13556 -0.505465,-0.13769 -0.505144,-0.13881 -0.50463,-0.13997 -0.504214,-0.14113 -0.504056,-0.14325 -0.503254,-0.14449 -0.503898,-0.14535 -0.502227,-0.14685 -0.502744,-0.14877 -0.501778,-0.14903 -0.501332,-0.15121 -0.501591,-0.1522 -0.499918,-0.15367 -0.500436,-0.1556 -0.500696,-0.15657 -0.498764,-0.15709 -0.499541,-0.15998 -0.498576,-0.16024 -0.49787,-0.16147 -0.49743,-0.16366 -0.49767,-0.16463 -0.49698,-0.16585 -0.49626,-0.16708 -0.49556,-0.16829 -0.49609,-0.17024 -0.49511,-0.17049 -0.49466,-0.17269 -0.49396,-0.1739 -0.49326,-0.17513 -0.49377,-0.17706 -0.49184,-0.17759 -0.49236,-0.17951 -0.49165,-0.18074 -0.49191,-0.18171 -0.49024,-0.18319 -0.4905,-0.18415 -0.48908,-0.18661 -0.48909,-0.1866 -0.4896,-0.18854 -0.48792,-0.19002 -0.48723,-0.19124 -0.48748,-0.19222 -0.48678,-0.19344 -0.48633,-0.19562 -0.48537,-0.19589 -0.48491,-0.19808 -0.48421,-0.1993 -0.48447,-0.20027 -0.48279,-0.20176 -0.48305,-0.20271 -0.48235,-0.20394 -0.4819,-0.20614 -0.48094,-0.20639 -0.48146,-0.20832 -0.47977,-0.20982 -0.48005,-0.21077 -0.4781,-0.2113 -0.47889,-0.21419 -0.47792,-0.21445 -0.47721,-0.21567 -0.47651,-0.21691 -0.47606,-0.21908 -0.4751,-0.21936 -0.47464,-0.22154 -0.47491,-0.22251 -0.47297,-0.22302 -0.4735,-0.22496 -0.47278,-0.22618 -0.47112,-0.22767 -0.47137,-0.22863 -0.47067,-0.22985 -0.46995,-0.23109 -0.46951,-0.23327 -0.46855,-0.23354 -0.46784,-0.23475 -0.46739,-0.23695 -0.46739,-0.23695 -0.46598,-0.2394 -0.46502,-0.23965 -0.46553,-0.2416 -0.46386,-0.24307 -0.46412,-0.24403 -0.46218,-0.24457 -0.46271,-0.24649 -0.46103,-0.24797 -0.46129,-0.24894 -0.46058,-0.25016 -0.45892,-0.25165 -0.45891,-0.25165 -0.45846,-0.25384 -0.45777,-0.25507 -0.45609,-0.25655 -0.45634,-0.25751 -0.45564,-0.25874 -0.45396,-0.26022 -0.45423,-0.2612 -0.45352,-0.26241 -0.45281,-0.26364 -0.45211,-0.26486 -0.45043,-0.26635 -0.45069,-0.26732 -0.44999,-0.26853 -0.44832,-0.27003 -0.44856,-0.27099 -0.44787,-0.27221 -0.4462,-0.2737 -0.44645,-0.27467 -0.44477,-0.27614 -0.44505,-0.27713 -0.44407,-0.27737 -0.44266,-0.27982 -0.44195,-0.28105 -0.44196,-0.28105 -0.44054,-0.2835 -0.43958,-0.28376 -0.44009,-0.28569 -0.43816,-0.28621 -0.43771,-0.2884 -0.43675,-0.28866 -0.43604,-0.28988 -0.4356,-0.29208 -0.43463,-0.29233 -0.43391,-0.29356 -0.43226,-0.29504 -0.4325,-0.29601 -0.43155,-0.29627 -0.43013,-0.29871 -0.42942,-0.29995 -0.42942,-0.29994 -0.42801,-0.3024 -0.42705,-0.30265 -0.42634,-0.30388 -0.42588,-0.30606 -0.42493,-0.30633 -0.424225,-0.30755 -0.42351,-0.30878 -0.42158,-0.30929 -0.4221,-0.31124 -0.42016,-0.31174 -0.41972,-0.31394 -0.41875,-0.31419 -0.41804,-0.31543 -0.417344,-0.31664 -0.41664,-0.31787 -0.41592,-0.3191 -0.414,-0.31961 -0.41452,-0.32154 -0.41258,-0.32207 -0.41187,-0.3233 -0.41117,-0.32451 -0.41046,-0.32574 -0.40975,-0.32696 -0.40783,-0.32749 -0.40834,-0.32941 -0.40641,-0.32993 -0.4057,-0.33116 -0.405,-0.33239 -0.40403,-0.33263 -0.40358,-0.33485 -0.40166,-0.33534 -0.40191,-0.33632 -0.40023,-0.3378 -0.39954,-0.33903 -0.39856,-0.33928 -0.39812,-0.34148 -0.39619,-0.342 -0.39645,-0.34295 -0.39451,-0.34349 -0.39407,-0.34566 -0.39309,-0.34594 -0.39143,-0.34741 -0.39169,-0.34838 -0.39003,-0.34986 -0.38904,-0.35013 -0.38835,-0.35134 -0.38763,-0.35258 -0.38693,-0.3538 -0.385,-0.35431 -0.3843,-0.35555 -0.38358,-0.35676 -0.38288,-0.35799 -0.3812,-0.35948 -0.3812,-0.35948 -0.37955,-0.36096 -0.37856,-0.36122 -0.37806,-0.36321 -0.37624,-0.36413 -0.3764,-0.3647 -0.37468,-0.36599 -0.37389,-0.36692 -0.37215,-0.36823 -0.37233,-0.36879 -0.37056,-0.36999 -0.36981,-0.37103 -0.36903,-0.37196 -0.36725,-0.37306 -0.36649,-0.37409 -0.36568,-0.37492 -0.36493,-0.37597 -0.36411,-0.3768 -0.36236,-0.37798 -0.36157,-0.37894 -0.36079,-0.37986 -0.36,-0.3807 -0.35823,-0.3819 -0.35744,-0.38283 -0.35664,-0.38367 -0.35585,-0.3846 -0.35411,-0.3858 -0.35329,-0.38664 -0.35251,-0.38758 -0.3517,-0.38841 -0.34992,-0.38952 -0.34914,-0.39045 -0.34832,-0.39128 -0.34658,-0.39248 -0.34673,-0.39306 -0.34496,-0.39416 -0.34319,-0.39525 -0.34335,-0.39594 -0.34159,-0.39702 -0.34078,-0.39786 -0.33897,-0.39887 -0.33915,-0.39955 -0.33739,-0.40064 -0.33656,-0.40149 -0.33479,-0.40257 -0.33399,-0.40343 -0.33317,-0.40425 -0.33236,-0.4051 -0.33056,-0.4061 -0.32975,-0.40693 -0.32894,-0.40777 -0.32813,-0.40862 -0.32632,-0.40961 -0.32552,-0.41045 -0.32371,-0.41146 -0.3229,-0.41229 -0.3221,-0.41313 -0.32126,-0.41388 -0.31948,-0.41497 -0.31865,-0.41571 -0.3178,-0.41647 -0.317,-0.41728 -0.3152,-0.4183 -0.31339,-0.4193 -0.31355,-0.41987 -0.31173,-0.42079 -0.31091,-0.42162 -0.30911,-0.42262 -0.30926,-0.4232 -0.30743,-0.4241 -0.30565,-0.42512 -0.30482,-0.42594 -0.30396,-0.4266 -0.30313,-0.42732 -0.30132,-0.42834 -0.30049,-0.42907 -0.29965,-0.42982 -0.29783,-0.43073 -0.29701,-0.43157 -0.29519,-0.43245 -0.29529,-0.43286 -0.29351,-0.43396 -0.29166,-0.43476 -0.29085,-0.43559 -0.28999,-0.43625 -0.28912,-0.43688 -0.28732,-0.43789 -0.28649,-0.43864 -0.2856,-0.43918 -0.2838,-0.44019 -0.28295,-0.44092 -0.28114,-0.44183 -0.28024,-0.44238 -0.27941,-0.44312 -0.2776,-0.44413 -0.27672,-0.44466 -0.27588,-0.44542 -0.275,-0.44596 -0.27319,-0.44697 -0.27134,-0.44776 -0.2705,-0.44851 -0.26962,-0.44908 -0.26877,-0.44979 -0.26693,-0.45062 -0.26605,-0.45126 -0.26422,-0.45206 -0.26431,-0.45246 -0.0387,-0.067 -46.47227,26.85543 0.39492,0.6806 0.78745,1.34082 0.79644,1.3357 0.80443,1.33077 0.8134,1.32557 0.82133,1.32044 0.83026,1.31514 0.83722,1.31016 0.84612,1.30479 0.855,1.29928 0.8619,1.29412 0.87076,1.28853 0.87861,1.28312 0.88646,1.2776 0.89523,1.27171 0.9021,1.26646 0.91088,1.26058 0.91863,1.25476 0.92643,1.24906 0.93415,1.24315 0.94192,1.23734 0.94965,1.23144 0.95735,1.22543 0.96504,1.21933 0.97285,1.21372 0.9804,1.20713 0.9878,1.19997 0.99571,1.19474 1.00337,1.18854 1.01006,1.18261 1.01745,1.17545 1.02511,1.16925 1.03277,1.16305 1.04015,1.1559 1.04686,1.14995 1.0545,1.14375 1.06069,1.1359 1.0693,1.12943 1.07502,1.12376 1.08338,1.11633 1.08885,1.1097 1.09722,1.10227 1.10267,1.09562 1.11131,1.08918 1.1165,1.08156 1.1239,1.0744 1.13155,1.06821 1.13677,1.06059 1.1439,1.05247 1.15059,1.04653 1.15772,1.0384 1.16319,1.03176 1.17058,1.0246 1.1758,1.01699 1.18319,1.00982 1.18936,1.00196 1.19553,0.99409 1.20196,0.98718 1.20717,0.97959 1.2143,0.97144 1.22074,0.96455 1.22569,0.95597 1.2321,0.94907 1.23829,0.94119 1.24323,0.93263 1.25063,0.92546 1.25487,0.91812 1.26174,0.90901 1.26694,0.90142 1.27216,0.8938 1.27833,0.88593 1.2845,0.87806 1.28945,0.86948 1.29438,0.86092 1.29959,0.85331 1.30577,0.84543 1.31072,0.83686 1.31566,0.82828 1.32183,0.82042 1.32582,0.8121 1.33076,0.80353 1.33692,0.79565 1.34162,0.78612 1.34586,0.77876 1.3508,0.77019 1.35672,0.76136 1.36069,0.75304 1.36442,0.74375 1.370584,0.73589 1.37457,0.72757 1.379265,0.71804 1.38324,0.70971 1.38818,0.70115 1.39313,0.69256 1.39588,0.68355 1.4018,0.6747 1.40481,0.66665 1.4095,0.65712 1.41322,0.64782 1.41816,0.63926 1.42092,0.63023 1.42588,0.62165 1.42958,0.61238 1.43261,0.60432 1.43703,0.59381 1.44101,0.58549 1.44377,0.57647 1.44871,0.5679 1.45122,0.55791 1.45493,0.54863 1.45794,0.54056 1.46142,0.53033 1.46539,0.52201 1.46788,0.51201 1.47186,0.5037 1.47436,0.49372 1.47809,0.48443 1.48084,0.47541 1.48333,0.46542 1.48636,0.45737 1.48981,0.44711 1.4916,0.43835 1.49506,0.4281 1.49782,0.41909 1.49961,0.41032 1.50307,0.40007 1.50461,0.39035 1.508577,0.38202 1.508885,0.37159 1.512608,0.36231 1.514399,0.35354 1.516635,0.3426 1.519391,0.33356 1.520215,0.32506 1.523677,0.31483 1.524242,0.30534 1.526737,0.29536 1.529235,0.28537 1.530057,0.27687 1.531589,0.26713 1.534085,0.25715 1.535355,0.24645 1.536729,0.23884 1.53829,0.22806 1.539628,0.2184 1.540964,0.20871 1.542204,0.19904 1.543543,0.18939 1.54459,0.17979 1.54583,0.17012 1.546879,0.16053 1.5475689,0.14999 1.548877,0.14136 1.549472,0.13084 1.550326,0.1213 1.55108401,0.11177 1.55184199,0.10225 1.552244,0.0918 1.552905,0.0823 1.553372,0.0728 1.553679,0.0624 1.554405,0.0539 1.5543551,0.0426 1.554794,0.0342 1.554905,0.0238 1.55492,0.0134 1.555263,0.005 1.554923,-0.006 1.555166,-0.0146 1.554892,-0.0249 1.554617,-0.0352 1.554507,-0.0444 1.554039,-0.0547 1.553734,-0.0639 1.553268,-0.0741 1.552963,-0.0834 1.552207,-0.0935 1.551803,-0.10279 1.550951,-0.11288 1.550195,-0.12302 1.549503,-0.13215 1.548455,-0.14222 1.547863,-0.15139 1.546363,-0.16238 1.545834,-0.17052 1.544433,-0.18151 1.543355,-0.19056 1.542115,-0.20058 1.540941,-0.20959 1.539508,-0.21954 1.538075,-0.22952 1.536449,-0.23944 1.535179,-0.24841 1.533455,-0.25831 1.53183,-0.26823 1.530172,-0.27709 1.528191,-0.28795 1.526437,-0.2968 1.524778,-0.30568 1.52251,-0.31646 1.52076,-0.3253 1.51855,-0.33507 1.51634,-0.34483 1.51437,-0.35361 1.51179,-0.36431 1.50967,-0.37307 1.50723,-0.38276 1.50504,-0.39149 1.50216,-0.40211 z m -221.855736,-80.04074 -0.53221,-1.6e-4 -0.51822,-0.11771 -0.47917,-0.23067 -0.41614,-0.33147 -0.33221,-0.41611 -0.23092,-0.47851 -0.11858,-0.51899 1.8e-4,-0.53123 0.11744,-0.51919 0.23068,-0.47918 0.33147,-0.41613 0.41637,-0.33124 0.4785,-0.23093 0.519,-0.11858 0.53097,-8.2e-4 0.51945,0.1184 0.47917,0.23068 0.41517,0.33173 0.33195,0.41514 0.23118,0.47946 0.11832,0.51804 -1.7e-4,0.5322 -0.1177,0.51822 -0.23068,0.47918 -0.33146,0.41613 -0.41515,0.33196 -0.47946,0.23118 z m 98.588291,57.08558 -0.526532,-0.0792 -0.495281,-0.19426 -0.439599,-0.29928 -0.36135,-0.38966 -0.266514,-0.46066 -0.156954,-0.50767 -0.03995,-0.53078 0.07949,-0.52557 0.194261,-0.49528 0.299283,-0.4396 0.389654,-0.36135 0.460662,-0.26652 0.507668,-0.15695 0.530787,-0.0399 0.525566,0.0794 0.495021,0.19329 0.4396,0.2993 0.362574,0.39035 0.26529,0.45996 0.157213,0.50863 0.03969,0.52983 -0.07827,0.52627 -0.194261,0.49527 -0.299282,0.43961 -0.39062,0.36161 -0.459697,0.26625 -0.508634,0.15722 z m 213.474999,-57.20981 -0.53124,-1.8e-4 -0.51918,-0.11743 -0.47917,-0.23068 -0.41614,-0.33147 -0.33125,-0.41637 -0.23092,-0.4785 -0.11858,-0.519 -8.2e-4,-0.53098 0.1184,-0.51944 0.23068,-0.47917 0.33173,-0.41518 0.41514,-0.33195 0.47947,-0.23118 0.51803,-0.11832 0.53221,1.7e-4 0.51821,0.1177 0.47918,0.23068 0.41613,0.33145 0.33196,0.41516 0.23118,0.47946 0.11832,0.51803 -1.6e-4,0.53221 -0.1177,0.51822 -0.23068,0.47916 -0.33147,0.41615 -0.41611,0.33221 -0.47849,0.23092 z m -95.784164,69.40469 -0.51198,0.10944 -0.51568,0.0908 -0.51824,0.0738 -0.52071,0.0548 -0.52231,0.0367 -0.52329,0.0183 -0.5237,-2.5e-4 -0.52325,-0.018 -0.52218,-0.0359 -0.52083,-0.0549 -0.51835,-0.0721 -0.51585,-0.0914 -0.512,-0.10798 -0.50811,-0.12662 -0.50343,-0.14445 -0.49797,-0.16144 -0.49199,-0.17858 -0.4855,-0.19585 -0.47852,-0.21325 -0.4706,-0.22884 -0.46235,-0.24555 -0.45371,-0.26236 -0.44417,-0.27735 -0.434146,-0.29246 -0.423734,-0.30769 -0.412678,-0.32204 -0.401235,-0.3365 -0.389147,-0.35009 -0.376865,-0.36375 -0.363582,-0.3756 -0.350624,-0.38942 -0.336599,-0.40044 -0.322447,-0.41252 -0.308035,-0.42363 -0.292882,-0.43391 -0.277729,-0.4442 -0.262026,-0.45359 -0.245968,-0.46203 -0.229716,-0.47054 -0.21311,-0.4781 -0.196405,-0.48569 -0.179183,-0.49135 -0.162028,-0.49803 -0.144611,-0.50372 -0.126775,-0.50748 -0.1091,-0.51223 -0.09091,-0.51504 -0.07317,-0.51877 -0.05491,-0.52056 -0.03674,-0.52233 -0.01842,-0.5231 -2.85e-4,-0.52383 0.01801,-0.52356 0.03627,-0.52225 0.05453,-0.52094 0.07258,-0.51853 0.09087,-0.51516 0.108527,-0.51266 0.126411,-0.50813 0.144359,-0.5026 0.161566,-0.49789 0.178838,-0.49218 0.195983,-0.48539 0.212743,-0.4785 0.229374,-0.47053 0.245621,-0.46247 0.261382,-0.45428 0.277278,-0.44404 0.292786,-0.43372 0.307447,-0.42419 0.3222,-0.41262 0.33647,-0.40091 0.35022,-0.38908 0.363457,-0.3771 0.376441,-0.36401 0.389135,-0.34982 0.400759,-0.33741 0.4126,-0.32195 0.423364,-0.30828 0.434056,-0.29251 0.443929,-0.27755 0.4532,-0.26245 0.46212,-0.24619 0.47047,-0.2298 0.4782,-0.21324 0.48558,-0.19555 0.49183,-0.17962 0.49799,-0.16161 0.503,-0.14534 0.50818,-0.12603 0.51199,-0.10945 0.51567,-0.0908 0.51824,-0.0738 0.52071,-0.0548 0.52231,-0.0366 0.52329,-0.0183 0.52371,2.5e-4 0.52324,0.0179 0.52219,0.0359 0.52082,0.0549 0.51836,0.0721 0.51584,0.0914 0.512,0.10798 0.50811,0.12662 0.50343,0.14445 0.49797,0.16144 0.49199,0.17859 0.4855,0.19585 0.47852,0.21324 0.4706,0.22885 0.46235,0.24554 0.45371,0.26236 0.44417,0.27735 0.43415,0.29247 0.42373,0.30768 0.41268,0.32204 0.40123,0.3365 0.38915,0.3501 0.37661,0.36278 0.36384,0.37656 0.35062,0.38942 0.3366,0.40044 0.32245,0.41252 0.30803,0.42363 0.29289,0.43392 0.27772,0.44419 0.26203,0.45359 0.24597,0.46204 0.22971,0.47053 0.21311,0.47811 0.19641,0.48568 0.17918,0.49136 0.16203,0.49802 0.14435,0.50277 0.12704,0.50844 0.1091,0.51223 0.0909,0.51504 0.0732,0.51877 0.0549,0.52055 0.0367,0.52233 0.0184,0.5231 2.5e-4,0.52383 -0.018,0.52357 -0.0363,0.52225 -0.0545,0.52093 -0.0726,0.51853 -0.0909,0.51517 -0.10853,0.51265 -0.12666,0.50717 -0.14411,0.50356 -0.16156,0.49789 -0.17884,0.49218 -0.19598,0.48539 -0.21275,0.4785 -0.22937,0.47054 -0.24562,0.46247 -0.26138,0.45427 -0.27728,0.44406 -0.29279,0.43371 -0.30744,0.42419 -0.3222,0.41261 -0.33647,0.40092 -0.35022,0.38908 -0.36346,0.37709 -0.37644,0.36401 -0.38914,0.34983 -0.40076,0.33741 -0.4126,0.32195 -0.42336,0.30828 -0.43406,0.2925 -0.44392,0.27755 -0.45321,0.26245 -0.46212,0.24619 -0.47046,0.2298 -0.4782,0.21324 -0.48558,0.19555 -0.49183,0.17962 -0.49799,0.16161 -0.50326,0.14438 z"
     id="path4"
     inkscape:connector-curvature="0"
     style="fill:#d3d3d3;stroke:#000000;stroke-width:0.5" />
  <path
     d="m 79.71519,328.99321 1.497144,-0.42044 1.494711,-0.42911 1.491668,-0.43967 1.489048,-0.44828 1.486165,-0.45787 1.483148,-0.46742 1.480423,-0.47599 1.477328,-0.48553 1.474258,-0.49505 1.471004,-0.50453 1.467642,-0.51399 1.46471,-0.52252 1.46127,-0.53194 1.457801,-0.54137 1.4546,-0.54983 1.45103,-0.55922 1.4474,-0.56861 1.44372,-0.57798 1.44032,-0.58637 1.4365,-0.5957 1.43253,-0.605 1.42896,-0.61336 1.42502,-0.62265 1.42097,-0.63191 1.41717,-0.64023 1.41298,-0.64943 1.4088,-0.65868 1.40475,-0.66691 1.40041,-0.67611 1.39645,-0.68435 1.39181,-0.69346 1.38766,-0.70167 1.38285,-0.71177 1.37877,-0.71895 1.37406,-0.72804 1.36943,-0.73716 1.36477,-0.74522 1.35998,-0.75429 1.35541,-0.76239 1.35038,-0.77139 1.34557,-0.77941 1.34082,-0.78746 1.3357,-0.79645 1.33078,-0.80443 1.32558,-0.81339 1.32043,-0.82133 1.31514,-0.83027 1.31017,-0.83721 1.30476,-0.84612 1.29929,-0.85501 1.29413,-0.86189 1.28852,-0.87076 1.28313,-0.87861 1.27759,-0.88645 1.27172,-0.89524 1.26645,-0.9021 1.26058,-0.91088 1.25476,-0.91864 1.24908,-0.92642 1.24314,-0.93415 1.23735,-0.94192 1.23142,-0.94965 1.22542,-0.95735 1.21933,-0.96504 1.21373,-0.97285 1.20713,-0.98041 1.19997,-0.98779 1.19475,-0.99571 1.18853,-1.00337 1.18261,-1.01006 1.17544,-1.01745 1.16927,-1.02512 1.16306,-1.03276 1.15588,-1.04015 1.14996,-1.04686 1.14374,-1.0545 1.13591,-1.06069 1.12943,-1.0693 1.12376,-1.07502 1.11633,-1.08338 1.10969,-1.08886 1.10228,-1.09721 1.09562,-1.10267 1.08918,-1.1113 1.08156,-1.11651 1.0744,-1.1239 1.0682,-1.13155 1.06058,-1.13677 1.05249,-1.1439 1.04653,-1.15059 1.03838,-1.15772 1.03177,-1.16319 1.0246,-1.17058 1.01698,-1.1758 1.00984,-1.18319 1.00195,-1.18936 0.99409,-1.19553 0.98719,-1.20196 0.97956,-1.20717 0.97147,-1.21431 0.96454,-1.22074 0.95597,-1.22568 0.94909,-1.2321 0.94117,-1.23829 0.93263,-1.24324 0.92546,-1.25062 0.91813,-1.25486 0.909,-1.26175 0.90141,-1.26694 0.89382,-1.27216 0.88593,-1.27834 0.87805,-1.28449 0.8695,-1.28945 0.86092,-1.29438 0.85328,-1.2996 0.84545,-1.30576 0.83685,-1.31072 0.82828,-1.31566 0.82042,-1.32183 0.81211,-1.32582 0.80352,-1.33075 0.79565,-1.33693 0.78613,-1.34162 0.3941,-0.68041 -46.49343,-26.8183 -0.23582,0.406 -0.26461,0.45307 -0.26511,0.45114 -0.2661,0.4514 -0.26757,0.44973 -0.26855,0.44998 -0.27099,0.44858 -0.27098,0.44857 -0.27247,0.4469 -0.27371,0.44619 -0.27467,0.44646 -0.27614,0.44477 -0.27739,0.44408 -0.27858,0.44336 -0.27959,0.44363 -0.28104,0.44196 -0.28225,0.44124 -0.28351,0.44054 -0.28471,0.43983 -0.28501,0.43888 -0.28716,0.43842 -0.28842,0.43771 -0.28866,0.43675 -0.29109,0.43533 -0.29112,0.43534 -0.29329,0.43489 -0.29382,0.43296 -0.29478,0.43321 -0.29628,0.43154 -0.29749,0.43084 -0.29872,0.43013 -0.29967,0.43038 -0.30117,0.42873 -0.30242,0.428 -0.30263,0.42704 -0.30512,0.42564 -0.30509,0.42563 -0.30633,0.42493 -0.30877,0.42351 -0.3088,0.42351 -0.31025,0.42183 -0.31051,0.42088 -0.31271,0.42042 -0.31396,0.41972 -0.31416,0.41875 -0.31642,0.41831 -0.31689,0.41637 -0.31787,0.41664 -0.31935,0.41495 -0.3206,0.41426 -0.32057,0.41425 -0.32303,0.41284 -0.32356,0.41091 -0.32451,0.41116 -0.32573,0.41047 -0.32723,0.40878 -0.32846,0.40809 -0.32842,0.40808 -0.33092,0.40667 -0.33115,0.40571 -0.33264,0.40402 -0.33361,0.4043 -0.33509,0.40262 -0.3351,0.40261 -0.33657,0.40095 -0.33878,0.4005 -0.3393,0.39856 -0.33927,0.39857 -0.34171,0.39715 -0.34177,0.39715 -0.34321,0.39548 -0.34444,0.39477 -0.34594,0.39311 -0.34592,0.3931 -0.34837,0.39168 -0.34838,0.39169 -0.34891,0.38977 -0.35134,0.38833 -0.35136,0.38835 -0.35256,0.38763 -0.35407,0.38597 -0.35528,0.38526 -0.35555,0.38429 -0.35798,0.38287 -0.35703,0.38263 -0.35946,0.3812 -0.35975,0.38024 -0.36193,0.37979 -0.36121,0.37858 -0.36377,0.37718 -0.36423,0.37626 -0.36515,0.37549 -0.36618,0.37472 -0.36711,0.37394 -0.36833,0.37218 -0.36925,0.37141 -0.37018,0.37062 -0.37113,0.36984 -0.3724,0.36811 -0.37325,0.3673 -0.3742,0.36651 -0.3752,0.36576 -0.37606,0.36495 -0.37727,0.3632 -0.37816,0.36242 -0.37905,0.3616 -0.3802,0.35985 -0.381,0.36007 -0.38198,0.35825 -0.38304,0.3575 -0.38412,0.35572 -0.38505,0.35494 -0.38589,0.35413 -0.38675,0.35333 -0.38777,0.35255 -0.38878,0.35076 -0.38978,0.35001 -0.39055,0.34916 -0.39174,0.34741 -0.39233,0.34757 -0.39365,0.34483 -0.39436,0.345 -0.39518,0.34421 -0.39629,0.34242 -0.39722,0.34163 -0.39823,0.33984 -0.39906,0.33902 -0.4,0.33825 -0.40074,0.3374 -0.40166,0.33662 -0.4027,0.33483 -0.4036,0.33402 -0.40462,0.33223 -0.40519,0.3324 -0.40629,0.3306 -0.40727,0.32881 -0.40799,0.329 -0.40897,0.32718 -0.4097,0.32636 -0.4109,0.3246 -0.4114,0.32473 -0.41265,0.32197 -0.41322,0.32211 -0.41423,0.32032 -0.41508,0.31951 -0.4159,0.3187 -0.41656,0.31783 -0.41765,0.31605 -0.41875,0.31429 -0.41913,0.31439 -0.42024,0.3126 -0.42097,0.31178 -0.42207,0.31 -0.42246,0.3101 -0.42346,0.3083 -0.42455,0.30652 -0.4253,0.30569 -0.42595,0.30483 -0.4268,0.30401 -0.42767,0.30219 -0.42844,0.30135 -0.42918,0.30051 -0.43027,0.29874 -0.43082,0.29785 -0.4319,0.29607 -0.43231,0.29618 -0.4333,0.29437 -0.43424,0.29255 -0.43495,0.29172 -0.43569,0.29087 -0.43635,0.29001 -0.43722,0.28819 -0.43799,0.28735 -0.43873,0.28651 -0.43964,0.28469 -0.44026,0.28381 -0.44119,0.282 -0.44194,0.28115 -0.44257,0.2803 -0.44346,0.27847 -0.4439,0.27857 -0.4451,0.27581 -0.4454,0.27588 -0.44644,0.27408 -0.44733,0.27225 -0.44759,0.27233 -0.4486,0.27053 -0.44942,0.26867 -0.45009,0.26781 -0.45069,0.26695 -0.45135,0.26609 -0.45228,0.26426 -0.45278,0.26337 -0.45374,0.26155 -0.45436,0.26067 -0.4549,0.25979 -0.45583,0.25797 -0.45635,0.25708 -0.45725,0.25525 -0.45757,0.25532 -0.45871,0.25254 -0.45903,0.25261 -0.45982,0.25076 -0.46045,0.24989 -0.46128,0.24805 -0.46183,0.24715 -0.46273,0.24532 -0.46288,0.24537 -0.46411,0.24259 -0.46437,0.24266 -0.46516,0.2408 -0.46591,0.23893 -0.46627,0.23904 -0.4671,0.23718 -0.46789,0.23531 -0.46834,0.23441 -0.468891,0.23352 -0.46982,0.23169 -0.47014,0.23076 -0.4708,0.22989 -0.47151,0.22802 -0.47234,0.22615 -0.4726,0.22623 -0.47334,0.22436 -0.47402,0.22247 -0.474323,0.22256 -0.475403,0.21973 -0.475589,0.21979 -0.476276,0.2179 -0.477018,0.21603 -0.477308,0.2161 -0.478261,0.21326 -0.478552,0.21333 -0.479187,0.21143 -0.47998,0.20958 -0.480166,0.20963 -0.48088,0.20774 -0.481515,0.20585 -0.482045,0.20495 -0.482494,0.20404 -0.483235,0.20216 -0.483552,0.20122 -0.4844,0.19937 -0.484716,0.19842 -0.485193,0.19751 -0.485881,0.19564 -0.486278,0.19469 -0.486939,0.19281 -0.487442,0.1919 -0.488024,0.18999 -0.488235,0.19005 -0.489188,0.1872 -0.489188,0.1872 -0.490009,0.18535 -0.490537,0.18342 -0.490961,0.18249 -0.491331,0.18156 -0.492046,0.17968 -0.492389,0.17874 -0.49276,0.1778 -0.493369,0.1759 -0.494004,0.17399 -0.494056,0.17401 -0.494956,0.17114 -0.495168,0.1712 -0.49567,0.16927 -0.496014,0.16832 -0.496623,0.16641 -0.497364,0.16455 -0.497258,0.16451 -0.497946,0.16263 -0.498501,0.1607 -0.498846,0.15976 -0.499136,0.15882 -0.499745,0.15689 -0.500063,0.15595 -0.50038,0.155 -0.500909,0.15307 -0.501491,0.15115 -0.501544,0.15117 -0.502365,0.14828 -0.502364,0.14829 -0.502946,0.14636 -0.503502,0.14445 -0.503741,0.14348 -0.504057,0.14252 -0.504323,0.14155 -0.505089,0.13868 -0.505143,0.13866 -0.505618,0.13674 -0.505892,0.13576 -0.506409,0.13384 -0.50667,0.13287 -0.507185,0.13094 -0.507412,0.12997 -0.507664,0.12899 -0.508164,0.12706 -0.508651,0.12512 -0.508617,0.12512 -0.509111,0.12317 -0.509603,0.12123 -0.509813,0.12026 -0.510024,0.11928 -0.510505,0.11733 -0.510696,0.11635 -0.511183,0.11442 -0.511376,0.11342 -0.511562,0.11244 -0.512019,0.1105 -0.512257,0.10952 -0.512643,0.10756 -0.512805,0.10656 -0.513064,0.10559 -0.513387,0.10366 -0.513649,0.10267 -0.514069,0.10067 -0.514234,0.0997 -0.514654,0.0978 -0.514721,0.0968 -0.514979,0.0958 -0.515306,0.0938 -0.515567,0.0928 -0.515889,0.0908 -0.516052,0.0898 -0.516215,0.0889 -0.516538,0.0869 -0.516702,0.0859 -0.51703,0.0839 -0.517189,0.0829 -0.517353,0.0819 -0.517682,0.0799 -0.517741,0.0789 -0.518168,0.0769 -0.518232,0.0759 -0.518655,0.074 -0.51872,0.0729 -0.518785,0.0719 -0.519208,0.07 -0.519178,0.0689 -0.51934,0.0679 -0.519666,0.0659 -0.519636,0.0649 -0.520057,0.0629 -0.520123,0.0619 -0.520446,0.0599 -0.520515,0.0589 -0.520483,0.0579 -0.520907,0.0559 -0.520874,0.0549 -0.520941,0.0538 -0.521263,0.0519 -0.521497,0.0498 -0.521303,0.0498 -0.521626,0.0478 -0.521854,0.0458 -0.521922,0.0448 -0.521891,0.0437 -0.522216,0.0418 -0.522184,0.0407 -0.522253,0.0398 -0.522481,0.0377 -0.522449,0.0367 -0.522679,0.0346 -0.522745,0.0336 -0.522713,0.0326 -0.522944,0.0306 -0.522912,0.0295 -0.523237,0.0276 -0.523111,0.0265 -0.523078,0.0254 -0.523407,0.0235 -0.523277,0.0225 -0.523245,0.0214 -0.523476,0.0193 -0.523446,0.0183 -0.523579,0.0163 -0.523642,0.0153 -0.52352,0.0137 -0.523748,0.0118 -0.523621,0.0107 -0.523851,0.009 -0.523817,0.008 -0.523693,0.007 -0.523562,0.006 -0.523791,0.004 -0.52402,0.002 -0.523537,0.002 -0.524121,-0.001 -0.523636,-10e-4 -0.523865,-0.003 -0.52374,-0.004 -0.52387,-0.006 -0.523486,-0.007 -0.523973,-0.01 -0.523491,-0.01 -0.523719,-0.0116 -0.523753,-0.0138 -0.523465,-0.0138 -0.523499,-0.0159 -0.523727,-0.0178 -0.523505,-0.019 -0.52338,-0.02 -0.5232479,-0.0211 -0.523287,-0.0232 -0.523254,-0.0241 -0.523292,-0.0263 -0.523066,-0.0274 -0.523039,-0.0284 -0.522811,-0.0295 -0.522849,-0.0315 -0.522721,-0.0327 -0.52275601,-0.0346 -0.522631,-0.0358 -0.522407,-0.0369 -0.522441,-0.039 -0.52231399,-0.04 -0.522091,-0.0411 -0.522222,-0.0431 -0.521904,-0.0443 -0.521774,-0.0453 -0.521552,-0.0464 -0.521586,-0.0485 -0.521623,-0.0506 -0.52114,-0.0507 -0.521176,-0.0527 -0.520951,-0.0538 -0.520986,-0.0559 -0.520763,-0.057 -0.520444,-0.0581 -0.520316,-0.0592 -0.520256,-0.0613 -0.52003,-0.0624 -0.5200681,-0.0644 -0.519485,-0.0646 -0.519785,-0.0676 -0.519298,-0.0677 -0.519236,-0.0698 -0.519015,-0.0709 -0.518694,-0.072 -0.51847,-0.0731 -0.518409,-0.0752 -0.518088,-0.0763 -0.518126,-0.0784 -0.517803,-0.0795 -0.51758,-0.0806 -0.517163,-0.0817 -0.517199,-0.0838 -0.516975,-0.0849 -0.516559,-0.086 -0.516496,-0.0881 -0.516017,-0.0883 -0.516115,-0.0913 -0.515633,-0.0915 -0.515474,-0.0936 -0.515252,-0.0947 -0.514835,-0.0958 -0.514514,-0.0969 -0.514453,-0.099 -0.514136,-0.10017 -0.513714,-0.1013 -0.513753,-0.10337 -0.513334,-0.10452 -0.512918,-0.10566 -0.512694,-0.10675 -0.512537,-0.10887 -0.51212,-0.11001 -0.511799,-0.11114 -0.51148,-0.11226 -0.51132,-0.11438 -0.510905,-0.11551 -0.510583,-0.11664 -0.510428,-0.11876 -0.509749,-0.11894 -0.509691,-0.12102 -0.509273,-0.12217 -0.509117,-0.12428 -0.50853,-0.12444 -0.50828,-0.12657 -0.50796,-0.12771 -0.50781,-0.12981 -0.50703,-0.13002 -0.50697,-0.13211 -0.50655,-0.13325 -0.5064,-0.13536 -0.50571,-0.13556 -0.50547,-0.13769 -0.50514,-0.13881 -0.50463,-0.13997 -0.50422,-0.14113 -0.50405,-0.14325 -0.50326,-0.14449 -0.5039,-0.14535 -0.50222,-0.14685 -0.50275,-0.14877 -0.50177,-0.14903 -0.50133,-0.15121 -0.5016,-0.1522 -0.49992,-0.15367 -0.50043,-0.1556 -0.5007,-0.15657 -0.49876,-0.15709 -0.49954,-0.15998 -0.49858,-0.16024 -0.49787,-0.16147 -0.49743,-0.16366 -0.49767,-0.16463 -0.49698,-0.16585 -0.49626,-0.16708 -0.49556,-0.16829 -0.49609,-0.17024 -0.49511,-0.17049 -0.49466,-0.17269 -0.49396,-0.1739 -0.49326,-0.17513 -0.49377,-0.17706 -0.49184,-0.17759 -0.49236,-0.17951 -0.49165,-0.18074 -0.49191,-0.18171 -0.49024,-0.18319 -0.4905,-0.18415 -0.48908,-0.18661 -0.48909,-0.1866 -0.4896,-0.18854 -0.48792,-0.19002 -0.48723,-0.19124 -0.48748,-0.19222 -0.48678,-0.19344 -0.48633,-0.19562 -0.48537,-0.19589 -0.48491,-0.19808 -0.48421,-0.1993 -0.48447,-0.20027 -0.48279,-0.20176 -0.48305,-0.20271 -0.48235,-0.20394 -0.4819,-0.20614 -0.48094,-0.20639 -0.48146,-0.20832 -0.47977,-0.20982 -0.48005,-0.21077 -0.4781,-0.2113 -0.47889,-0.21419 -0.47792,-0.21445 -0.47721,-0.21567 -0.47651,-0.21691 -0.47606,-0.21908 -0.4751,-0.21936 -0.47464,-0.22154 -0.47491,-0.22251 -0.47297,-0.22302 -0.4735,-0.22496 -0.47278,-0.22618 -0.47112,-0.22767 -0.47137,-0.22863 -0.47067,-0.22985 -0.46995,-0.23109 -0.46951,-0.23327 -0.46855,-0.23354 -0.46784,-0.23475 -0.46739,-0.23695 -0.46739,-0.23695 -0.46598,-0.2394 -0.46502,-0.23965 -0.46553,-0.2416 -0.46386,-0.24307 -0.46412,-0.24403 -0.46218,-0.24457 -0.46271,-0.24649 -0.46103,-0.24797 -0.46129,-0.24894 -0.46058,-0.25016 -0.45892,-0.25165 -0.45891,-0.25165 -0.45846,-0.25384 -0.45777,-0.25507 -0.45609,-0.25655 -0.45634,-0.25751 -0.45564,-0.25874 -0.45396,-0.26022 -0.45423,-0.2612 -0.45352,-0.26241 -0.45281,-0.26364 -0.45211,-0.26486 -0.45043,-0.26635 -0.45069,-0.26732 -0.44999,-0.26853 -0.44832,-0.27003 -0.44856,-0.27099 -0.44787,-0.27221 -0.4462,-0.2737 -0.44645,-0.27467 -0.44477,-0.27614 -0.44505,-0.27713 -0.44407,-0.27737 -0.44266,-0.27982 -0.44195,-0.28105 -0.44196,-0.28105 -0.44054,-0.2835 -0.43958,-0.28376 -0.44009,-0.28569 -0.43816,-0.28621 -0.43771,-0.2884 -0.43675,-0.28866 -0.43604,-0.28988 -0.4356,-0.29208 -0.43463,-0.29233 -0.43391,-0.29356 -0.43226,-0.29504 -0.4325,-0.29601 -0.43155,-0.29627 -0.43013,-0.29871 -0.42942,-0.29995 -0.42942,-0.29994 -0.42801,-0.3024 -0.42705,-0.30265 -0.42634,-0.30388 -0.42588,-0.30606 -0.424928,-0.30633 -0.42422,-0.30755 -0.42351,-0.30878 -0.42158,-0.30929 -0.4221,-0.31124 -0.42016,-0.31174 -0.41972,-0.31394 -0.41875,-0.31419 -0.41804,-0.31543 -0.41734,-0.31664 -0.41664,-0.31787 -0.41592,-0.3191 -0.414,-0.31961 -0.41452,-0.32154 -0.41258,-0.32207 -0.41187,-0.3233 -0.41117,-0.32451 -0.41046,-0.32574 -0.40975,-0.32696 -0.40783,-0.32749 -0.40834,-0.32941 -0.40641,-0.32993 -0.4057,-0.33116 -0.405,-0.33239 -0.40403,-0.33263 -0.40358,-0.33485 -0.40166,-0.33534 -0.40191,-0.33632 -0.40023,-0.3378 -0.39954,-0.33903 -0.39856,-0.33928 -0.39812,-0.34148 -0.39619,-0.342 -0.39645,-0.34295 -0.39451,-0.34349 -0.39407,-0.34566 -0.39309,-0.34594 -0.39143,-0.34741 -0.39169,-0.34838 -0.39003,-0.34986 -0.38904,-0.35013 -0.38835,-0.35134 -0.38763,-0.35258 -0.38693,-0.3538 -0.385,-0.35431 -0.3843,-0.35555 -0.38358,-0.35676 -0.38288,-0.35799 -0.3812,-0.35948 -0.3812,-0.35948 -0.37955,-0.36096 -0.37856,-0.36122 -0.37806,-0.36321 -0.37624,-0.36413 -0.3764,-0.3647 -0.37468,-0.36599 -0.37389,-0.36692 -0.37215,-0.36823 -0.37233,-0.36879 -0.37056,-0.36999 -0.36981,-0.37103 -0.36903,-0.37196 -0.36725,-0.37306 -0.36649,-0.37409 -0.36568,-0.37492 -0.36493,-0.37597 -0.36411,-0.3768 -0.36236,-0.37798 -0.36157,-0.37894 -0.36079,-0.37986 -0.36,-0.3807 -0.35823,-0.3819 -0.35744,-0.38283 -0.35664,-0.38367 -0.35585,-0.3846 -0.35411,-0.3858 -0.35329,-0.38664 -0.35251,-0.38758 -0.3517,-0.38841 -0.34992,-0.38952 -0.34914,-0.39045 -0.34832,-0.39128 -0.34658,-0.39248 -0.34673,-0.39306 -0.34496,-0.39416 -0.34319,-0.39525 -0.34335,-0.39594 -0.34159,-0.39702 -0.34078,-0.39786 -0.33897,-0.39887 -0.33915,-0.39955 -0.33739,-0.40064 -0.33656,-0.40149 -0.33479,-0.40257 -0.33399,-0.40343 -0.33317,-0.40425 -0.33236,-0.4051 -0.33056,-0.4061 -0.32975,-0.40693 -0.32894,-0.40777 -0.32813,-0.40862 -0.32632,-0.40961 -0.32552,-0.41045 -0.32371,-0.41146 -0.3229,-0.41229 -0.3221,-0.41313 -0.32126,-0.41388 -0.31948,-0.41497 -0.31865,-0.41571 -0.3178,-0.41647 -0.317,-0.41728 -0.3152,-0.4183 -0.31339,-0.4193 -0.31355,-0.41987 -0.31173,-0.42079 -0.31091,-0.42162 -0.30911,-0.42262 -0.30926,-0.4232 -0.30743,-0.4241 -0.30565,-0.42512 -0.30482,-0.42594 -0.30396,-0.4266 -0.30313,-0.42732 -0.30132,-0.42834 -0.30049,-0.42907 -0.29965,-0.42982 -0.29783,-0.43073 -0.29701,-0.43157 -0.29519,-0.43245 -0.29529,-0.43286 -0.29351,-0.43396 -0.29166,-0.43476 -0.29085,-0.43559 -0.28999,-0.43625 -0.28912,-0.43688 -0.28732,-0.43789 -0.28649,-0.43864 -0.2856,-0.43918 -0.2838,-0.44019 -0.28295,-0.44092 -0.28114,-0.44183 -0.28024,-0.44238 -0.27941,-0.44312 -0.2776,-0.44413 -0.27672,-0.44466 -0.27588,-0.44542 -0.275,-0.44596 -0.27319,-0.44697 -0.27134,-0.44776 -0.2705,-0.44851 -0.26962,-0.44908 -0.26877,-0.44979 -0.26693,-0.45062 -0.26605,-0.45126 -0.26422,-0.45206 -0.26431,-0.45246 -0.0387,-0.0671 -46.47227,26.85543 0.39492,0.6806 0.78745,1.34082 0.79644,1.3357 0.80443,1.33077 0.8134,1.32557 0.82133,1.32044 0.83026,1.31514 0.83722,1.31016 0.84612,1.30479 0.855,1.29928 0.8619,1.29412 0.87076,1.28853 0.87861,1.28312 0.88646,1.2776 0.89523,1.27171 0.9021,1.26646 0.91088,1.26058 0.91863,1.25476 0.92643,1.24906 0.93415,1.24315 0.94192,1.23734 0.94965,1.23144 0.95735,1.22543 0.96504,1.21933 0.97285,1.21372 0.9804,1.20713 0.9878,1.19997 0.99571,1.19474 1.00337,1.18854 1.01006,1.18261 1.01745,1.17545 1.02511,1.16925 1.03277,1.16305 1.04015,1.1559 1.04686,1.14995 1.0545,1.14375 1.06069,1.1359 1.0693,1.12943 1.07502,1.12376 1.08338,1.11633 1.08885,1.1097 1.09722,1.10227 1.10267,1.09562 1.11131,1.08918 1.1165,1.08156 1.1239,1.0744 1.13155,1.06821 1.13677,1.06059 1.1439,1.05247 1.15059,1.04653 1.15772,1.0384 1.16319,1.03176 1.17058,1.0246 1.1758,1.01699 1.18319,1.00982 1.18936,1.00196 1.19553,0.99409 1.20196,0.98718 1.20717,0.97959 1.2143,0.97144 1.22074,0.96455 1.22569,0.95597 1.2321,0.94907 1.23829,0.94119 1.24323,0.93263 1.25063,0.92546 1.25487,0.91812 1.26174,0.90901 1.26694,0.90142 1.27216,0.8938 1.27833,0.88593 1.2845,0.87806 1.28945,0.86948 1.29438,0.86092 1.29959,0.85331 1.30577,0.84543 1.31072,0.83686 1.31566,0.82828 1.32183,0.82042 1.32582,0.8121 1.33076,0.80353 1.33692,0.79565 1.34162,0.78612 1.34586,0.77876 1.3508,0.77019 1.35672,0.76136 1.36069,0.75304 1.36442,0.74375 1.37058,0.73589 1.37457,0.72757 1.37926,0.71804 1.383238,0.70971 1.38818,0.70115 1.39313,0.69256 1.39588,0.68355 1.4018,0.6747 1.40481,0.66665 1.4095,0.65712 1.41322,0.64782 1.41816,0.63926 1.42092,0.63023 1.42588,0.62165 1.42958,0.61238 1.43261,0.60432 1.43703,0.59381 1.44101,0.58549 1.44377,0.57647 1.44871,0.5679 1.45122,0.55791 1.45493,0.54863 1.45794,0.54056 1.46142,0.53033 1.46539,0.52201 1.46788,0.51201 1.47186,0.5037 1.47436,0.49372 1.47809,0.48443 1.48084,0.47541 1.48333,0.46542 1.48636,0.45737 1.48981,0.44711 1.4916,0.43835 1.49506,0.4281 1.49782,0.41909 1.49961,0.41032 1.50307,0.40007 1.50461,0.39035 1.50858,0.38202 1.50888,0.37159 1.51261,0.36231 1.5144,0.35354 1.51664,0.3426 1.51939,0.33356 1.52021,0.32506 1.52368,0.31483 1.52424,0.30534 1.52674,0.29536 1.529234,0.28537 1.530056,0.27687 1.531588,0.26713 1.534086,0.25715 1.535356,0.24645 1.536729,0.23884 1.53829,0.22806 1.539627,0.2184 1.540965,0.20871 1.542203,0.19904 1.543545,0.18939 1.54459,0.17979 1.545828,0.17012 1.546881,0.16053 1.5475661,0.14999 1.548879,0.14136 1.549471,0.13084 1.550326,0.1213 1.551083,0.11177 1.551842,0.10225 1.55224399,0.0918 1.55290601,0.0823 1.553371,0.0728 1.553681,0.0624 1.5544039,0.0539 1.554355,0.0426 1.554795,0.0342 1.554903,0.0238 1.554922,0.0134 1.555263,0.005 1.554922,-0.006 1.555165,-0.0146 1.554893,-0.0249 1.554618,-0.0352 1.554506,-0.0444 1.554038,-0.0547 1.553734,-0.0639 1.553268,-0.0741 1.552964,-0.0834 1.552207,-0.0935 1.551803,-0.10279 1.55095,-0.11288 1.550196,-0.12302 1.549503,-0.13214 1.548456,-0.14223 1.547863,-0.15139 1.546362,-0.16238 1.545834,-0.17051 1.544433,-0.18152 1.543354,-0.19055 1.542116,-0.20059 1.540942,-0.20958 1.539507,-0.21955 1.538076,-0.22952 1.536448,-0.23944 1.535179,-0.24841 1.533454,-0.25831 1.531831,-0.26823 1.530173,-0.27709 1.528191,-0.28794 1.526437,-0.29681 1.524777,-0.30567 1.522516,-0.31646 1.520746,-0.3253 1.518549,-0.33508 1.516354,-0.34482 1.514369,-0.35361 1.511776,-0.36431 1.509686,-0.37307 1.507225,-0.38276 1.50503,-0.39149 1.502172,-0.40212 z m -221.85573,-80.04074 -0.53221,-1.6e-4 -0.51822,-0.11771 -0.47917,-0.23067 -0.41614,-0.33147 -0.33221,-0.41611 -0.23092,-0.47851 -0.11858,-0.51899 1.8e-4,-0.53123 0.11744,-0.51919 0.23068,-0.47918 0.33147,-0.41613 0.41637,-0.33124 0.4785,-0.23092 0.519,-0.11859 0.53097,-7.9e-4 0.51945,0.1184 0.47917,0.23068 0.41517,0.33173 0.33195,0.41514 0.23118,0.47946 0.11832,0.51804 -1.7e-4,0.5322 -0.1177,0.51822 -0.23068,0.47918 -0.33146,0.41613 -0.41515,0.33196 -0.47946,0.23118 z m 98.588288,57.08558 -0.52654,-0.0792 -0.49528,-0.19426 -0.4396,-0.29928 -0.36135,-0.38966 -0.26651,-0.46066 -0.15696,-0.50767 -0.0399,-0.53078 0.0795,-0.52557 0.19427,-0.49528 0.29928,-0.4396 0.38965,-0.36135 0.46067,-0.26652 0.50766,-0.15695 0.53079,-0.0399 0.52557,0.0794 0.49502,0.19329 0.4396,0.2993 0.36257,0.39035 0.26529,0.45996 0.15721,0.50863 0.0397,0.52983 -0.0783,0.52627 -0.19426,0.49527 -0.29928,0.43961 -0.39062,0.36161 -0.4597,0.26625 -0.50863,0.15722 z m 213.474982,-57.20981 -0.53123,-1.8e-4 -0.51916,-0.11743 -0.47919,-0.23068 -0.41614,-0.33147 -0.33126,-0.41637 -0.2309,-0.4785 -0.11858,-0.519 v -0.53098 l 0.1184,-0.51944 0.23066,-0.47917 0.33174,-0.41518 0.41515,-0.33195 0.47945,-0.23118 0.51803,-0.11832 0.53221,1.7e-4 0.51821,0.1177 0.47919,0.23068 0.41614,0.33145 0.33194,0.41516 0.2312,0.47946 0.11832,0.51803 -1.6e-4,0.53221 -0.11771,0.51822 -0.23067,0.47916 -0.33147,0.41615 -0.41611,0.33221 -0.4785,0.23092 z m -95.784163,69.40469 -0.511969,0.10944 -0.515673,0.0908 -0.518239,0.0738 -0.520727,0.0548 -0.522314,0.0367 -0.523266,0.0183 -0.523716,-2.5e-4 -0.52324,-0.018 -0.522182,-0.0359 -0.520832,-0.0549 -0.518345,-0.0721 -0.515858,-0.0914 -0.511996,-0.10798 -0.508106,-0.12662 -0.503449,-0.14445 -0.497945,-0.16144 -0.491993,-0.17858 -0.485511,-0.19585 -0.478525,-0.21325 -0.470588,-0.22884 -0.462357,-0.24555 -0.45371,-0.26236 -0.444169,-0.27735 -0.434147,-0.29246 -0.423733,-0.30769 -0.412678,-0.32204 -0.401236,-0.3365 -0.389146,-0.35009 -0.376865,-0.36375 -0.363582,-0.3756 -0.350623,-0.38942 -0.336601,-0.40044 -0.322447,-0.41252 -0.308033,-0.42363 -0.292884,-0.43391 -0.277727,-0.4442 -0.262028,-0.45359 -0.245967,-0.46203 -0.229717,-0.47054 -0.213108,-0.4781 -0.196406,-0.48569 -0.179184,-0.49135 -0.162028,-0.49803 -0.14461,-0.50372 -0.126776,-0.50748 -0.1091,-0.51223 -0.09091,-0.51504 -0.07317,-0.51877 -0.05491,-0.52056 -0.03674,-0.52233 -0.01841,-0.5231 -2.65e-4,-0.52383 0.01802,-0.52356 0.03627,-0.52225 0.05453,-0.52094 0.07258,-0.51853 0.09087,-0.51516 0.108527,-0.51266 0.126412,-0.50813 0.14436,-0.5026 0.161565,-0.49789 0.178837,-0.49218 0.195985,-0.48539 0.212741,-0.4785 0.229375,-0.47053 0.245621,-0.46247 0.261381,-0.45428 0.277279,-0.44404 0.292785,-0.43372 0.307448,-0.42419 0.322199,-0.41262 0.336471,-0.40091 0.350221,-0.38908 0.363455,-0.3771 0.376442,-0.36401 0.389136,-0.34982 0.400759,-0.33741 0.412599,-0.32195 0.423365,-0.30828 0.434054,-0.29251 0.443931,-0.27755 0.4532,-0.26245 0.462113,-0.24619 0.470456,-0.2298 0.478208,-0.21324 0.485589,-0.19555 0.491834,-0.17962 0.497973,-0.16161 0.502999,-0.14534 0.508185,-0.12603 0.511995,-0.10945 0.515673,-0.0908 0.51824,-0.0738 0.5207,-0.0548 0.522314,-0.0366 0.523292,-0.0183 0.523717,2.5e-4 0.52324,0.0179 0.522181,0.0359 0.520833,0.0549 0.518345,0.0721 0.515831,0.0914 0.512022,0.10798 0.508106,0.12662 0.503423,0.14445 0.497972,0.16144 0.491993,0.17859 0.48551,0.19585 0.478499,0.21324 0.470614,0.22885 0.462333,0.24554 0.453708,0.26236 0.444182,0.27735 0.434155,0.29247 0.42373,0.30768 0.412671,0.32204 0.40124,0.3365 0.38915,0.3501 0.376607,0.36278 0.363829,0.37656 0.350626,0.38942 0.336603,0.40044 0.322447,0.41252 0.308028,0.42363 0.292894,0.43392 0.277733,0.44419 0.262017,0.45359 0.245983,0.46204 0.229685,0.47053 0.213122,0.47811 0.1964,0.48568 0.179202,0.49136 0.162031,0.49802 0.14433,0.50277 0.127053,0.50844 0.109088,0.51223 0.09091,0.51504 0.07318,0.51877 0.0549,0.52055 0.03672,0.52233 0.01852,0.5231 2.38e-4,0.52383 -0.01799,0.52357 -0.0363,0.52225 -0.0545,0.52093 -0.0726,0.51853 -0.09088,0.51517 -0.108532,0.51265 -0.126656,0.50717 -0.144119,0.50356 -0.161554,0.49789 -0.178859,0.49218 -0.195976,0.48539 -0.212752,0.4785 -0.229367,0.47054 -0.245613,0.46247 -0.261382,0.45427 -0.277283,0.44406 -0.292788,0.43371 -0.307446,0.42419 -0.322183,0.41261 -0.336471,0.40092 -0.350228,0.38908 -0.363459,0.37709 -0.376449,0.36401 -0.389122,0.34983 -0.400765,0.33741 -0.412591,0.32195 -0.42336,0.30828 -0.434075,0.2925 -0.443918,0.27755 -0.453205,0.26245 -0.462121,0.24619 -0.470456,0.2298 -0.478208,0.21324 -0.485589,0.19555 -0.491808,0.17962 -0.497999,0.16161 -0.503264,0.14438 z"
     id="path4-3"
     inkscape:connector-curvature="0"
     style="fill:#d3d3d3;stroke:#000000;stroke-width:0.5" />
  <path
     d="m 79.71519,232.15988 1.497144,-0.42044 1.494711,-0.42911 1.491668,-0.43967 1.489048,-0.44828 1.486165,-0.45787 1.483148,-0.46742 1.480423,-0.47599 1.477328,-0.48553 1.47426,-0.49505 1.471,-0.50453 1.46765,-0.51399 1.4647,-0.52252 1.46127,-0.53194 1.457795,-0.54137 1.4546,-0.54983 1.45103,-0.55922 1.4474,-0.56861 1.44373,-0.57798 1.44031,-0.58637 1.4365,-0.5957 1.43254,-0.605 1.42896,-0.61336 1.42502,-0.62265 1.42097,-0.63191 1.41716,-0.64023 1.41298,-0.64943 1.4088,-0.65868 1.40475,-0.66691 1.40042,-0.67611 1.39644,-0.68435 1.39181,-0.69346 1.38766,-0.70167 1.38285,-0.71177 1.37877,-0.71895 1.37406,-0.72804 1.36943,-0.73716 1.36477,-0.74522 1.35999,-0.75429 1.35541,-0.76239 1.35038,-0.77139 1.34556,-0.77941 1.34083,-0.78746 1.3357,-0.79645 1.33078,-0.80443 1.32558,-0.81339 1.32043,-0.82133 1.31514,-0.83027 1.31017,-0.83721 1.30476,-0.84612 1.29929,-0.85501 1.29413,-0.86189 1.28852,-0.87076 1.28313,-0.87861 1.27759,-0.88645 1.27172,-0.89524 1.26645,-0.9021 1.26058,-0.91088 1.25476,-0.91864 1.24908,-0.92642 1.24314,-0.93415 1.23735,-0.94192 1.23142,-0.94965 1.22542,-0.95735 1.21933,-0.96504 1.21373,-0.97285 1.20713,-0.98041 1.19997,-0.98779 1.19475,-0.99571 1.18853,-1.00337 1.18261,-1.01006 1.17544,-1.01745 1.16927,-1.02512 1.16306,-1.03276 1.15588,-1.04015 1.14996,-1.04686 1.14374,-1.0545 1.13591,-1.06069 1.12943,-1.0693 1.12376,-1.07502 1.11633,-1.08338 1.10969,-1.08886 1.10228,-1.09721 1.09562,-1.10267 1.08918,-1.1113 1.08156,-1.11651 1.0744,-1.1239 1.0682,-1.13155 1.06058,-1.13677 1.05249,-1.1439 1.04653,-1.15059 1.03838,-1.15772 1.03177,-1.16319 1.0246,-1.17058 1.01698,-1.1758 1.00984,-1.18319 1.00195,-1.18936 0.99409,-1.19553 0.98719,-1.20196 0.97956,-1.20717 0.97147,-1.21431 0.96454,-1.22074 0.95597,-1.22568 0.94909,-1.2321 0.94117,-1.23829 0.93263,-1.24324 0.92546,-1.25062 0.91813,-1.25486 0.909,-1.26175 0.90141,-1.26694 0.89382,-1.27216 0.88593,-1.27834 0.87805,-1.28449 0.8695,-1.28945 0.86092,-1.29438 0.85328,-1.2996 0.84545,-1.30576 0.83685,-1.31072 0.82828,-1.31566 0.82042,-1.32183 0.81211,-1.32582 0.80352,-1.33075 0.79565,-1.33693 0.78613,-1.34162 0.3941,-0.68041 -46.49343,-26.818294 -0.23582,0.406 -0.26461,0.45307 -0.26511,0.45114 -0.2661,0.4514 -0.26757,0.44973 -0.26855,0.44998 -0.27099,0.44858 -0.27098,0.44857 -0.27247,0.4469 -0.27371,0.44619 -0.27467,0.44646 -0.27614,0.44477 -0.27739,0.44408 -0.27858,0.44336 -0.27959,0.44363 -0.28104,0.44196 -0.28225,0.44124 -0.28351,0.44054 -0.28471,0.43983 -0.28501,0.43888 -0.28716,0.438424 -0.28842,0.43771 -0.28866,0.43675 -0.29109,0.43533 -0.29112,0.43534 -0.29329,0.43489 -0.29382,0.43296 -0.29478,0.43321 -0.29628,0.43154 -0.29749,0.43084 -0.29872,0.43013 -0.29967,0.43037 -0.30117,0.42873 -0.30242,0.428 -0.30263,0.42704 -0.30512,0.42564 -0.30509,0.42563 -0.30633,0.42493 -0.30877,0.42351 -0.3088,0.42351 -0.31025,0.42183 -0.31051,0.42088 -0.31271,0.42042 -0.31396,0.41972 -0.31416,0.41875 -0.31642,0.41831 -0.31689,0.41637 -0.31787,0.41664 -0.31935,0.41495 -0.3206,0.41426 -0.32057,0.41425 -0.32303,0.41284 -0.32356,0.41091 -0.32451,0.41116 -0.32573,0.41047 -0.32723,0.40878 -0.32846,0.40809 -0.32842,0.40808 -0.33092,0.40667 -0.33115,0.40571 -0.33264,0.40402 -0.33361,0.4043 -0.33509,0.40262 -0.3351,0.40261 -0.33657,0.40095 -0.33878,0.4005 -0.3393,0.39856 -0.33927,0.39857 -0.34171,0.39715 -0.34177,0.39715 -0.34321,0.39548 -0.34444,0.39477 -0.34594,0.39311 -0.34592,0.3931 -0.34837,0.39168 -0.34838,0.39169 -0.34891,0.38977 -0.35134,0.38833 -0.35136,0.38835 -0.35256,0.38763 -0.35407,0.38597 -0.35528,0.38526 -0.35555,0.38429 -0.35798,0.38287 -0.35703,0.38263 -0.35946,0.3812 -0.35975,0.38024 -0.36193,0.37979 -0.36121,0.37858 -0.36377,0.37718 -0.36423,0.37626 -0.36515,0.37549 -0.36618,0.37472 -0.36711,0.37394 -0.36833,0.37218 -0.36925,0.37141 -0.37018,0.37062 -0.37113,0.36984 -0.3724,0.36811 -0.37325,0.3673 -0.3742,0.36651 -0.3752,0.36576 -0.37606,0.36495 -0.37727,0.3632 -0.37816,0.36242 -0.37905,0.3616 -0.3802,0.35985 -0.381,0.36007 -0.38198,0.35825 -0.38304,0.3575 -0.38412,0.35572 -0.38505,0.35494 -0.38589,0.35413 -0.38675,0.35333 -0.38777,0.35255 -0.38878,0.35076 -0.38978,0.35001 -0.39055,0.34916 -0.39174,0.34741 -0.39233,0.34757 -0.39365,0.34483 -0.39436,0.345 -0.39518,0.34421 -0.39629,0.34242 -0.39722,0.34163 -0.39823,0.33984 -0.39907,0.33902 -0.4,0.33825 -0.40074,0.3374 -0.40166,0.33662 -0.4027,0.33483 -0.40359,0.33402 -0.40463,0.33223 -0.40518,0.3324 -0.4063,0.3306 -0.40727,0.32881 -0.40799,0.329 -0.40896,0.32718 -0.40971,0.32636 -0.4109,0.3246 -0.4114,0.32473 -0.41264,0.32197 -0.41323,0.32211 -0.41423,0.32032 -0.41508,0.31951 -0.4159,0.3187 -0.41656,0.31783 -0.41764,0.31605 -0.41876,0.31429 -0.41912,0.31439 -0.42024,0.3126 -0.42098,0.31178 -0.42206,0.31 -0.42246,0.3101 -0.42347,0.3083 -0.42455,0.30652 -0.42529,0.30569 -0.42595,0.30483 -0.4268,0.30401 -0.42768,0.30219 -0.42844,0.30135 -0.42918,0.30051 -0.43026,0.29874 -0.43082,0.29785 -0.43191,0.29607 -0.4323,0.29618 -0.43331,0.29437 -0.43423,0.29255 -0.43495,0.29172 -0.43569,0.29087 -0.43635,0.29001 -0.43723,0.28819 -0.43799,0.28735 -0.43873,0.28651 -0.43963,0.28469 -0.44027,0.28381 -0.44119,0.282 -0.44193,0.28115 -0.44257,0.2803 -0.44347,0.27847 -0.44389,0.27857 -0.44511,0.27581 -0.4454,0.27588 -0.44643,0.27408 -0.44733,0.27225 -0.4476,0.27233 -0.4486,0.27053 -0.44942,0.26867 -0.45008,0.26781 -0.45069,0.26695 -0.45136,0.26609 -0.45228,0.26426 -0.45278,0.26337 -0.45373,0.26155 -0.45437,0.26067 -0.4549,0.25979 -0.45582,0.25797 -0.45636,0.25708 -0.45725,0.25525 -0.45757,0.25532 -0.45871,0.25254 -0.45902,0.25261 -0.45982,0.25076 -0.46046,0.24989 -0.46127,0.24805 -0.46183,0.24715 -0.46273,0.24532 -0.46289,0.24537 -0.46411,0.24259 -0.46437,0.24266 -0.46516,0.2408 -0.4659,0.23893 -0.46628,0.23904 -0.4671,0.23718 -0.46788,0.23531 -0.46834,0.23441 -0.468895,0.23352 -0.46982,0.23169 -0.47014,0.23076 -0.4708,0.22989 -0.47151,0.22802 -0.47233,0.22615 -0.4726,0.22623 -0.47334,0.22436 -0.47403,0.22247 -0.47432,0.22256 -0.4754,0.21973 -0.47559,0.21979 -0.47628,0.2179 -0.47701,0.21603 -0.47731,0.2161 -0.47826,0.21326 -0.478556,0.21333 -0.479187,0.21143 -0.47998,0.20958 -0.480166,0.20963 -0.48088,0.20774 -0.481515,0.20585 -0.482045,0.20495 -0.482494,0.20404 -0.483235,0.20216 -0.483552,0.20122 -0.4844,0.19937 -0.484716,0.19842 -0.485193,0.19751 -0.485881,0.19564 -0.486278,0.19469 -0.486939,0.19281 -0.487442,0.1919 -0.488024,0.18999 -0.488235,0.19005 -0.489188,0.1872 -0.489188,0.1872 -0.490009,0.18535 -0.490537,0.18342 -0.490961,0.18249 -0.491331,0.18156 -0.492046,0.17968 -0.492389,0.17874 -0.49276,0.1778 -0.493369,0.1759 -0.494004,0.17399 -0.494056,0.17401 -0.494956,0.17114 -0.495168,0.1712 -0.49567,0.16927 -0.496014,0.16832 -0.496623,0.16641 -0.497364,0.16455 -0.497258,0.16451 -0.497946,0.16263 -0.498501,0.1607 -0.498846,0.15976 -0.499136,0.15882 -0.499745,0.15689 -0.500063,0.15595 -0.50038,0.155 -0.500909,0.15307 -0.501491,0.15115 -0.501544,0.15117 -0.502365,0.14828 -0.502364,0.14829 -0.502946,0.14636 -0.503502,0.14445 -0.503741,0.14348 -0.504057,0.14252 -0.504323,0.14155 -0.505089,0.13868 -0.505143,0.13866 -0.505618,0.13674 -0.505892,0.13576 -0.506409,0.13384 -0.50667,0.13287 -0.507185,0.13094 -0.507412,0.12997 -0.507664,0.12899 -0.508164,0.12706 -0.508651,0.12512 -0.508617,0.12512 -0.509111,0.12317 -0.509603,0.12123 -0.509813,0.12026 -0.510024,0.11928 -0.510505,0.11733 -0.510696,0.11635 -0.511183,0.11442 -0.511376,0.11342 -0.511562,0.11244 -0.512019,0.1105 -0.512257,0.10952 -0.512643,0.10756 -0.512805,0.10656 -0.513064,0.10559 -0.513387,0.10366 -0.513649,0.10267 -0.514069,0.10067 -0.514234,0.0997 -0.514654,0.0978 -0.514721,0.0968 -0.514979,0.0958 -0.515305,0.0938 -0.515567,0.0928 -0.51589,0.0908 -0.516052,0.0898 -0.516215,0.0889 -0.516538,0.0869 -0.516702,0.0859 -0.51703,0.0839 -0.517189,0.0829 -0.517353,0.0819 -0.517681,0.0799 -0.517742,0.0789 -0.518168,0.0769 -0.518232,0.0759 -0.518654,0.074 -0.518721,0.0729 -0.518785,0.0719 -0.519207,0.07 -0.519179,0.0689 -0.51934,0.0679 -0.519666,0.0659 -0.519636,0.0649 -0.520057,0.0629 -0.520123,0.0619 -0.520446,0.0599 -0.520515,0.0589 -0.520483,0.0579 -0.520906,0.0559 -0.520875,0.0549 -0.520941,0.0538 -0.521263,0.0519 -0.521497,0.0498 -0.521303,0.0498 -0.521626,0.0478 -0.521854,0.0458 -0.521922,0.0448 -0.521891,0.0437 -0.522216,0.0418 -0.522184,0.0407 -0.522253,0.0398 -0.522481,0.0377 -0.522449,0.0367 -0.522679,0.0346 -0.522745,0.0336 -0.522713,0.0326 -0.522944,0.0306 -0.522912,0.0295 -0.523237,0.0276 -0.523111,0.0265 -0.523078,0.0254 -0.523407,0.0235 -0.523277,0.0225 -0.523245,0.0214 -0.523476,0.0193 -0.523446,0.0183 -0.523579,0.0163 -0.523642,0.0153 -0.52352,0.0137 -0.523748,0.0118 -0.523621,0.0107 -0.523851,0.009 -0.523817,0.008 -0.523693,0.007 -0.523562,0.006 -0.523791,0.004 -0.52402,0.002 -0.523537,0.002 -0.524121,-0.001 -0.523636,-10e-4 -0.523865,-0.003 -0.52374,-0.004 -0.52387,-0.006 -0.523486,-0.007 -0.523973,-0.01 -0.523491,-0.01 -0.523719,-0.0116 -0.523753,-0.0138 -0.523465,-0.0138 -0.523499,-0.0159 -0.523727,-0.0178 -0.523505,-0.019 -0.52338,-0.02 -0.523248,-0.0211 -0.523287,-0.0232 -0.523254,-0.0241 -0.523292,-0.0263 -0.523066,-0.0274 -0.523039,-0.0284 -0.5228109,-0.0295 -0.522849,-0.0315 -0.522721,-0.0327 -0.52275601,-0.0346 -0.522631,-0.0358 -0.522407,-0.0369 -0.522441,-0.039 -0.52231399,-0.04 -0.522091,-0.0411 -0.522222,-0.0431 -0.521904,-0.0443 -0.521774,-0.0453 -0.521552,-0.0464 -0.521586,-0.0485 -0.521623,-0.0506 -0.52114,-0.0507 -0.521176,-0.0527 -0.520951,-0.0538 -0.520986,-0.0559 -0.520763,-0.057 -0.520444,-0.0581 -0.520316,-0.0592 -0.520256,-0.0613 -0.52003,-0.0624 -0.5200681,-0.0644 -0.519485,-0.0646 -0.519785,-0.0676 -0.519298,-0.0677 -0.519236,-0.0698 -0.519015,-0.0709 -0.518694,-0.072 -0.51847,-0.0731 -0.518409,-0.0752 -0.518088,-0.0763 -0.518126,-0.0784 -0.517803,-0.0795 -0.51758,-0.0806 -0.517163,-0.0817 -0.517199,-0.0838 -0.516975,-0.0849 -0.516559,-0.086 -0.516496,-0.0881 -0.516017,-0.0883 -0.516115,-0.0913 -0.515633,-0.0915 -0.515474,-0.0936 -0.515252,-0.0947 -0.514835,-0.0958 -0.514514,-0.0969 -0.514453,-0.099 -0.514136,-0.10017 -0.513714,-0.1013 -0.513753,-0.10337 -0.513334,-0.10452 -0.512918,-0.10566 -0.512694,-0.10675 -0.512537,-0.10887 -0.51212,-0.11001 -0.511799,-0.11114 -0.51148,-0.11226 -0.51132,-0.11438 -0.510905,-0.11551 -0.510583,-0.11664 -0.510428,-0.11876 -0.509749,-0.11894 -0.509691,-0.12102 -0.509273,-0.12217 -0.509114,-0.12428 -0.508534,-0.12444 -0.50828,-0.12657 -0.507963,-0.12771 -0.507805,-0.12981 -0.507029,-0.13002 -0.506968,-0.13211 -0.506552,-0.13325 -0.506397,-0.13536 -0.505719,-0.13556 -0.505466,-0.13769 -0.505142,-0.13881 -0.504629,-0.13997 -0.504214,-0.14113 -0.504058,-0.14325 -0.503253,-0.14449 -0.503899,-0.14535 -0.502227,-0.14685 -0.502743,-0.14877 -0.501779,-0.14903 -0.50133,-0.15121 -0.501592,-0.1522 -0.499919,-0.15367 -0.500436,-0.1556 -0.500695,-0.15657 -0.498763,-0.15709 -0.499541,-0.15998 -0.498576,-0.16024 -0.497872,-0.16147 -0.49743,-0.16366 -0.49767,-0.16463 -0.49698,-0.16585 -0.496258,-0.16708 -0.495562,-0.16829 -0.496088,-0.17024 -0.49511,-0.17049 -0.494662,-0.17269 -0.493959,-0.1739 -0.49326,-0.17513 -0.493771,-0.17706 -0.491839,-0.17759 -0.49236,-0.17951 -0.491649,-0.18074 -0.491911,-0.18171 -0.490241,-0.18319 -0.4905,-0.18415 -0.489077,-0.18661 -0.48909,-0.1866 -0.4896,-0.18854 -0.48792,-0.19002 -0.48723,-0.19124 -0.48748,-0.19222 -0.48678,-0.19344 -0.48633,-0.19562 -0.48537,-0.19589 -0.48491,-0.19808 -0.48421,-0.1993 -0.48447,-0.20027 -0.48279,-0.20176 -0.48305,-0.20271 -0.48235,-0.20394 -0.4819,-0.20614 -0.48094,-0.20639 -0.48146,-0.20832 -0.47977,-0.20982 -0.48005,-0.21077 -0.4781,-0.2113 -0.47889,-0.21419 -0.47792,-0.21445 -0.47721,-0.21567 -0.47651,-0.21691 -0.47606,-0.21908 -0.4751,-0.21936 -0.47464,-0.22154 -0.47491,-0.22251 -0.47297,-0.22302 -0.4735,-0.22496 -0.47278,-0.22618 -0.47112,-0.22767 -0.47137,-0.22863 -0.47067,-0.22985 -0.46995,-0.23109 -0.46951,-0.23327 -0.46855,-0.23354 -0.46784,-0.23475 -0.46739,-0.23695 -0.46739,-0.23695 -0.46598,-0.2394 -0.46502,-0.23965 -0.46553,-0.2416 -0.46386,-0.24307 -0.46412,-0.24403 -0.46218,-0.24457 -0.46271,-0.24649 -0.46103,-0.24797 -0.46129,-0.24894 -0.46058,-0.25016 -0.45892,-0.25165 -0.45891,-0.25165 -0.45846,-0.25384 -0.45777,-0.25507 -0.45609,-0.25655 -0.45634,-0.25751 -0.45564,-0.25874 -0.45396,-0.26022 -0.45423,-0.2612 -0.45352,-0.26241 -0.45281,-0.26364 -0.45211,-0.26486 -0.45043,-0.26635 -0.45069,-0.26732 -0.44999,-0.26853 -0.44832,-0.27003 -0.44856,-0.27099 -0.44787,-0.27221 -0.4462,-0.2737 -0.44645,-0.27467 -0.44477,-0.27614 -0.44505,-0.27713 -0.44407,-0.27737 -0.44266,-0.27982 -0.44195,-0.28105 -0.44196,-0.28105 -0.44054,-0.2835 -0.43958,-0.28376 -0.44009,-0.28569 -0.43816,-0.28621 -0.43771,-0.2884 -0.43675,-0.28866 -0.43604,-0.28988 -0.4356,-0.29208 -0.43463,-0.29233 -0.43391,-0.29356 -0.43226,-0.29504 -0.4325,-0.29601 -0.43155,-0.29627 -0.43013,-0.29871 -0.42942,-0.29995 -0.42942,-0.29994 -0.42801,-0.3024 -0.42705,-0.30265 -0.42634,-0.30388 -0.42588,-0.30606 -0.424933,-0.30633 -0.42422,-0.30755 -0.42351,-0.30878 -0.42158,-0.30929 -0.4221,-0.31124 -0.42016,-0.31174 -0.41972,-0.31394 -0.41875,-0.31419 -0.41804,-0.31543 -0.41734,-0.31664 -0.41664,-0.31787 -0.41592,-0.3191 -0.414,-0.31961 -0.41452,-0.32154 -0.41258,-0.32207 -0.41187,-0.3233 -0.41117,-0.32451 -0.41046,-0.32574 -0.40975,-0.32696 -0.40783,-0.32749 -0.40834,-0.32941 -0.40641,-0.32993 -0.4057,-0.33116 -0.405,-0.33239 -0.40403,-0.33263 -0.40358,-0.33485 -0.40166,-0.33534 -0.40191,-0.33632 -0.40023,-0.3378 -0.39954,-0.33903 -0.39856,-0.33928 -0.39812,-0.34148 -0.39619,-0.342 -0.39645,-0.34295 -0.39451,-0.34349 -0.39407,-0.34566 -0.39309,-0.34594 -0.39143,-0.34741 -0.39169,-0.34838 -0.39003,-0.34986 -0.38904,-0.35013 -0.38835,-0.35134 -0.38763,-0.35258 -0.38693,-0.3538 -0.385,-0.35431 -0.3843,-0.35555 -0.38358,-0.35676 -0.38288,-0.35799 -0.3812,-0.35948 -0.3812,-0.35948 -0.37955,-0.36096 -0.37856,-0.36122 -0.37806,-0.36321 -0.37624,-0.36413 -0.3764,-0.3647 -0.37468,-0.36599 -0.37389,-0.36692 -0.37215,-0.36823 -0.37233,-0.36879 -0.37056,-0.36999 -0.36981,-0.37103 -0.36903,-0.37196 -0.36725,-0.37306 -0.36649,-0.37409 -0.36568,-0.37492 -0.36493,-0.37597 -0.36411,-0.3768 -0.36236,-0.37798 -0.36157,-0.37894 -0.36079,-0.37986 -0.36,-0.3807 -0.35823,-0.3819 -0.35744,-0.38283 -0.35664,-0.38367 -0.35585,-0.3846 -0.35411,-0.3858 -0.35329,-0.38664 -0.35251,-0.38758 -0.3517,-0.38841 -0.34992,-0.38952 -0.34914,-0.39045 -0.34832,-0.39128 -0.34658,-0.39248 -0.34673,-0.39306 -0.34496,-0.39416 -0.34319,-0.39525 -0.34335,-0.39594 -0.34159,-0.39702 -0.34078,-0.39786 -0.33897,-0.39887 -0.33915,-0.39955 -0.33739,-0.40064 -0.33656,-0.40149 -0.33479,-0.40257 -0.33399,-0.40343 -0.33317,-0.40425 -0.33236,-0.4051 -0.33056,-0.4061 -0.32975,-0.40693 -0.32894,-0.40777 -0.32813,-0.40862 -0.32632,-0.40961 -0.32552,-0.41045 -0.32371,-0.41146 -0.3229,-0.41229 -0.3221,-0.41313 -0.32126,-0.41388 -0.31948,-0.41497 -0.31865,-0.41571 -0.3178,-0.41647 -0.317,-0.41728 -0.3152,-0.4183 -0.31339,-0.4193 -0.31355,-0.41987 -0.31173,-0.42079 -0.31091,-0.42162 -0.30911,-0.42262 -0.30926,-0.4232 -0.30743,-0.4241 -0.30565,-0.42512 -0.30482,-0.42594 -0.30396,-0.4266 -0.30313,-0.42732 -0.30132,-0.42834 -0.30049,-0.42907 -0.29965,-0.42981 -0.29783,-0.43073 -0.29701,-0.43157 -0.29519,-0.43245 -0.29529,-0.43286 -0.29351,-0.43396 -0.29166,-0.43476 -0.29085,-0.43559 -0.28999,-0.43625 -0.28912,-0.43688 -0.28732,-0.437894 -0.28649,-0.43864 -0.2856,-0.43918 -0.2838,-0.44019 -0.28295,-0.44092 -0.28114,-0.44183 -0.28024,-0.44238 -0.27941,-0.44312 -0.2776,-0.44413 -0.27672,-0.44466 -0.27588,-0.44542 -0.275,-0.44596 -0.27319,-0.44697 -0.27134,-0.44776 -0.2705,-0.44851 -0.26962,-0.44908 -0.26877,-0.44979 -0.26693,-0.45062 -0.26605,-0.45126 -0.26422,-0.45206 -0.26431,-0.45246 -0.0387,-0.0671 -46.47227,26.855424 0.39492,0.6806 0.78745,1.34082 0.79644,1.3357 0.80443,1.33077 0.8134,1.32557 0.82133,1.32044 0.83026,1.31514 0.83722,1.31016 0.84612,1.30479 0.855,1.29928 0.8619,1.29412 0.87076,1.28853 0.87861,1.28312 0.88646,1.2776 0.89523,1.27171 0.9021,1.26646 0.91088,1.26058 0.91863,1.25476 0.92643,1.24906 0.93415,1.24315 0.94192,1.23734 0.94965,1.23144 0.95735,1.22543 0.96504,1.21933 0.97285,1.21372 0.9804,1.20713 0.9878,1.19997 0.99571,1.19474 1.00337,1.18854 1.01006,1.18261 1.01745,1.17545 1.02511,1.16925 1.03277,1.16305 1.04015,1.1559 1.04686,1.14995 1.0545,1.14375 1.06069,1.1359 1.0693,1.12943 1.07502,1.12376 1.08338,1.11633 1.08885,1.1097 1.09722,1.10227 1.10267,1.09562 1.11131,1.08918 1.1165,1.08156 1.1239,1.0744 1.13155,1.06821 1.13677,1.06059 1.1439,1.05247 1.15059,1.04653 1.15772,1.0384 1.16319,1.03176 1.17058,1.0246 1.1758,1.01699 1.18319,1.00982 1.18936,1.00196 1.19553,0.99409 1.20196,0.98718 1.20717,0.97959 1.2143,0.97144 1.22074,0.96455 1.22569,0.95597 1.2321,0.94907 1.23829,0.94119 1.24323,0.93263 1.25063,0.92546 1.25487,0.91812 1.26174,0.90901 1.26694,0.90142 1.27216,0.8938 1.27833,0.88593 1.2845,0.87806 1.28945,0.86948 1.29438,0.86092 1.29959,0.85331 1.30577,0.84543 1.31072,0.83686 1.31566,0.82828 1.32183,0.82042 1.32582,0.8121 1.33076,0.80353 1.33692,0.79565 1.34162,0.78612 1.34586,0.77876 1.3508,0.77019 1.35672,0.76136 1.36069,0.75304 1.36442,0.74375 1.37058,0.73589 1.37457,0.72757 1.37926,0.71804 1.383243,0.70971 1.38818,0.70115 1.39313,0.69256 1.39588,0.68355 1.4018,0.6747 1.40481,0.66665 1.4095,0.65712 1.41322,0.64782 1.41816,0.63926 1.42092,0.63023 1.42588,0.62165 1.42958,0.61238 1.43261,0.60432 1.43703,0.59381 1.44101,0.58549 1.44377,0.57647 1.44871,0.5679 1.45122,0.55791 1.45493,0.54863 1.45794,0.54056 1.46142,0.53033 1.46539,0.52201 1.46788,0.51201 1.47186,0.5037 1.47436,0.49372 1.47809,0.48443 1.48084,0.47541 1.48333,0.46542 1.48636,0.45737 1.48981,0.44711 1.491598,0.43835 1.49506,0.4281 1.497819,0.41909 1.499611,0.41032 1.503069,0.40007 1.504611,0.39035 1.508578,0.38202 1.508884,0.37159 1.512607,0.36231 1.514401,0.35354 1.516634,0.3426 1.519391,0.33356 1.520214,0.32506 1.523677,0.31483 1.524243,0.30534 1.526736,0.29536 1.529236,0.28537 1.530056,0.27687 1.531588,0.26713 1.534086,0.25715 1.535356,0.24645 1.536729,0.23884 1.53829,0.22806 1.539627,0.2184 1.540965,0.20871 1.542203,0.19904 1.543545,0.18939 1.54459,0.17979 1.545828,0.17012 1.546881,0.16053 1.5475661,0.14999 1.548879,0.14136 1.549471,0.13084 1.550326,0.1213 1.551083,0.11177 1.551842,0.10225 1.55224399,0.0918 1.55290601,0.0823 1.5533709,0.0728 1.553681,0.0624 1.554404,0.0539 1.554355,0.0426 1.554795,0.0342 1.554903,0.0238 1.554922,0.0134 1.555263,0.005 1.554922,-0.006 1.555165,-0.0146 1.554893,-0.0249 1.554618,-0.0352 1.554506,-0.0444 1.554038,-0.0547 1.553734,-0.0639 1.553268,-0.0741 1.552964,-0.0834 1.552207,-0.0935 1.551803,-0.10279 1.55095,-0.11288 1.550196,-0.12302 1.549504,-0.13214 1.548455,-0.14223 1.547863,-0.15139 1.546362,-0.16238 1.545834,-0.17051 1.544433,-0.18152 1.543355,-0.19055 1.542116,-0.20059 1.540941,-0.20958 1.539507,-0.21955 1.538076,-0.22952 1.536448,-0.23944 1.535179,-0.24841 1.533454,-0.25831 1.531831,-0.26823 1.530173,-0.27709 1.528191,-0.28794 1.526437,-0.29681 1.524777,-0.30567 1.522516,-0.31646 1.520746,-0.3253 1.518549,-0.33508 1.516354,-0.34482 1.514369,-0.35361 1.511776,-0.36431 1.509686,-0.37307 1.507225,-0.38276 1.50503,-0.39149 1.502172,-0.40212 z m -221.85573,-80.04074 -0.53221,-1.6e-4 -0.51822,-0.11771 -0.47917,-0.23067 -0.41614,-0.33147 -0.33221,-0.41611 -0.23092,-0.47851 -0.11858,-0.51899 1.8e-4,-0.53123 0.11744,-0.51919 0.23068,-0.47918 0.33147,-0.41613 0.41637,-0.33124 0.4785,-0.23092 0.519,-0.11859 0.53097,-7.9e-4 0.51945,0.1184 0.47917,0.23068 0.41517,0.33173 0.33195,0.41514 0.23118,0.47946 0.11832,0.51804 -1.7e-4,0.5322 -0.1177,0.51822 -0.23068,0.47918 -0.33146,0.41613 -0.41515,0.33196 -0.47946,0.23118 z m 98.588284,57.08558 -0.526532,-0.0792 -0.495281,-0.19426 -0.4396,-0.29928 -0.36135,-0.38966 -0.266514,-0.46066 -0.156954,-0.50767 -0.03995,-0.53078 0.07949,-0.52557 0.194263,-0.49528 0.299281,-0.4396 0.389654,-0.36135 0.460663,-0.26652 0.507667,-0.15695 0.530789,-0.0399 0.525565,0.0794 0.49502,0.19329 0.4396,0.2993 0.362574,0.39035 0.26529,0.45996 0.157213,0.50863 0.03969,0.52983 -0.07827,0.52627 -0.19426,0.49527 -0.299283,0.43961 -0.390621,0.36161 -0.459697,0.26625 -0.508633,0.15722 z m 213.474986,-57.20981 -0.53123,-1.8e-4 -0.51916,-0.11743 -0.47919,-0.23068 -0.41614,-0.33147 -0.33126,-0.41637 -0.2309,-0.4785 -0.11858,-0.519 v -0.53098 l 0.1184,-0.51944 0.23066,-0.47917 0.33174,-0.41518 0.41515,-0.33195 0.47945,-0.23118 0.51803,-0.11832 0.53221,1.7e-4 0.51821,0.1177 0.47919,0.23068 0.41614,0.33145 0.33194,0.41516 0.2312,0.47946 0.11832,0.51803 -1.6e-4,0.53221 -0.11771,0.51822 -0.23067,0.47916 -0.33147,0.41615 -0.41611,0.33221 -0.4785,0.23092 z m -95.784163,69.40469 -0.511969,0.10944 -0.515673,0.0908 -0.518239,0.0738 -0.520727,0.0548 -0.522314,0.0367 -0.523266,0.0183 -0.523716,-2.5e-4 -0.52324,-0.018 -0.522182,-0.0359 -0.520832,-0.0549 -0.518345,-0.0721 -0.515858,-0.0914 -0.511996,-0.10798 -0.508106,-0.12662 -0.503449,-0.14445 -0.497945,-0.16144 -0.491993,-0.17858 -0.485511,-0.19585 -0.478525,-0.21325 -0.470588,-0.22884 -0.462357,-0.24555 -0.45371,-0.26236 -0.444169,-0.27735 -0.434147,-0.29246 -0.423733,-0.30769 -0.412678,-0.32204 -0.401236,-0.3365 -0.389146,-0.35009 -0.376865,-0.36375 -0.363582,-0.3756 -0.350623,-0.38942 -0.336601,-0.40044 -0.322447,-0.41252 -0.308033,-0.42363 -0.292884,-0.43391 -0.277727,-0.4442 -0.262028,-0.45359 -0.245967,-0.46203 -0.229717,-0.47054 -0.213108,-0.4781 -0.196406,-0.48569 -0.179184,-0.49135 -0.162028,-0.49803 -0.14461,-0.50372 -0.126776,-0.50748 -0.1091,-0.51223 -0.09091,-0.51504 -0.07317,-0.51877 -0.05491,-0.52056 -0.03674,-0.52233 -0.01841,-0.5231 -2.65e-4,-0.52383 0.01802,-0.52356 0.03627,-0.52225 0.05453,-0.52094 0.07258,-0.51853 0.09087,-0.51516 0.108527,-0.51266 0.126412,-0.50813 0.14436,-0.5026 0.161565,-0.49789 0.178837,-0.49218 0.195985,-0.48539 0.212741,-0.4785 0.229375,-0.47053 0.245621,-0.46247 0.261381,-0.45428 0.277279,-0.44404 0.292785,-0.43372 0.307448,-0.42419 0.322199,-0.41262 0.336471,-0.40091 0.350221,-0.38908 0.363455,-0.3771 0.376442,-0.36401 0.389136,-0.34982 0.400759,-0.33741 0.412599,-0.32195 0.423365,-0.30828 0.434054,-0.29251 0.443931,-0.27755 0.4532,-0.26245 0.462113,-0.24619 0.470456,-0.2298 0.478208,-0.21324 0.485589,-0.19555 0.491834,-0.17962 0.497973,-0.16161 0.502999,-0.14534 0.508185,-0.12603 0.511995,-0.10945 0.515673,-0.0908 0.51824,-0.0738 0.5207,-0.0548 0.522314,-0.0366 0.523292,-0.0183 0.523717,2.5e-4 0.52324,0.0179 0.522181,0.0359 0.520833,0.0549 0.518345,0.0721 0.515831,0.0914 0.512022,0.10798 0.508106,0.12662 0.503423,0.14445 0.497972,0.16144 0.491993,0.17859 0.48551,0.19585 0.478499,0.21324 0.470614,0.22885 0.462333,0.24554 0.453708,0.26236 0.444182,0.27735 0.434155,0.29247 0.42373,0.30768 0.412671,0.32204 0.40124,0.3365 0.38915,0.3501 0.376607,0.36278 0.363829,0.37656 0.350626,0.38942 0.336603,0.40044 0.322447,0.41252 0.308028,0.42363 0.292894,0.43392 0.277733,0.44419 0.262017,0.45359 0.245983,0.46204 0.229685,0.47053 0.213122,0.47811 0.1964,0.48568 0.179202,0.49136 0.162031,0.49802 0.14433,0.50277 0.127053,0.50844 0.109088,0.51223 0.09091,0.51504 0.07318,0.51877 0.0549,0.52055 0.03672,0.52233 0.01852,0.5231 2.38e-4,0.52383 -0.01799,0.52357 -0.0363,0.52225 -0.0545,0.52093 -0.0726,0.51853 -0.09088,0.51517 -0.108532,0.51265 -0.126656,0.50717 -0.144119,0.50356 -0.161554,0.49789 -0.178859,0.49218 -0.195976,0.48539 -0.212752,0.4785 -0.229367,0.47054 -0.245613,0.46247 -0.261382,0.45427 -0.277283,0.44406 -0.292788,0.43371 -0.307446,0.42419 -0.322183,0.41261 -0.336471,0.40092 -0.350228,0.38908 -0.363459,0.37709 -0.376449,0.36401 -0.389122,0.34983 -0.400765,0.33741 -0.412591,0.32195 -0.42336,0.30828 -0.434075,0.2925 -0.443918,0.27755 -0.453205,0.26245 -0.462121,0.24619 -0.470456,0.2298 -0.478208,0.21324 -0.485589,0.19555 -0.491808,0.17962 -0.497999,0.16161 -0.503264,0.14438 z"
     id="path4-6"
     inkscape:connector-curvature="0"
     style="fill:#d3d3d3;stroke:#000000;stroke-width:0.5" />
</svg>
