<?xml version="1.0" encoding="UTF-8" standalone="no"?>
<svg
   xmlns:dc="http://purl.org/dc/elements/1.1/"
   xmlns:cc="http://creativecommons.org/ns#"
   xmlns:rdf="http://www.w3.org/1999/02/22-rdf-syntax-ns#"
   xmlns:svg="http://www.w3.org/2000/svg"
   xmlns="http://www.w3.org/2000/svg"
   xmlns:sodipodi="http://sodipodi.sourceforge.net/DTD/sodipodi-0.dtd"
   xmlns:inkscape="http://www.inkscape.org/namespaces/inkscape"
   width="20in"
   height="16in"
   viewBox="-240 51 507.99999 406.39999"
   version="1.1"
   id="svg6"
   sodipodi:docname="beltguard_final.svg"
   inkscape:version="0.92.5 (2060ec1f9f, 2020-04-08)">
  <metadata
     id="metadata12">
    <rdf:RDF>
      <cc:Work
         rdf:about="">
        <dc:format>image/svg+xml</dc:format>
        <dc:type
           rdf:resource="http://purl.org/dc/dcmitype/StillImage" />
        <dc:title>OpenSCAD Model</dc:title>
      </cc:Work>
    </rdf:RDF>
  </metadata>
  <defs
     id="defs10" />
  <sodipodi:namedview
     pagecolor="#ffffff"
     bordercolor="#666666"
     borderopacity="1"
     objecttolerance="10"
     gridtolerance="10"
     guidetolerance="10"
     inkscape:pageopacity="0"
     inkscape:pageshadow="2"
     inkscape:window-width="1920"
     inkscape:window-height="1009"
     id="namedview8"
     showgrid="false"
     units="in"
     inkscape:zoom="0.34427711"
     inkscape:cx="385.9776"
     inkscape:cy="878.49347"
     inkscape:window-x="1920"
     inkscape:window-y="0"
     inkscape:window-maximized="1"
     inkscape:current-layer="svg6" />
  <title
     id="title2">OpenSCAD Model</title>
  <path
     d="m 81.092296,417.68124 1.496395,-0.42315 1.493921,-0.4318 1.490857,-0.44238 1.488239,-0.45099 1.485339,-0.46056 1.482286,-0.4701 1.479551,-0.47868 1.476459,-0.4882 1.473366,-0.49773 1.470082,-0.50719 1.466699,-0.51665 1.463772,-0.52517 1.460288,-0.53459 1.45682,-0.54401 1.4536,-0.55247 1.45002,-0.56185 1.44636,-0.57123 1.44267,-0.58059 1.43927,-0.58899 1.43541,-0.5983 1.43144,-0.6076 1.42784,-0.61594 1.42388,-0.62523 1.41982,-0.63449 1.41603,-0.64279 1.41177,-0.652 1.40762,-0.66124 1.40354,-0.66945 1.39918,-0.67864 1.3952,-0.68688 1.39056,-0.69599 1.38638,-0.70418 1.38157,-0.71427 1.37747,-0.72145 1.37272,-0.73053 1.3681,-0.73964 1.36342,-0.7477 1.3586,-0.75675 1.35403,-0.76484 1.349,-0.77384 1.34415,-0.78185 1.33938,-0.78989 1.33426,-0.79886 1.32931,-0.80684 1.3241,-0.8158 1.31894,-0.82372 1.31364,-0.83265 1.30865,-0.83959 1.30324,-0.84848 1.29773,-0.85736 1.29256,-0.86424 1.28695,-0.87309 1.28153,-0.88094 1.27598,-0.88877 1.27009,-0.89753 1.26482,-0.9044 1.25893,-0.91316 1.2531,-0.92091 1.24738,-0.92869 1.24145,-0.93641 1.23563,-0.94415 1.22971,-0.95188 1.2237,-0.95958 1.21758,-0.96724 1.21195,-0.97505 1.20535,-0.98259 1.19818,-0.98997 1.19294,-0.99788 1.18672,-1.00552 1.18077,-1.0122 1.1736,-1.01958 1.16739,-1.02723 1.16118,-1.03487 1.15401,-1.04225 1.14805,-1.04894 1.14185,-1.05657 1.13396,-1.06274 1.1275,-1.07134 1.1218,-1.07706 1.11437,-1.08541 1.10772,-1.09086 1.10028,-1.09921 1.09363,-1.10466 1.08715,-1.11327 1.07954,-1.11847 1.07236,-1.12584 1.06616,-1.13349 1.05853,-1.13868 1.05039,-1.14581 1.04444,-1.15248 1.03631,-1.15961 1.02965,-1.16506 1.02247,-1.17244 1.01486,-1.17764 1.00768,-1.18501 0.9998,-1.19118 0.99192,-1.19733 0.985,-1.20375 0.97739,-1.20894 0.96925,-1.21606 0.96233,-1.22249 0.95375,-1.22741 0.94683,-1.23383 0.93895,-1.23999 0.93037,-1.24492 0.9232,-1.2523 0.91583,-1.25653 0.90673,-1.26339 0.89912,-1.26858 0.89149,-1.27377 0.88361,-1.27993 0.87573,-1.28609 0.86715,-1.29102 0.85857,-1.29595 0.85095,-1.30114 0.84306,-1.30729 0.83448,-1.31223 0.8259,-1.31716 0.81802,-1.32332 0.8097,-1.32728 0.80111,-1.33221 0.79323,-1.33837 0.78368,-1.34304 0.39287,-0.68112 -44.37411,-25.48958 -0.0387,0.0674 -0.26185,0.45303 -0.26378,0.45355 -0.26431,0.45162 -0.2665,0.45118 -0.26676,0.45021 -0.26868,0.45073 -0.26922,0.4488 -0.27043,0.4481 -0.27263,0.44766 -0.27263,0.44765 -0.27412,0.44599 -0.27534,0.44528 -0.27657,0.44457 -0.27753,0.44484 -0.27902,0.44317 -0.28025,0.44246 -0.28148,0.44176 -0.2827,0.44105 -0.28392,0.44035 -0.28516,0.43964 -0.28541,0.43868 -0.28761,0.43824 -0.28786,0.43727 -0.29032,0.43586 -0.29032,0.43587 -0.29251,0.43541 -0.29304,0.43349 -0.29399,0.43375 -0.29549,0.43208 -0.29645,0.43234 -0.29794,0.43067 -0.29794,0.43067 -0.30039,0.42926 -0.30065,0.4283 -0.30284,0.42785 -0.30311,0.42689 -0.30433,0.42618 -0.30555,0.42548 -0.30679,0.42477 -0.30827,0.42311 -0.30923,0.42336 -0.31046,0.42266 -0.31099,0.42074 -0.31221,0.42002 -0.31344,0.41932 -0.31536,0.41985 -0.31493,0.41765 -0.31737,0.41624 -0.31834,0.4165 -0.31861,0.41554 -0.32079,0.4151 -0.32132,0.41316 -0.32254,0.41246 -0.32351,0.41272 -0.32403,0.41079 -0.32622,0.41035 -0.32648,0.40938 -0.32797,0.40771 -0.32894,0.40798 -0.33042,0.4063 -0.33139,0.40656 -0.33191,0.40464 -0.33313,0.40393 -0.33436,0.40322 -0.33559,0.40252 -0.33708,0.40085 -0.33707,0.40085 -0.33857,0.39918 -0.33979,0.39848 -0.34101,0.39777 -0.34224,0.39707 -0.34251,0.3961 -0.34399,0.39443 -0.34495,0.39469 -0.34645,0.39303 -0.3467,0.39205 -0.3489,0.39162 -0.34915,0.39065 -0.34968,0.38872 -0.35161,0.38924 -0.35213,0.38731 -0.35336,0.3866 -0.35458,0.3859 -0.35607,0.38424 -0.35607,0.38423 -0.35756,0.38256 -0.35878,0.38185 -0.35905,0.3809 -0.36027,0.38018 -0.36176,0.37852 -0.36272,0.37878 -0.36325,0.37685 -0.36447,0.37614 -0.36606,0.3745 -0.36645,0.37461 -0.36773,0.37288 -0.36858,0.37207 -0.36951,0.37129 -0.37045,0.37051 -0.37165,0.36876 -0.37232,0.36894 -0.37352,0.3672 -0.37446,0.36641 -0.37566,0.36466 -0.37649,0.36386 -0.37717,0.36404 -0.37837,0.36229 -0.37947,0.36051 -0.38025,0.36073 -0.38124,0.35892 -0.38228,0.35817 -0.38303,0.35733 -0.38432,0.35561 -0.38489,0.35577 -0.386,0.35399 -0.38694,0.35321 -0.38803,0.35144 -0.38888,0.35063 -0.38955,0.35081 -0.39092,0.34807 -0.39149,0.34823 -0.39269,0.34647 -0.39353,0.34568 -0.39437,0.34486 -0.39512,0.34402 -0.39641,0.34231 -0.39715,0.34147 -0.39799,0.34066 -0.3991,0.33889 -0.39967,0.33904 -0.40077,0.33727 -0.40188,0.3355 -0.40236,0.33562 -0.40355,0.33388 -0.4043,0.33304 -0.40514,0.33224 -0.40624,0.33046 -0.40699,0.32962 -0.40782,0.32882 -0.40893,0.32704 -0.40941,0.32718 -0.41051,0.3254 -0.41151,0.32359 -0.41209,0.32376 -0.4131,0.32195 -0.41394,0.32115 -0.41494,0.31935 -0.41569,0.31851 -0.41643,0.31767 -0.41727,0.31687 -0.41827,0.31507 -0.41912,0.31426 -0.41976,0.31339 -0.42051,0.31257 -0.4216,0.31078 -0.42235,0.30996 -0.42326,0.30812 -0.4241,0.30732 -0.42484,0.30649 -0.42549,0.30562 -0.42659,0.30385 -0.42724,0.30299 -0.42798,0.30215 -0.42899,0.30035 -0.42946,0.30048 -0.43064,0.29769 -0.43112,0.29783 -0.43213,0.29602 -0.43277,0.29516 -0.43377,0.29336 -0.43443,0.2925 -0.43516,0.29166 -0.43582,0.29081 -0.43682,0.289 -0.43746,0.28814 -0.43838,0.28632 -0.43911,0.28548 -0.43977,0.28462 -0.44051,0.28378 -0.44132,0.28194 -0.44206,0.28109 -0.44297,0.27927 -0.44336,0.27938 -0.44453,0.27659 -0.44491,0.27668 -0.44582,0.27487 -0.44647,0.274 -0.44737,0.27217 -0.44776,0.27228 -0.44884,0.26946 -0.44932,0.2696 -0.45012,0.26774 -0.45078,0.26687 -0.45168,0.26506 -0.45224,0.26416 -0.45288,0.26331 -0.45353,0.26244 -0.45434,0.26059 -0.45525,0.25877 -0.45553,0.25884 -0.45645,0.25702 -0.45726,0.25516 -0.45781,0.25428 -0.45845,0.25341 -0.45901,0.25253 -0.45991,0.2507 -0.46046,0.24982 -0.46128,0.24796 -0.46183,0.24708 -0.46237,0.24619 -0.46293,0.2453 -0.46383,0.24348 -0.46455,0.24159 -0.46484,0.24168 -0.46575,0.23985 -0.46646,0.23797 -0.46702,0.23708 -0.46756,0.2362 -0.46812,0.23531 -0.46883,0.23343 -0.46974,0.23161 -0.46993,0.23165 -0.47064,0.22978 -0.471556,0.22795 -0.47165,0.22798 -0.472819,0.22519 -0.473012,0.22524 -0.473728,0.22336 -0.474278,0.22247 -0.474993,0.2206 -0.475543,0.2197 -0.475901,0.21877 -0.476809,0.21694 -0.477166,0.21601 -0.477978,0.21415 -0.478432,0.21323 -0.478886,0.21233 -0.479601,0.21044 -0.480055,0.20954 -0.480509,0.20861 -0.481224,0.20674 -0.481775,0.20586 -0.482393,0.20395 -0.482847,0.20303 -0.483204,0.2021 -0.484016,0.20024 -0.484471,0.19933 -0.485088,0.19743 -0.485543,0.19651 -0.4859,0.19558 -0.486615,0.19369 -0.487069,0.19279 -0.487426,0.19184 -0.488142,0.18996 -0.488499,0.18903 -0.489214,0.18715 -0.489571,0.1862 -0.490026,0.1853 -0.490643,0.18339 -0.491002,0.18245 -0.49162,0.18054 -0.492074,0.17964 -0.492431,0.17869 -0.492953,0.17676 -0.493504,0.17588 -0.494026,0.17394 -0.494383,0.17301 -0.494741,0.17207 -0.495359,0.17016 -0.495717,0.16922 -0.496335,0.16732 -0.496431,0.16734 -0.497215,0.16445 -0.497407,0.1645 -0.498171,0.1616 -0.498258,0.16162 -0.498848,0.15971 -0.499186,0.15877 -0.499746,0.15684 -0.500065,0.1559 -0.500635,0.15398 -0.500674,0.15398 -0.501505,0.15111 -0.501553,0.15112 -0.502375,0.14823 -0.502394,0.14824 -0.502935,0.14631 -0.503235,0.14536 -0.503766,0.14343 -0.504066,0.14247 -0.504318,0.14151 -0.504857,0.13958 -0.505132,0.13862 -0.505626,0.13668 -0.505915,0.13572 -0.506425,0.13379 -0.506424,0.13379 -0.507188,0.13089 -0.507178,0.13089 -0.507681,0.12894 -0.508174,0.12702 -0.508405,0.12603 -0.508647,0.12507 -0.50887,0.12409 -0.509363,0.12215 -0.509836,0.12021 -0.510058,0.11924 -0.510262,0.11825 -0.510474,0.11727 -0.510948,0.11533 -0.511402,0.11338 -0.511606,0.1124 -0.511818,0.11142 -0.512021,0.11044 -0.512446,0.10849 -0.512872,0.10653 -0.513036,0.10553 -0.513297,0.10457 -0.513365,0.10355 -0.513887,0.10163 -0.514216,0.0996 -0.514215,0.0996 -0.514902,0.0967 -0.514709,0.0967 -0.515135,0.0947 -0.515395,0.0937 -0.515724,0.0918 -0.515792,0.0907 -0.516314,0.0888 -0.516121,0.0888 -0.516807,0.0858 -0.516614,0.0858 -0.517301,0.0829 -0.517204,0.0828 -0.517533,0.0808 -0.517696,0.0799 -0.51793,0.0779 -0.51819,0.0769 -0.518259,0.0759 -0.518587,0.0739 -0.518655,0.0729 -0.518723,0.0719 -0.519148,0.0699 -0.519477,0.0679 -0.519284,0.0679 -0.519874,0.0649 -0.519681,0.0649 -0.520106,0.0629 -0.520078,0.0619 -0.520406,0.0599 -0.520474,0.0589 -0.520542,0.0578 -0.520871,0.0559 -0.520843,0.0548 -0.521267,0.0529 -0.520978,0.0528 -0.521568,0.0498 -0.521278,0.0498 -0.521608,0.0478 -0.521935,0.0458 -0.521908,0.0447 -0.521878,0.0437 -0.521947,0.0427 -0.522275,0.0407 -0.522508,0.0387 -0.522218,0.0386 -0.522547,0.0366 -0.522779,0.0346 -0.52249,0.0345 -0.522982,0.0316 -0.52279,0.0315 -0.523022,0.0295 -0.522897,0.0284 -0.523226,0.0265 -0.523197,0.0254 -0.523168,0.0244 -0.523401,0.0224 -0.523372,0.0213 -0.523247,0.0202 -0.523576,0.0183 -0.52345,0.0172 -0.523683,0.0152 -0.523654,0.0141 -0.523626,0.0131 -0.523761,0.0111 -0.523472,0.011 -0.523868,0.008 -0.523579,0.008 -0.523811,0.006 -0.523948,0.004 -0.523822,0.003 -0.523793,0.002 -0.523668,6.8e-4 -0.5239,-0.001 -0.523775,-0.002 -0.52365,-0.003 -0.523785,-0.005 -0.523757,-0.007 -0.523796,-0.009 -0.523768,-0.01 -0.523642,-0.0107 -0.5235174,-0.0118 -0.523653,-0.0138 -0.523528,-0.0149 -0.523663,-0.0169 -0.523539,-0.018 -0.523413,-0.0191 -0.523288,-0.0202 -0.523327,-0.0222 -0.523463,-0.0242 -0.523076,-0.0244 -0.523213,-0.0264 -0.522991,-0.0275 -0.523126,-0.0295 -0.522644,-0.0296 -0.523137,-0.0326 -0.522558,-0.0328 -0.522694,-0.0348 -0.52256899,-0.0359 -0.522607,-0.0379 -0.522126,-0.0381 -0.52226,-0.0401 -0.52230001,-0.0422 -0.522079,-0.0433 -0.521856,-0.0444 -0.521732,-0.0454 -0.521771,-0.0475 -0.5215486,-0.0486 -0.521327,-0.0497 -0.521105,-0.0508 -0.521242,-0.0528 -0.521184,-0.0549 -0.520701,-0.055 -0.520741,-0.0571 -0.520518,-0.0582 -0.5202965,-0.0593 -0.52024,-0.0614 -0.520115,-0.0624 -0.519796,-0.0636 -0.5198355,-0.0656 -0.519614,-0.0667 -0.519295,-0.0678 -0.519335,-0.0699 -0.518756,-0.0701 -0.518795,-0.0721 -0.518834,-0.0742 -0.518255,-0.0743 -0.518197,-0.0764 -0.517976,-0.0775 -0.517919,-0.0796 -0.517436,-0.0797 -0.517378,-0.0818 -0.517321,-0.0839 -0.516742,-0.0841 -0.516782,-0.0861 -0.516366,-0.0873 -0.516406,-0.0893 -0.515827,-0.0895 -0.515769,-0.0916 -0.515547,-0.0927 -0.515394,-0.0948 -0.514814,-0.0949 -0.514758,-0.097 -0.514699,-0.0991 -0.514025,-0.0993 -0.514063,-0.10137 -0.513648,-0.10251 -0.513427,-0.10361 -0.513012,-0.10476 -0.512858,-0.10687 -0.51254,-0.10799 -0.512222,-0.10911 -0.512165,-0.1112 -0.511488,-0.11139 -0.511431,-0.11347 -0.511017,-0.11462 -0.510863,-0.11673 -0.510283,-0.11689 -0.510226,-0.11898 -0.509812,-0.12012 -0.509657,-0.12224 -0.508982,-0.12242 -0.508925,-0.12451 -0.508509,-0.12566 -0.508095,-0.1268 -0.507941,-0.12892 -0.507362,-0.12907 -0.507208,-0.13119 -0.506697,-0.13236 -0.506639,-0.13445 -0.505964,-0.13463 -0.505713,-0.13677 -0.505395,-0.1379 -0.504981,-0.13904 -0.504662,-0.14016 -0.504604,-0.14225 -0.50364,-0.14251 -0.503196,-0.14471 -0.502491,-0.14592 -0.503014,-0.14786 -0.502048,-0.14812 -0.50257,-0.15006 -0.5009,-0.15153 -0.501161,-0.15251 -0.500457,-0.15373 -0.500978,-0.15566 -0.499048,-0.15618 -0.49957,-0.15812 -0.499834,-0.15908 -0.49816,-0.16056 -0.49842,-0.16153 -0.49701,-0.16399 -0.49798,-0.16372 -0.49657,-0.16618 -0.49587,-0.1674 -0.49612,-0.16837 -0.49569,-0.17056 -0.49471,-0.17082 -0.49524,-0.17275 -0.49331,-0.17327 -0.49383,-0.1752 -0.49313,-0.17643 -0.49268,-0.17863 -0.49268,-0.17862 -0.49198,-0.17984 -0.49057,-0.1823 -0.49083,-0.18327 -0.4911,-0.18423 -0.48942,-0.18572 -0.48968,-0.18668 -0.48801,-0.18817 -0.48854,-0.19011 -0.48757,-0.19036 -0.48712,-0.19255 -0.48739,-0.19352 -0.48572,-0.19501 -0.48598,-0.19597 -0.48527,-0.1972 -0.48457,-0.19842 -0.48386,-0.19966 -0.48439,-0.20158 -0.48246,-0.2021 -0.48298,-0.20404 -0.4813,-0.20552 -0.48157,-0.20648 -0.48087,-0.20772 -0.48112,-0.20868 -0.47946,-0.21016 -0.47875,-0.21139 -0.47902,-0.21236 -0.4776,-0.21481 -0.4776,-0.21481 -0.47716,-0.217 -0.4762,-0.21727 -0.47575,-0.21945 -0.47505,-0.22068 -0.47434,-0.22191 -0.47461,-0.22287 -0.47293,-0.22436 -0.47319,-0.22533 -0.4725,-0.22655 -0.47082,-0.22804 -0.47108,-0.229 -0.47038,-0.23023 -0.46993,-0.23242 -0.46897,-0.23269 -0.46852,-0.23487 -0.46756,-0.23514 -0.46782,-0.2361 -0.46642,-0.23855 -0.4657,-0.23978 -0.46571,-0.23978 -0.4643,-0.24223 -0.4643,-0.24224 -0.46289,-0.24468 -0.46315,-0.24565 -0.46245,-0.24688 -0.46051,-0.2474 -0.46104,-0.24933 -0.46034,-0.25055 -0.45962,-0.25178 -0.45867,-0.25205 -0.45822,-0.25423 -0.45751,-0.25546 -0.45585,-0.25695 -0.45585,-0.25695 -0.4554,-0.25914 -0.4547,-0.26036 -0.45399,-0.26159 -0.45303,-0.26186 -0.45258,-0.26404 -0.45285,-0.26501 -0.45118,-0.2665 -0.45021,-0.26676 -0.44977,-0.26895 -0.4488,-0.26921 -0.44836,-0.2714 -0.44765,-0.27263 -0.44669,-0.27289 -0.44598,-0.27412 -0.44555,-0.27631 -0.44361,-0.27683 -0.44413,-0.27876 -0.44317,-0.27902 -0.44246,-0.28025 -0.44176,-0.28147 -0.44105,-0.2827 -0.43938,-0.28419 -0.43965,-0.28515 -0.43894,-0.28638 -0.43727,-0.28787 -0.437526,-0.28883 -0.43657,-0.28909 -0.43516,-0.29155 -0.43419,-0.29181 -0.43471,-0.29373 -0.43279,-0.29426 -0.43208,-0.29549 -0.4326,-0.29741 -0.43067,-0.29794 -0.429963,-0.29917 -0.429,-0.29942 -0.42856,-0.30162 -0.42689,-0.3031 -0.42689,-0.30311 -0.42644,-0.30529 -0.424506,-0.30582 -0.42478,-0.30678 -0.4231,-0.30827 -0.42337,-0.30924 -0.42169,-0.31072 -0.42099,-0.31195 -0.42003,-0.31221 -0.41958,-0.3144 -0.41862,-0.31467 -0.41791,-0.31589 -0.41624,-0.31737 -0.41651,-0.31834 -0.41483,-0.31983 -0.41484,-0.31983 -0.41316,-0.32132 -0.41272,-0.32351 -0.41176,-0.32376 -0.41079,-0.32403 -0.40938,-0.32649 -0.40964,-0.32744 -0.40771,-0.32797 -0.40798,-0.32894 -0.4063,-0.33042 -0.4056,-0.33165 -0.40489,-0.33288 -0.40297,-0.33339 -0.40322,-0.33436 -0.40252,-0.33559 -0.40085,-0.33708 -0.40015,-0.3383 -0.39918,-0.33856 -0.39847,-0.33979 -0.39777,-0.34102 -0.39611,-0.3425 -0.39636,-0.34347 -0.39443,-0.34399 -0.39373,-0.34522 -0.39302,-0.34644 -0.39232,-0.34767 -0.39039,-0.34819 -0.39091,-0.35012 -0.38872,-0.34968 -0.38827,-0.35187 -0.38757,-0.3531 -0.38661,-0.35335 -0.38494,-0.35485 -0.38519,-0.35581 -0.38327,-0.35633 -0.38256,-0.35756 -0.38186,-0.35878 -0.38018,-0.36027 -0.38019,-0.36027 -0.37852,-0.36176 -0.37781,-0.36299 -0.37711,-0.36421 -0.37518,-0.36473 -0.37541,-0.36561 -0.37369,-0.36689 -0.37291,-0.36783 -0.37213,-0.36877 -0.37134,-0.36971 -0.36959,-0.3709 -0.36882,-0.37185 -0.36803,-0.37277 -0.36722,-0.37362 -0.3655,-0.37491 -0.36565,-0.37549 -0.36391,-0.37669 -0.36312,-0.37763 -0.36135,-0.37872 -0.36156,-0.3795 -0.35976,-0.38051 -0.359,-0.38153 -0.35723,-0.38264 -0.35739,-0.38322 -0.35564,-0.38441 -0.35485,-0.38535 -0.35404,-0.3862 -0.35228,-0.38729 -0.35245,-0.38797 -0.35068,-0.38907 -0.34891,-0.39017 -0.34908,-0.39084 -0.34732,-0.39195 -0.3465,-0.39279 -0.3457,-0.39363 -0.34392,-0.39472 -0.34411,-0.39541 -0.3423,-0.39641 -0.34056,-0.3976 -0.34071,-0.39819 -0.33892,-0.39919 -0.33813,-0.40013 -0.33729,-0.40087 -0.33553,-0.40197 -0.33471,-0.40281 -0.3339,-0.40366 -0.3331,-0.40449 -0.33129,-0.4055 -0.33052,-0.40643 -0.32965,-0.40708 -0.3279,-0.40828 -0.32803,-0.40876 -0.32626,-0.40986 -0.32446,-0.41087 -0.32459,-0.41135 -0.32282,-0.41245 -0.32104,-0.41355 -0.32117,-0.41404 -0.31938,-0.41504 -0.31856,-0.41588 -0.3177,-0.41652 -0.31595,-0.41773 -0.3151,-0.41837 -0.31428,-0.41921 -0.31246,-0.42012 -0.31165,-0.42096 -0.31081,-0.4217 -0.30998,-0.42245 -0.30818,-0.42345 -0.30735,-0.4242 -0.30554,-0.42519 -0.30568,-0.42569 -0.30385,-0.42659 -0.30207,-0.42769 -0.30218,-0.42808 -0.30038,-0.42908 -0.29954,-0.42982 -0.29772,-0.43074 -0.29688,-0.43148 -0.29605,-0.43222 -0.29425,-0.43322 -0.29435,-0.43361 -0.29156,-0.43479 -0.29169,-0.43526 -0.28986,-0.43617 -0.28903,-0.43692 -0.2872,-0.43782 -0.28734,-0.43831 -0.28454,-0.43947 -0.28465,-0.43986 -0.28281,-0.44077 -0.28199,-0.44151 -0.28112,-0.44216 -0.2793,-0.44307 -0.27841,-0.44362 -0.27664,-0.44472 -0.27575,-0.44527 -0.27489,-0.44592 -0.27402,-0.44656 -0.27218,-0.44738 -0.27134,-0.44812 -0.26951,-0.44902 -0.26863,-0.44958 -0.26779,-0.45032 -0.26691,-0.45088 -0.26505,-0.45168 -0.23622,-0.40634 -44.26202,25.68501 0.39615,0.67988 0.78988,1.33939 0.79886,1.33426 0.80685,1.32931 0.81579,1.32409 0.82373,1.31895 0.83265,1.31363 0.83958,1.30865 0.84849,1.30324 0.85735,1.29774 0.86425,1.29255 0.87308,1.28696 0.88094,1.28152 0.88877,1.27598 0.89754,1.27009 0.90439,1.26482 0.91316,1.25893 0.92092,1.2531 0.92868,1.24738 0.93641,1.24145 0.94416,1.23563 0.95188,1.22972 0.95957,1.22369 0.96725,1.21758 0.97505,1.21195 0.98258,1.20535 0.98997,1.19818 0.99788,1.19294 1.00552,1.18672 1.0122,1.18078 1.01958,1.1736 1.02723,1.16739 1.03487,1.16117 1.04226,1.15401 1.04893,1.14805 1.05658,1.14185 1.06273,1.13396 1.07135,1.1275 1.07706,1.12181 1.0854,1.11437 1.09086,1.10771 1.09921,1.10028 1.10466,1.09363 1.11328,1.08716 1.11846,1.07953 1.12585,1.07236 1.13349,1.06616 1.13868,1.05853 1.1458,1.05039 1.15249,1.04445 1.1596,1.0363 1.16506,1.02965 1.17244,1.02247 1.17764,1.01486 1.18502,1.00768 1.19117,0.9998 1.19733,0.99192 1.20375,0.985 1.20894,0.97739 1.21607,0.96925 1.22248,0.96233 1.22741,0.95375 1.23383,0.94683 1.23999,0.93895 1.24492,0.93037 1.2523,0.9232 1.25653,0.91583 1.26339,0.90673 1.26858,0.89912 1.27377,0.89149 1.27993,0.88361 1.28609,0.87574 1.29102,0.86714 1.29595,0.85857 1.30114,0.85095 1.3073,0.84306 1.31223,0.83449 1.31716,0.82589 1.32331,0.81802 1.32728,0.8097 1.33222,0.80111 1.33837,0.79323 1.34304,0.78368 1.34726,0.77633 1.3522,0.76774 1.35809,0.75889 1.36206,0.75057 1.36576,0.74129 1.37192,0.7334 1.37589,0.72508 1.380546,0.71553 1.384523,0.70721 1.38946,0.69862 1.39438,0.69004 1.397116,0.68101 1.40302,0.67217 1.40601,0.6641 1.41069,0.65456 1.41439,0.64527 1.41933,0.63668 1.42206,0.62765 1.42699,0.61907 1.4307,0.60979 1.43369,0.60172 1.43811,0.5912 1.44207,0.58288 1.44481,0.57386 1.44974,0.56527 1.45222,0.55527 1.45593,0.54599 1.45892,0.53793 1.46237,0.52767 1.46633,0.51935 1.46881,0.50936 1.47278,0.50103 1.47525,0.49104 1.47896,0.48175 1.4817,0.47273 1.48418,0.46273 1.48717,0.45467 1.49062,0.44441 1.4924,0.43565 1.49584,0.4254 1.49857,0.41636 1.50035,0.4076 1.5038,0.39735 1.5053,0.38761 1.509275,0.3793 1.509558,0.36885 1.513263,0.35957 1.515037,0.3508 1.517254,0.33984 1.519993,0.33081 1.520802,0.32231 1.524245,0.31205 1.524792,0.30259 1.527271,0.29259 1.529749,0.2826 1.530557,0.27409 1.53207,0.26436 1.534549,0.25437 1.5358,0.24366 1.537159,0.23606 1.538701,0.22527 1.54002,0.2156 1.54134,0.20591 1.542563,0.19626 1.543883,0.18659 1.544914,0.17698 1.546136,0.16733 1.5471665,0.15772 1.547839,0.14719 1.5491295,0.13854 1.549707,0.12804 1.5505426,0.11848 1.551284,0.10896 1.55202501,0.0994 1.55240699,0.089 1.553052,0.0795 1.553503,0.07 1.553789,0.0596 1.554501,0.0511 1.55443,0.0397 1.5548524,0.0313 1.554946,0.021 1.554942,0.0106 1.555269,0.002 1.554908,-0.009 1.555137,-0.0174 1.554845,-0.0277 1.554551,-0.038 1.554424,-0.0473 1.553937,-0.0575 1.553616,-0.0667 1.553131,-0.077 1.552809,-0.0862 1.552034,-0.0963 1.551615,-0.10555 1.550744,-0.11568 1.549969,-0.12583 1.549261,-0.13497 1.548196,-0.14503 1.547585,-0.15419 1.546066,-0.16518 1.545523,-0.17331 1.544101,-0.18433 1.543007,-0.19335 1.541748,-0.20337 1.540559,-0.21238 1.539108,-0.22234 1.537656,-0.2323 1.536013,-0.24223 1.534725,-0.25119 1.532985,-0.26109 1.531341,-0.271 1.529668,-0.27987 1.527666,-0.29072 1.525897,-0.29957 1.524224,-0.30844 1.521933,-0.31921 1.520163,-0.32806 1.51794,-0.33782 1.515717,-0.34758 1.513725,-0.35636 1.511125,-0.36705 1.508998,-0.3758 1.506534,-0.38549 1.50432,-0.39422 1.501436,-0.40483 z m -222.000446,-79.63846 -0.5322,9.1e-4 -0.51843,-0.11676 -0.47959,-0.22981 -0.41674,-0.33071 -0.33297,-0.41551 -0.23178,-0.47808 -0.11952,-0.51878 -6.5e-4,-0.53124 0.11649,-0.5194 0.22982,-0.47958 0.3307,-0.41674 0.41577,-0.332 0.47808,-0.23179 0.51879,-0.11952 0.53097,-0.002 0.51966,0.11747 0.47959,0.22981 0.41577,0.33097 0.33271,0.41454 0.23205,0.47905 0.11926,0.51782 9.1e-4,0.5322 -0.11676,0.51843 -0.22981,0.47959 -0.33071,0.41674 -0.41454,0.3327 -0.47905,0.23205 z m 98.691592,56.90678 -0.526675,-0.0783 -0.495632,-0.19337 -0.440141,-0.29848 -0.362056,-0.389 -0.267348,-0.46018 -0.157874,-0.50738 -0.04091,-0.53072 0.07854,-0.5257 0.193363,-0.49564 0.298485,-0.44014 0.388999,-0.36205 0.460179,-0.26735 0.507382,-0.15788 0.530713,-0.0409 0.525709,0.0785 0.495371,0.1924 0.440142,0.29848 0.363281,0.38971 0.266123,0.45947 0.158134,0.50835 0.04065,0.52975 -0.07731,0.52641 -0.193363,0.49563 -0.298485,0.44014 -0.389964,0.36232 -0.459214,0.26709 -0.508347,0.15813 z m 213.370968,-57.59666 -0.53124,6.5e-4 -0.5194,-0.1165 -0.47958,-0.22981 -0.41674,-0.33071 -0.332,-0.41577 -0.23179,-0.47808 -0.11952,-0.51879 -0.002,-0.53097 0.11746,-0.51966 0.22982,-0.47959 0.33097,-0.41577 0.41454,-0.33271 0.47904,-0.23204 0.51782,-0.11926 0.53221,-9.2e-4 0.51843,0.11676 0.47959,0.22982 0.41674,0.3307 0.3327,0.41455 0.23205,0.47904 0.11926,0.51782 9.1e-4,0.5322 -0.11676,0.51844 -0.22981,0.47958 -0.33071,0.41674 -0.41551,0.33297 -0.47808,0.23179 z m -95.658221,69.57819 -0.511786,0.11038 -0.515512,0.0917 -0.518104,0.0748 -0.520611,0.0558 -0.522237,0.0376 -0.523257,0.0192 -0.523707,6.8e-4 -0.523277,-0.017 -0.52225,-0.0349 -0.520923,-0.0539 -0.518485,-0.0712 -0.51601,-0.0905 -0.512193,-0.10705 -0.508345,-0.1257 -0.503688,-0.14354 -0.498258,-0.16054 -0.492315,-0.17768 -0.485853,-0.19497 -0.478907,-0.21239 -0.471014,-0.22798 -0.462793,-0.24471 -0.454187,-0.26154 -0.444673,-0.27655 -0.434675,-0.29167 -0.424291,-0.30692 -0.413261,-0.32129 -0.401844,-0.33577 -0.389781,-0.34939 -0.377523,-0.36306 -0.364263,-0.37494 -0.351329,-0.38879 -0.337325,-0.39983 -0.323194,-0.41193 -0.308803,-0.42308 -0.293668,-0.43338 -0.278533,-0.44369 -0.262848,-0.45311 -0.246805,-0.46158 -0.230569,-0.47013 -0.213975,-0.47771 -0.197286,-0.48533 -0.180073,-0.49103 -0.16293,-0.49772 -0.145524,-0.50347 -0.127695,-0.50726 -0.110028,-0.51203 -0.09184,-0.51487 -0.07411,-0.51863 -0.05585,-0.52046 -0.03769,-0.52226 -0.01937,-0.52307 -0.0012,-0.52383 0.01706,-0.52359 0.03532,-0.52231 0.05359,-0.52104 0.07164,-0.51867 0.08994,-0.51532 0.107598,-0.51285 0.12549,-0.50836 0.143447,-0.50286 0.160663,-0.49819 0.177946,-0.4925 0.195103,-0.48574 0.211875,-0.47888 0.228522,-0.47095 0.244781,-0.46292 0.260559,-0.45475 0.276473,-0.44455 0.291999,-0.43424 0.306677,-0.42475 0.321452,-0.4132 0.335743,-0.40153 0.349514,-0.38971 0.362772,-0.37775 0.375781,-0.3647 0.3885,-0.35053 0.400147,-0.33813 0.412016,-0.3227 0.422805,-0.30904 0.433525,-0.29329 0.443425,-0.27836 0.452727,-0.26326 0.461672,-0.24704 0.470047,-0.23065 0.477814,-0.21411 0.485224,-0.19642 0.491504,-0.18052 0.497695,-0.1625 0.502735,-0.14626 0.507955,-0.12695 0.511786,-0.11038 0.515512,-0.0917 0.518104,-0.0748 0.52061,-0.0558 0.522238,-0.0376 0.523257,-0.0192 0.523706,-6.9e-4 0.523278,0.017 0.522249,0.0349 0.520923,0.0539 0.518486,0.0712 0.51601,0.0905 0.512192,0.10705 0.508346,0.1257 0.503688,0.14353 0.498257,0.16054 0.492316,0.17769 0.485853,0.19497 0.478906,0.21238 0.471014,0.22799 0.462794,0.24471 0.454187,0.26154 0.444672,0.27654 0.434675,0.29168 0.424292,0.30691 0.41326,0.32129 0.401845,0.33577 0.38978,0.3494 0.377263,0.36209 0.364523,0.3759 0.351329,0.3888 0.337325,0.39982 0.323194,0.41194 0.308803,0.42307 0.293668,0.43338 0.278533,0.44369 0.262848,0.45311 0.246805,0.46159 0.230569,0.47012 0.213975,0.47772 0.197286,0.48533 0.180074,0.49102 0.162929,0.49773 0.145264,0.50251 0.127955,0.50821 0.110028,0.51203 0.09184,0.51488 0.07411,0.51863 0.05585,0.52046 0.03769,0.52226 0.01937,0.52307 0.0012,0.52382 -0.01706,0.5236 -0.03532,0.52231 -0.05359,0.52104 -0.07163,0.51866 -0.08994,0.51533 -0.107599,0.51285 -0.12575,0.50739 -0.143187,0.50382 -0.160663,0.49819 -0.177945,0.4925 -0.195104,0.48575 -0.211875,0.47888 -0.228521,0.47095 -0.244781,0.46292 -0.26056,0.45475 -0.276472,0.44455 -0.292,0.43424 -0.306676,0.42475 -0.321452,0.4132 -0.335743,0.40152 -0.349514,0.38971 -0.362773,0.37776 -0.375781,0.3647 -0.3885,0.35052 -0.400146,0.33814 -0.412017,0.3227 -0.422804,0.30904 -0.433525,0.29329 -0.443426,0.27836 -0.452727,0.26326 -0.461671,0.24703 -0.470047,0.23066 -0.477814,0.2141 -0.485224,0.19643 -0.491504,0.18051 -0.497695,0.16251 -0.502996,0.14529 z"
     id="path4"
     inkscape:connector-curvature="0"
     style="fill:#d3d3d3;stroke:#000000;stroke-width:0.5" />
  <path
     d="m 82.99689,320.94806 1.496403,-0.42314 1.493917,-0.4318 1.490848,-0.44238 1.488255,-0.45099 1.485344,-0.46056 1.482275,-0.4701 1.47955,-0.47868 1.476455,-0.4882 1.473358,-0.49773 1.470105,-0.5072 1.466691,-0.51664 1.463779,-0.52517 1.46029,-0.53459 1.4568,-0.54401 1.45362,-0.55247 1.45002,-0.56186 1.44635,-0.57123 1.44266,-0.58058 1.43928,-0.589 1.43542,-0.5983 1.43142,-0.6076 1.42785,-0.61593 1.42389,-0.62523 1.4198,-0.6345 1.41603,-0.64278 1.41179,-0.652 1.40761,-0.66125 1.40353,-0.66944 1.3992,-0.67864 1.3952,-0.68688 1.39054,-0.69599 1.38639,-0.70418 1.38158,-0.71428 1.37747,-0.72145 1.37271,-0.73052 1.36811,-0.73964 1.3634,-0.74771 1.3586,-0.75674 1.35404,-0.76484 1.349,-0.77384 1.34414,-0.78185 1.3394,-0.78989 1.33424,-0.79887 1.32932,-0.80683 1.32411,-0.8158 1.31892,-0.82372 1.31365,-0.83265 1.30866,-0.83959 1.30323,-0.84848 1.29773,-0.85736 1.29257,-0.86425 1.28693,-0.87308 1.28154,-0.88094 1.27598,-0.88877 1.27008,-0.89753 1.26484,-0.90441 1.25891,-0.91315 1.25312,-0.92091 1.24738,-0.92869 1.24145,-0.93641 1.23563,-0.94415 1.22971,-0.95188 1.22369,-0.95958 1.21759,-0.96724 1.21195,-0.97505 1.20534,-0.98259 1.19819,-0.98997 1.19292,-0.99788 1.18674,-1.00552 1.18076,-1.01221 1.17361,-1.01958 1.16737,-1.02722 1.1612,-1.03487 1.15401,-1.04225 1.14805,-1.04894 1.14184,-1.05658 1.13395,-1.06273 1.12752,-1.07134 1.12178,-1.07706 1.11437,-1.08541 1.10773,-1.09086 1.10027,-1.09921 1.09363,-1.10466 1.08715,-1.11327 1.07955,-1.11847 1.07236,-1.12584 1.06616,-1.13349 1.05852,-1.13868 1.0504,-1.14581 1.04444,-1.15248 1.03632,-1.15961 1.02965,-1.16506 1.02246,-1.17244 1.01486,-1.17764 1.00769,-1.18501 0.99978,-1.19118 0.99192,-1.19733 0.985,-1.20375 0.97739,-1.20894 0.96925,-1.21606 0.96234,-1.22249 0.95375,-1.22741 0.94683,-1.23383 0.93896,-1.23999 0.93035,-1.24492 0.92321,-1.2523 0.91583,-1.25653 0.90673,-1.26339 0.89911,-1.26858 0.89151,-1.27377 0.8836,-1.27993 0.87572,-1.28609 0.86715,-1.29102 0.85857,-1.29595 0.85095,-1.30114 0.84307,-1.30729 0.83447,-1.31223 0.8259,-1.31716 0.81803,-1.32332 0.80971,-1.32728 0.8011,-1.33221 0.79322,-1.33837 0.7837,-1.34304 0.39285,-0.68112 -44.37411,-25.48958 -0.0387,0.0674 -0.26186,0.45303 -0.26379,0.45355 -0.26429,0.45162 -0.26652,0.45118 -0.26675,0.45021 -0.26869,0.45073 -0.26921,0.4488 -0.27043,0.4481 -0.27263,0.44766 -0.27262,0.44765 -0.27414,0.44599 -0.27532,0.44528 -0.27657,0.44457 -0.27755,0.44484 -0.279,0.44317 -0.28025,0.44246 -0.28149,0.44176 -0.28271,0.44105 -0.28392,0.44035 -0.28514,0.43964 -0.28541,0.43868 -0.28763,0.43824 -0.28784,0.43727 -0.29033,0.43586 -0.29032,0.43587 -0.2925,0.43541 -0.29305,0.43349 -0.29398,0.43375 -0.29551,0.43208 -0.29644,0.43234 -0.29795,0.43067 -0.29792,0.43067 -0.30041,0.42926 -0.30065,0.4283 -0.30284,0.42785 -0.3031,0.42689 -0.30433,0.42618 -0.30554,0.42548 -0.30681,0.42477 -0.30827,0.42311 -0.30921,0.42336 -0.31047,0.42266 -0.31099,0.42074 -0.31221,0.42002 -0.31345,0.41932 -0.31536,0.41985 -0.31493,0.41765 -0.31737,0.41624 -0.31834,0.4165 -0.31861,0.41554 -0.32079,0.4151 -0.32131,0.41316 -0.32255,0.41246 -0.3235,0.41272 -0.32404,0.41079 -0.3262,0.41035 -0.3265,0.40938 -0.32795,0.40771 -0.32896,0.40798 -0.33041,0.4063 -0.33139,0.40656 -0.33192,0.40464 -0.33311,0.40393 -0.33438,0.40322 -0.33557,0.40252 -0.33708,0.40085 -0.33708,0.40085 -0.33856,0.39918 -0.33981,0.39848 -0.34099,0.39777 -0.34224,0.39707 -0.34253,0.3961 -0.34398,0.39443 -0.34494,0.39469 -0.34647,0.39303 -0.34669,0.39205 -0.3489,0.39162 -0.34915,0.39065 -0.34967,0.38872 -0.35163,0.38924 -0.35213,0.38731 -0.35336,0.3866 -0.35456,0.3859 -0.35608,0.38424 -0.35608,0.38423 -0.35755,0.38256 -0.35878,0.38185 -0.35904,0.3809 -0.36028,0.38018 -0.36177,0.37852 -0.36271,0.37878 -0.36325,0.37685 -0.36446,0.37614 -0.36608,0.3745 -0.36645,0.37461 -0.36772,0.37288 -0.36859,0.37207 -0.36949,0.37129 -0.37047,0.37051 -0.37163,0.36876 -0.37232,0.36894 -0.37354,0.3672 -0.37444,0.36641 -0.37568,0.36466 -0.37648,0.36386 -0.37716,0.36404 -0.37838,0.36229 -0.37947,0.36051 -0.38026,0.36073 -0.38124,0.35892 -0.38227,0.35817 -0.38303,0.35733 -0.38431,0.35561 -0.38489,0.35577 -0.386,0.35399 -0.38695,0.35321 -0.38804,0.35144 -0.38886,0.35063 -0.38957,0.35081 -0.39092,0.34807 -0.39148,0.34823 -0.3927,0.34647 -0.39351,0.34568 -0.39439,0.34486 -0.3951,0.34402 -0.39643,0.34231 -0.39714,0.34147 -0.39798,0.34066 -0.3991,0.33889 -0.39968,0.33904 -0.40076,0.33727 -0.40188,0.3355 -0.40238,0.33562 -0.40354,0.33388 -0.40431,0.33304 -0.40513,0.33224 -0.40624,0.33046 -0.40698,0.32962 -0.40783,0.32882 -0.40894,0.32704 -0.40939,0.32718 -0.41053,0.3254 -0.41151,0.32359 -0.41209,0.32376 -0.41309,0.32195 -0.41394,0.32115 -0.41495,0.31935 -0.41568,0.31851 -0.41643,0.31767 -0.41728,0.31687 -0.41828,0.31507 -0.4191,0.31426 -0.41976,0.31339 -0.42053,0.31257 -0.42158,0.31078 -0.42236,0.30996 -0.42325,0.30812 -0.4241,0.30732 -0.42484,0.30649 -0.4255,0.30562 -0.42659,0.30385 -0.42722,0.30299 -0.42799,0.30215 -0.429,0.30035 -0.42944,0.30048 -0.43064,0.29769 -0.43114,0.29783 -0.43212,0.29602 -0.43277,0.29516 -0.43376,0.29336 -0.43445,0.2925 -0.43516,0.29166 -0.43582,0.29081 -0.4368,0.289 -0.43746,0.28814 -0.43839,0.28632 -0.4391,0.28548 -0.43979,0.28462 -0.44051,0.28378 -0.44132,0.28194 -0.44204,0.28109 -0.44297,0.27927 -0.44336,0.27938 -0.44455,0.27659 -0.4449,0.27668 -0.44582,0.27487 -0.44646,0.274 -0.44739,0.27217 -0.44775,0.27228 -0.44884,0.26946 -0.44931,0.2696 -0.45014,0.26774 -0.45077,0.26687 -0.45167,0.26506 -0.45225,0.26416 -0.45289,0.2633 -0.45352,0.26245 -0.45434,0.26059 -0.45525,0.25877 -0.45553,0.25884 -0.45646,0.25702 -0.45725,0.25516 -0.45781,0.25428 -0.45844,0.25341 -0.45903,0.25253 -0.4599,0.2507 -0.46045,0.24982 -0.46128,0.24796 -0.46183,0.24708 -0.46238,0.24619 -0.46292,0.2453 -0.46384,0.24348 -0.46455,0.24159 -0.46485,0.24168 -0.46575,0.23985 -0.46646,0.23797 -0.46701,0.23708 -0.46758,0.2362 -0.4681,0.23531 -0.46884,0.23343 -0.46971,0.23161 -0.46996,0.23165 -0.47064,0.22978 -0.47154,0.22795 -0.47165,0.22798 -0.47283,0.22519 -0.473,0.22524 -0.473735,0.22336 -0.474293,0.22247 -0.474979,0.2206 -0.475536,0.2197 -0.475906,0.21877 -0.476806,0.21694 -0.477176,0.21601 -0.47797,0.21414 -0.478446,0.21324 -0.478869,0.21233 -0.47961,0.21043 -0.48006,0.20955 -0.48051,0.20861 -0.481224,0.20674 -0.48178,0.20586 -0.482388,0.20395 -0.482838,0.20303 -0.483209,0.2021 -0.484002,0.20023 -0.484479,0.19934 -0.485087,0.19743 -0.485537,0.1965 -0.485907,0.19558 -0.486622,0.1937 -0.487071,0.19279 -0.487415,0.19184 -0.488157,0.18996 -0.4885,0.18902 -0.489214,0.18716 -0.489559,0.1862 -0.490035,0.1853 -0.490643,0.18338 -0.490987,0.18246 -0.491623,0.18054 -0.492072,0.17964 -0.492442,0.17869 -0.492945,0.17676 -0.493501,0.17588 -0.49403,0.17394 -0.494374,0.17301 -0.494744,0.17207 -0.49538,0.17016 -0.495697,0.16922 -0.496332,0.16732 -0.496437,0.16734 -0.497232,0.16445 -0.49739,0.1645 -0.498184,0.1616 -0.498237,0.16161 -0.498872,0.15972 -0.499162,0.15877 -0.499745,0.15684 -0.500089,0.1559 -0.500619,0.15398 -0.500671,0.15398 -0.501517,0.15111 -0.501544,0.15112 -0.502391,0.14823 -0.502391,0.14823 -0.50292,0.14632 -0.503238,0.14536 -0.503766,0.14343 -0.504058,0.14247 -0.504322,0.14151 -0.504852,0.13958 -0.505142,0.13862 -0.505619,0.13668 -0.505936,0.13571 -0.506413,0.1338 -0.506425,0.13379 -0.507188,0.13089 -0.507177,0.13089 -0.507683,0.12894 -0.508172,0.12702 -0.508404,0.12603 -0.508649,0.12507 -0.50887,0.12408 -0.509363,0.12216 -0.509836,0.12021 -0.510058,0.11924 -0.510262,0.11825 -0.510474,0.11727 -0.510948,0.11533 -0.511402,0.11338 -0.511607,0.1124 -0.511817,0.11142 -0.51202,0.11044 -0.512447,0.10849 -0.512871,0.10653 -0.513035,0.10552 -0.513297,0.10458 -0.513366,0.10355 -0.513887,0.10163 -0.514217,0.0996 -0.514216,0.0996 -0.5149,0.0967 -0.51471,0.0967 -0.515135,0.0947 -0.515395,0.0937 -0.515723,0.0918 -0.515792,0.0907 -0.516314,0.0888 -0.51612,0.0888 -0.516808,0.0858 -0.516614,0.0858 -0.5173,0.0829 -0.517205,0.0828 -0.517533,0.0808 -0.517695,0.0799 -0.517932,0.0779 -0.518189,0.0769 -0.518258,0.0759 -0.518589,0.0739 -0.518654,0.0729 -0.518724,0.0719 -0.519147,0.0699 -0.519477,0.0679 -0.519285,0.0679 -0.519872,0.0649 -0.519681,0.0649 -0.520107,0.0629 -0.520079,0.0619 -0.520406,0.0599 -0.520472,0.0589 -0.520541,0.0578 -0.520872,0.0559 -0.520843,0.0548 -0.521267,0.0529 -0.520977,0.0528 -0.521571,0.0498 -0.521277,0.0498 -0.521607,0.0478 -0.521936,0.0458 -0.521909,0.0447 -0.521877,0.0437 -0.521947,0.0427 -0.522274,0.0407 -0.52251,0.0387 -0.522216,0.0386 -0.522549,0.0366 -0.522777,0.0346 -0.522491,0.0345 -0.522981,0.0316 -0.52279,0.0315 -0.523023,0.0295 -0.522896,0.0284 -0.523227,0.0265 -0.523198,0.0254 -0.523166,0.0244 -0.523401,0.0224 -0.523372,0.0213 -0.523248,0.0202 -0.523576,0.0183 -0.523449,0.0172 -0.523685,0.0152 -0.523653,0.0141 -0.523626,0.0131 -0.523761,0.0111 -0.523473,0.011 -0.523867,0.008 -0.523579,0.008 -0.523811,0.006 -0.523947,0.004 -0.523822,0.003 -0.523793,0.002 -0.523668,7.9e-4 -0.523899,-10e-4 -0.523777,-0.002 -0.52365,-0.003 -0.523785,-0.005 -0.523756,-0.007 -0.523796,-0.009 -0.523769,-0.01 -0.523642,-0.0107 -0.523515,-0.0118 -0.523653,-0.0138 -0.523528,-0.0149 -0.5236639,-0.0169 -0.523539,-0.018 -0.523414,-0.0191 -0.523288,-0.0202 -0.523327,-0.0222 -0.523462,-0.0242 -0.523076,-0.0244 -0.523214,-0.0264 -0.522991,-0.0275 -0.523126,-0.0295 -0.522642,-0.0296 -0.523137,-0.0326 -0.52256,-0.0328 -0.522692,-0.0348 -0.522571,-0.0359 -0.522605,-0.0379 -0.522126,-0.0381 -0.522261,-0.0401 -0.52230099,-0.0422 -0.522078,-0.0433 -0.521857,-0.0444 -0.52173101,-0.0454 -0.521772,-0.0475 -0.521547,-0.0486 -0.521327,-0.0497 -0.521105,-0.0508 -0.521242,-0.0528 -0.521184,-0.0549 -0.520703,-0.055 -0.520739,-0.0571 -0.5205181,-0.0582 -0.520298,-0.0593 -0.520239,-0.0614 -0.520116,-0.0624 -0.519795,-0.0636 -0.519837,-0.0656 -0.519613,-0.0667 -0.519295,-0.0678 -0.519334,-0.0699 -0.518758,-0.0701 -0.518795,-0.0721 -0.518832,-0.0742 -0.518256,-0.0743 -0.518197,-0.0764 -0.517977,-0.0775 -0.517919,-0.0796 -0.517435,-0.0797 -0.51738,-0.0818 -0.517318,-0.0839 -0.516742,-0.0841 -0.516784,-0.0861 -0.516366,-0.0873 -0.516406,-0.0893 -0.515827,-0.0895 -0.515768,-0.0916 -0.515548,-0.0927 -0.515393,-0.0948 -0.514815,-0.0949 -0.514758,-0.097 -0.514699,-0.0991 -0.514025,-0.0993 -0.514061,-0.10137 -0.513649,-0.10251 -0.513427,-0.10361 -0.513014,-0.10476 -0.512857,-0.10687 -0.512541,-0.10799 -0.51222,-0.10911 -0.512164,-0.1112 -0.51149,-0.11139 -0.511432,-0.11347 -0.511016,-0.11462 -0.510863,-0.11673 -0.510283,-0.11689 -0.510225,-0.11898 -0.509813,-0.12012 -0.509656,-0.12224 -0.508981,-0.12242 -0.508926,-0.12451 -0.508508,-0.12566 -0.508096,-0.1268 -0.507941,-0.12892 -0.507363,-0.12907 -0.507206,-0.13119 -0.506698,-0.13236 -0.50664,-0.13445 -0.505963,-0.13463 -0.505714,-0.13677 -0.505394,-0.1379 -0.504981,-0.13904 -0.504664,-0.14016 -0.504602,-0.14225 -0.50364,-0.14251 -0.503195,-0.14471 -0.502491,-0.14592 -0.503016,-0.14786 -0.502047,-0.14812 -0.50257,-0.15006 -0.500901,-0.15153 -0.501161,-0.15251 -0.500457,-0.15373 -0.500978,-0.15566 -0.499046,-0.15618 -0.499571,-0.15812 -0.499834,-0.15908 -0.498161,-0.16056 -0.498419,-0.16153 -0.497009,-0.16399 -0.49798,-0.16372 -0.49657,-0.16618 -0.495872,-0.1674 -0.49612,-0.16837 -0.495689,-0.17056 -0.49471,-0.17082 -0.495239,-0.17275 -0.49331,-0.17327 -0.493832,-0.1752 -0.49313,-0.17643 -0.492678,-0.17863 -0.492681,-0.17862 -0.491979,-0.17984 -0.490572,-0.1823 -0.490829,-0.18327 -0.491101,-0.18423 -0.489418,-0.18572 -0.48968,-0.18668 -0.488011,-0.18817 -0.48854,-0.19011 -0.487569,-0.19036 -0.487122,-0.19255 -0.487389,-0.19352 -0.485719,-0.19501 -0.485981,-0.19597 -0.48527,-0.1972 -0.484567,-0.19842 -0.48386,-0.19966 -0.48439,-0.20158 -0.48246,-0.2021 -0.48298,-0.20404 -0.4813,-0.20552 -0.48157,-0.20648 -0.48087,-0.20772 -0.48112,-0.20868 -0.47946,-0.21016 -0.47875,-0.21139 -0.47902,-0.21236 -0.4776,-0.21481 -0.4776,-0.21481 -0.47716,-0.217 -0.4762,-0.21727 -0.47575,-0.21945 -0.47505,-0.22068 -0.47434,-0.22191 -0.47461,-0.22287 -0.47293,-0.22436 -0.47319,-0.22533 -0.4725,-0.22655 -0.470817,-0.22804 -0.47108,-0.229 -0.47038,-0.23023 -0.46993,-0.23242 -0.46897,-0.23269 -0.46852,-0.23487 -0.46756,-0.23514 -0.46782,-0.2361 -0.46642,-0.23855 -0.4657,-0.23978 -0.46571,-0.23978 -0.4643,-0.24223 -0.4643,-0.24224 -0.46289,-0.24468 -0.46315,-0.24565 -0.46245,-0.24688 -0.46051,-0.2474 -0.46104,-0.24933 -0.46034,-0.25055 -0.45962,-0.25178 -0.45867,-0.25205 -0.45822,-0.25423 -0.45751,-0.25546 -0.45585,-0.25695 -0.45585,-0.25695 -0.4554,-0.25914 -0.4547,-0.26036 -0.45399,-0.26159 -0.45303,-0.26186 -0.45258,-0.26404 -0.45285,-0.26501 -0.45118,-0.2665 -0.45021,-0.26676 -0.44977,-0.26895 -0.4488,-0.26921 -0.44836,-0.2714 -0.44765,-0.27263 -0.44669,-0.27289 -0.44598,-0.27412 -0.44555,-0.27631 -0.44361,-0.27683 -0.44413,-0.27876 -0.44317,-0.27902 -0.44246,-0.28025 -0.44176,-0.28147 -0.44105,-0.2827 -0.43938,-0.28419 -0.43965,-0.28515 -0.43894,-0.28638 -0.43727,-0.28787 -0.43753,-0.28883 -0.43657,-0.28909 -0.43516,-0.29155 -0.43419,-0.29181 -0.43471,-0.29373 -0.43279,-0.29426 -0.43208,-0.29549 -0.4326,-0.29741 -0.430669,-0.29794 -0.42996,-0.29917 -0.429,-0.29942 -0.42856,-0.30162 -0.42689,-0.3031 -0.42689,-0.30311 -0.42644,-0.30529 -0.42451,-0.30582 -0.42478,-0.30678 -0.4231,-0.30827 -0.42337,-0.30924 -0.421691,-0.31072 -0.42099,-0.31195 -0.42003,-0.31221 -0.41958,-0.3144 -0.41862,-0.31467 -0.41791,-0.31589 -0.41624,-0.31737 -0.41651,-0.31834 -0.41483,-0.31983 -0.41484,-0.31983 -0.41316,-0.32132 -0.41272,-0.32351 -0.41176,-0.32376 -0.41079,-0.32403 -0.40938,-0.32649 -0.40964,-0.32744 -0.40771,-0.32797 -0.40798,-0.32894 -0.4063,-0.33042 -0.4056,-0.33165 -0.40489,-0.33288 -0.40297,-0.33339 -0.40322,-0.33436 -0.40252,-0.33559 -0.40085,-0.33708 -0.40015,-0.3383 -0.39918,-0.33856 -0.39847,-0.33979 -0.39777,-0.34102 -0.39611,-0.3425 -0.39636,-0.34347 -0.39443,-0.34399 -0.39373,-0.34522 -0.39302,-0.34644 -0.39232,-0.34767 -0.39039,-0.34819 -0.39091,-0.35012 -0.38872,-0.34968 -0.38827,-0.35187 -0.38757,-0.3531 -0.38661,-0.35334 -0.38494,-0.35486 -0.38519,-0.3558 -0.38327,-0.35634 -0.38256,-0.35756 -0.38186,-0.35878 -0.38018,-0.36027 -0.38019,-0.36027 -0.37852,-0.36176 -0.37781,-0.36299 -0.37711,-0.36421 -0.37518,-0.36473 -0.37541,-0.36561 -0.37369,-0.36689 -0.37291,-0.36783 -0.37213,-0.36877 -0.37134,-0.36971 -0.36959,-0.3709 -0.36882,-0.37185 -0.36803,-0.37276 -0.36722,-0.37363 -0.3655,-0.3749 -0.36565,-0.3755 -0.36391,-0.37669 -0.36312,-0.37763 -0.36135,-0.37871 -0.36156,-0.37951 -0.35976,-0.3805 -0.359,-0.38154 -0.35723,-0.38263 -0.35739,-0.38323 -0.35564,-0.3844 -0.35485,-0.38535 -0.35404,-0.38621 -0.35228,-0.38729 -0.35245,-0.38796 -0.35068,-0.38908 -0.34891,-0.39016 -0.34908,-0.39084 -0.34732,-0.39196 -0.3465,-0.39279 -0.3457,-0.39363 -0.34392,-0.39472 -0.34411,-0.3954 -0.3423,-0.39642 -0.34056,-0.3976 -0.34071,-0.39819 -0.33892,-0.39919 -0.33813,-0.40013 -0.33729,-0.40087 -0.33553,-0.40197 -0.33471,-0.40281 -0.3339,-0.40366 -0.3331,-0.40449 -0.33129,-0.4055 -0.33052,-0.40643 -0.32965,-0.40708 -0.3279,-0.40828 -0.32803,-0.40876 -0.32626,-0.40986 -0.32446,-0.41087 -0.32459,-0.41135 -0.32282,-0.41245 -0.32104,-0.41355 -0.32117,-0.41404 -0.31938,-0.41504 -0.31856,-0.41588 -0.3177,-0.41652 -0.31595,-0.41773 -0.3151,-0.41837 -0.31428,-0.41921 -0.31246,-0.42012 -0.31165,-0.42096 -0.31081,-0.4217 -0.30998,-0.42245 -0.30818,-0.42345 -0.30735,-0.4242 -0.30554,-0.42519 -0.30568,-0.42569 -0.30385,-0.42659 -0.30207,-0.42769 -0.30218,-0.42808 -0.30038,-0.42908 -0.29954,-0.42982 -0.29772,-0.43074 -0.29688,-0.43148 -0.29605,-0.43222 -0.29425,-0.43322 -0.29435,-0.43361 -0.29156,-0.43479 -0.29169,-0.43526 -0.28986,-0.43617 -0.28903,-0.43692 -0.2872,-0.43782 -0.28734,-0.43831 -0.28454,-0.43947 -0.28465,-0.43986 -0.28281,-0.44077 -0.28199,-0.44151 -0.28112,-0.44216 -0.2793,-0.44307 -0.27841,-0.44362 -0.27664,-0.44472 -0.27575,-0.44527 -0.27489,-0.44592 -0.27402,-0.44656 -0.27218,-0.44738 -0.27134,-0.44812 -0.26951,-0.44902 -0.26863,-0.44958 -0.26779,-0.45032 -0.26691,-0.45088 -0.26505,-0.45168 -0.23622,-0.40634 -44.26202,25.68501 0.39615,0.67988 0.78988,1.33939 0.79886,1.33426 0.80685,1.32932 0.81579,1.32408 0.82373,1.31895 0.83265,1.31363 0.83958,1.30865 0.84849,1.30324 0.85735,1.29774 0.86425,1.29255 0.87308,1.28696 0.88094,1.28152 0.88877,1.27599 0.89754,1.27009 0.90439,1.26481 0.91316,1.25893 0.92092,1.2531 0.92868,1.24738 0.93641,1.24145 0.94416,1.23563 0.95188,1.22972 0.95957,1.22369 0.96725,1.21758 0.97505,1.21195 0.98258,1.20535 0.98997,1.19818 0.99788,1.19294 1.00552,1.18672 1.0122,1.18078 1.01958,1.1736 1.02723,1.16739 1.03487,1.16117 1.04226,1.15401 1.04893,1.14805 1.05658,1.14185 1.06273,1.13396 1.07135,1.1275 1.07706,1.12181 1.0854,1.11437 1.09086,1.10771 1.09921,1.10028 1.10466,1.09363 1.11328,1.08716 1.11846,1.07953 1.12585,1.07236 1.13349,1.06616 1.13868,1.05853 1.1458,1.05039 1.15249,1.04445 1.1596,1.0363 1.16506,1.02965 1.17244,1.02247 1.17764,1.01486 1.18502,1.00768 1.19117,0.9998 1.19733,0.99192 1.20375,0.985 1.20894,0.97739 1.21607,0.96925 1.22248,0.96233 1.22741,0.95375 1.23383,0.94683 1.23999,0.93895 1.24492,0.93037 1.2523,0.9232 1.25653,0.91583 1.26339,0.90673 1.26858,0.89912 1.27377,0.89149 1.27993,0.88361 1.28609,0.87574 1.29102,0.86714 1.29595,0.85857 1.30114,0.85095 1.3073,0.84306 1.31223,0.83449 1.31716,0.82589 1.32331,0.81802 1.32728,0.8097 1.33222,0.80111 1.33837,0.79323 1.34304,0.78368 1.34726,0.77633 1.3522,0.76774 1.35809,0.75889 1.36206,0.75057 1.36576,0.74129 1.371921,0.7334 1.37589,0.72508 1.38055,0.71553 1.38452,0.70721 1.389459,0.69862 1.39438,0.69004 1.39712,0.68101 1.40302,0.67217 1.40601,0.6641 1.41069,0.65456 1.41439,0.64527 1.41933,0.63668 1.42206,0.62765 1.42699,0.61907 1.4307,0.60979 1.43369,0.60172 1.43811,0.5912 1.44207,0.58288 1.44481,0.57386 1.44974,0.56527 1.45222,0.55527 1.45593,0.54599 1.458917,0.53793 1.46237,0.52767 1.46633,0.51935 1.46881,0.50936 1.47278,0.50103 1.47525,0.49104 1.47896,0.48175 1.4817,0.47273 1.484178,0.46273 1.48717,0.45467 1.49062,0.44441 1.492398,0.43565 1.49584,0.4254 1.498571,0.41636 1.500349,0.4076 1.503802,0.39735 1.505299,0.38761 1.509276,0.3793 1.509556,0.36885 1.513263,0.35957 1.515039,0.3508 1.517253,0.33984 1.519994,0.33081 1.520801,0.32231 1.524244,0.31205 1.524793,0.30259 1.52727,0.29259 1.52975,0.2826 1.530556,0.27409 1.53207,0.26436 1.534549,0.25437 1.5358,0.24366 1.537161,0.23606 1.5387,0.22527 1.54002,0.2156 1.541338,0.20591 1.542564,0.19626 1.543883,0.18659 1.544915,0.17698 1.546135,0.16733 1.547167,0.15772 1.547839,0.14719 1.5491301,0.13854 1.549707,0.12804 1.550543,0.11848 1.55128401,0.10896 1.55202399,0.0994 1.552409,0.089 1.553051,0.0795 1.553504,0.07 1.553789,0.0596 1.554501,0.0511 1.5544299,0.0397 1.55485,0.0313 1.554946,0.021 1.554943,0.0106 1.555268,0.002 1.554909,-0.009 1.555136,-0.0174 1.554845,-0.0277 1.554551,-0.038 1.554425,-0.0473 1.553935,-0.0575 1.553617,-0.0667 1.553131,-0.077 1.55281,-0.0862 1.552033,-0.0963 1.551615,-0.10555 1.550744,-0.11568 1.549969,-0.12583 1.549262,-0.13497 1.548196,-0.14503 1.547585,-0.15419 1.546066,-0.16518 1.545521,-0.17331 1.544103,-0.18433 1.543005,-0.19335 1.541749,-0.20337 1.54056,-0.21238 1.539107,-0.22234 1.537655,-0.2323 1.536015,-0.24223 1.534723,-0.25119 1.532986,-0.26109 1.531342,-0.271 1.529667,-0.27987 1.527665,-0.29072 1.525897,-0.29957 1.524224,-0.30844 1.521939,-0.31921 1.520164,-0.32806 1.517941,-0.33782 1.515718,-0.34758 1.513708,-0.35636 1.511141,-0.36705 1.508998,-0.3758 1.506538,-0.38549 1.504315,-0.39422 1.501431,-0.40483 z m -222.00044,-79.63845 -0.5322,7.9e-4 -0.51843,-0.11676 -0.47959,-0.22981 -0.41674,-0.33071 -0.33297,-0.41551 -0.23178,-0.47808 -0.11952,-0.51878 -5.3e-4,-0.53124 0.11649,-0.5194 0.22982,-0.47958 0.3307,-0.41674 0.41577,-0.332 0.47808,-0.23179 0.51879,-0.11952 0.53097,-0.002 0.51966,0.11747 0.47959,0.22981 0.41577,0.33097 0.33271,0.41454 0.23205,0.47905 0.11926,0.51782 8e-4,0.5322 -0.11676,0.51843 -0.22981,0.47959 -0.33071,0.41674 -0.41454,0.3327 -0.47905,0.23205 z m 98.691591,56.90678 -0.526676,-0.0783 -0.495631,-0.19337 -0.440143,-0.29849 -0.362055,-0.38899 -0.267346,-0.46018 -0.157874,-0.50738 -0.04091,-0.53072 0.07854,-0.5257 0.193363,-0.49564 0.298484,-0.44015 0.389001,-0.36204 0.460177,-0.26735 0.507383,-0.15788 0.530712,-0.0409 0.525708,0.0785 0.495372,0.1924 0.440142,0.29848 0.363281,0.38971 0.266123,0.45947 0.158134,0.50834 0.04065,0.52976 -0.07731,0.52641 -0.193363,0.49563 -0.298487,0.44014 -0.389964,0.36232 -0.459214,0.26709 -0.508346,0.15813 z m 213.370979,-57.59666 -0.53126,5.3e-4 -0.5194,-0.1165 -0.47958,-0.22981 -0.41672,-0.33071 -0.332,-0.41577 -0.2318,-0.47808 -0.11952,-0.51879 -0.003,-0.53097 0.11747,-0.51966 0.22982,-0.47959 0.33097,-0.41577 0.41452,-0.33271 0.47905,-0.23204 0.51782,-0.11926 0.53221,-8e-4 0.51842,0.11676 0.47962,0.22982 0.41671,0.3307 0.33272,0.41455 0.23204,0.47905 0.11927,0.51781 v 0.53221 l -0.11676,0.51843 -0.22982,0.47958 -0.3307,0.41674 -0.4155,0.33297 -0.47808,0.2318 z m -95.658227,69.57819 -0.511783,0.11038 -0.515514,0.0917 -0.518107,0.0748 -0.520621,0.0558 -0.522235,0.0376 -0.523266,0.0192 -0.52369,8e-4 -0.523293,-0.017 -0.522234,-0.0349 -0.520938,-0.0539 -0.518478,-0.0712 -0.516017,-0.0905 -0.51218,-0.10705 -0.508344,-0.1257 -0.503687,-0.14354 -0.498264,-0.16054 -0.49231,-0.17768 -0.485854,-0.19497 -0.478923,-0.21239 -0.471011,-0.22798 -0.462782,-0.24471 -0.454187,-0.26154 -0.444674,-0.27655 -0.434674,-0.29167 -0.424291,-0.30692 -0.413261,-0.32129 -0.401843,-0.33577 -0.389782,-0.34939 -0.377523,-0.36306 -0.364263,-0.37494 -0.351329,-0.38879 -0.337326,-0.39983 -0.323193,-0.41193 -0.308804,-0.42308 -0.293669,-0.43338 -0.278532,-0.44369 -0.262847,-0.45311 -0.246806,-0.46158 -0.230569,-0.47013 -0.213974,-0.47771 -0.197286,-0.48533 -0.180073,-0.49103 -0.16293,-0.49772 -0.145524,-0.50347 -0.127696,-0.50726 -0.110027,-0.51203 -0.09184,-0.51487 -0.07411,-0.51863 -0.05585,-0.52046 -0.03769,-0.52226 -0.01937,-0.52307 -0.0013,-0.52383 0.01707,-0.52359 0.03532,-0.52231 0.05359,-0.52104 0.07164,-0.51867 0.08994,-0.51532 0.107598,-0.51285 0.125489,-0.50836 0.143447,-0.50286 0.160663,-0.49819 0.177945,-0.4925 0.195104,-0.48574 0.211876,-0.47888 0.22852,-0.47095 0.244782,-0.46292 0.260559,-0.45475 0.276474,-0.44455 0.291997,-0.43424 0.306678,-0.42475 0.321451,-0.4132 0.335743,-0.40153 0.349514,-0.38971 0.362773,-0.37775 0.37578,-0.3647 0.388501,-0.35053 0.400148,-0.33813 0.412014,-0.3227 0.422807,-0.30904 0.433525,-0.29329 0.443423,-0.27836 0.452729,-0.26326 0.461682,-0.24704 0.470032,-0.23065 0.477837,-0.21411 0.48522,-0.19642 0.49149,-0.18052 0.497707,-0.1625 0.502735,-0.14626 0.507947,-0.12695 0.511784,-0.11038 0.515514,-0.0917 0.518107,-0.0748 0.520621,-0.0558 0.522234,-0.0376 0.52324,-0.0192 0.523716,-8e-4 0.523267,0.017 0.522261,0.0349 0.520912,0.0539 0.518504,0.0712 0.51599,0.0905 0.512207,0.10705 0.508344,0.1257 0.503687,0.14353 0.498263,0.16054 0.492311,0.17769 0.485854,0.19497 0.478896,0.21238 0.471011,0.22799 0.462809,0.24471 0.454184,0.26154 0.444659,0.27654 0.434684,0.29168 0.424285,0.30691 0.41328,0.32129 0.401822,0.33577 0.389784,0.3494 0.37727,0.36209 0.364516,0.3759 0.35134,0.3888 0.337318,0.39982 0.323188,0.41194 0.308822,0.42307 0.293661,0.43338 0.278527,0.44369 0.262863,0.45311 0.246804,0.46159 0.230558,0.47012 0.213968,0.47772 0.1973,0.48533 0.180075,0.49102 0.162931,0.49773 0.145256,0.50251 0.127952,0.50821 0.110041,0.51203 0.09184,0.51488 0.07411,0.51863 0.05585,0.52046 0.03768,0.52226 0.01931,0.52307 v 0.52382 l -0.01693,0.5236 -0.03532,0.5223 -0.0536,0.52105 -0.07162,0.51866 -0.08993,0.51533 -0.107606,0.51285 -0.125757,0.50739 -0.143166,0.50382 -0.160681,0.49819 -0.177933,0.4925 -0.195103,0.48575 -0.211879,0.47888 -0.22852,0.47094 -0.244793,0.46293 -0.260561,0.45475 -0.276464,0.44455 -0.291994,0.43424 -0.306678,0.42475 -0.321442,0.4132 -0.335757,0.40152 -0.349514,0.38971 -0.362771,0.37776 -0.375787,0.3647 -0.388488,0.35052 -0.400156,0.33814 -0.412009,0.3227 -0.422804,0.30904 -0.43352,0.29329 -0.443441,0.27836 -0.452729,0.26326 -0.461671,0.24703 -0.470033,0.23066 -0.477811,0.2141 -0.485246,0.19643 -0.49149,0.18051 -0.497707,0.16251 -0.502973,0.14529 z"
     id="path4-3"
     inkscape:connector-curvature="0"
     style="fill:#d3d3d3;stroke:#000000;stroke-width:0.5" />
  <path
     d="m 81.45985,225.65176 1.49641,-0.42314 1.49391,-0.4318 1.49085,-0.44238 1.48826,-0.45099 1.48534,-0.46056 1.48227,-0.4701 1.47955,-0.47868 1.47646,-0.4882 1.47336,-0.49773 1.470097,-0.5072 1.46669,-0.51664 1.46378,-0.52517 1.460293,-0.53459 1.4568,-0.54401 1.45362,-0.55247 1.45002,-0.56186 1.44635,-0.57123 1.44266,-0.58058 1.43928,-0.589 1.43542,-0.5983 1.43142,-0.6076 1.42785,-0.61593 1.42389,-0.62523 1.4198,-0.6345 1.41603,-0.64278 1.41179,-0.652 1.40761,-0.66125 1.40353,-0.66944 1.3992,-0.67864 1.3952,-0.68688 1.39054,-0.69599 1.38639,-0.70418 1.38158,-0.71428 1.37747,-0.72145 1.37271,-0.73052 1.36811,-0.73964 1.3634,-0.74771 1.35861,-0.75674 1.35403,-0.76484 1.349,-0.77384 1.34414,-0.78185 1.3394,-0.78989 1.33424,-0.79887 1.32932,-0.80683 1.32411,-0.8158 1.31892,-0.82372 1.31365,-0.83265 1.30866,-0.83959 1.30323,-0.84848 1.29773,-0.85736 1.29257,-0.86425 1.28693,-0.87308 1.28154,-0.88094 1.27598,-0.88877 1.27008,-0.89753 1.26484,-0.90441 1.25891,-0.91315 1.25312,-0.92091 1.24738,-0.92869 1.24145,-0.93641 1.23563,-0.94415 1.22971,-0.95188 1.22369,-0.95958 1.21759,-0.96724 1.21195,-0.97505 1.20534,-0.98259 1.19819,-0.98997 1.19292,-0.99788 1.18674,-1.00552 1.18076,-1.01221 1.17361,-1.01958 1.16737,-1.02722 1.1612,-1.03487 1.15401,-1.04225 1.14805,-1.04894 1.14184,-1.05658 1.13395,-1.06273 1.12752,-1.07134 1.12178,-1.07706 1.11437,-1.08541 1.10773,-1.09086 1.10027,-1.09921 1.09363,-1.10466 1.08715,-1.11327 1.07955,-1.11847 1.07236,-1.12584 1.06616,-1.13349 1.05852,-1.13868 1.0504,-1.14581 1.04444,-1.15248 1.03632,-1.15961 1.02965,-1.16506 1.02246,-1.17244 1.01486,-1.17764 1.00769,-1.18501 0.99978,-1.19118 0.99192,-1.19733 0.985,-1.20375 0.97739,-1.20894 0.96925,-1.21606 0.96234,-1.22249 0.95375,-1.22741 0.94683,-1.23383 0.93896,-1.23999 0.93035,-1.24492 0.92321,-1.25231 0.91583,-1.25653 0.90673,-1.26339 0.89911,-1.26858 0.89151,-1.27377 0.8836,-1.27993 0.87572,-1.28609 0.86715,-1.29102 0.85857,-1.29595 0.85095,-1.30114 0.84307,-1.30729 0.83447,-1.31223 0.8259,-1.31716 0.81803,-1.32332 0.80971,-1.32728 0.8011,-1.33221 0.79322,-1.33837 0.7837,-1.34304 0.39285,-0.68112 -44.37411,-25.489576 -0.0387,0.0674 -0.26186,0.45303 -0.26379,0.45355 -0.26429,0.45162 -0.26652,0.45118 -0.26675,0.45021 -0.26869,0.45073 -0.26921,0.4488 -0.27043,0.4481 -0.27263,0.44766 -0.27262,0.44765 -0.27414,0.44599 -0.27532,0.44528 -0.27657,0.44457 -0.27755,0.44484 -0.279,0.44317 -0.28025,0.44246 -0.28149,0.44176 -0.28271,0.44105 -0.28392,0.44035 -0.28514,0.43964 -0.28541,0.43868 -0.28763,0.43824 -0.28784,0.43727 -0.29033,0.43586 -0.29032,0.43587 -0.2925,0.43541 -0.29305,0.43349 -0.29398,0.43375 -0.29551,0.43208 -0.29644,0.43234 -0.29795,0.43067 -0.29792,0.43067 -0.30041,0.42926 -0.30065,0.428296 -0.30284,0.42785 -0.3031,0.42689 -0.30433,0.42618 -0.30554,0.42548 -0.30681,0.42477 -0.30827,0.42311 -0.30921,0.42336 -0.31047,0.42266 -0.31099,0.42074 -0.31221,0.42002 -0.31345,0.41932 -0.31536,0.41985 -0.31493,0.41765 -0.31737,0.41624 -0.31834,0.4165 -0.31861,0.41554 -0.32079,0.4151 -0.32131,0.41316 -0.32255,0.41246 -0.3235,0.41272 -0.32404,0.41079 -0.3262,0.41035 -0.3265,0.40938 -0.32795,0.40771 -0.32896,0.40798 -0.33041,0.4063 -0.33139,0.40656 -0.33192,0.40464 -0.33311,0.40393 -0.33438,0.40322 -0.33557,0.40252 -0.33708,0.40085 -0.33708,0.40085 -0.33856,0.39918 -0.33981,0.39848 -0.34099,0.39777 -0.34224,0.39707 -0.34253,0.3961 -0.34398,0.39443 -0.34494,0.39469 -0.34647,0.39303 -0.34669,0.39205 -0.3489,0.39162 -0.34915,0.39065 -0.34967,0.38872 -0.35163,0.38924 -0.35213,0.38731 -0.35336,0.3866 -0.35456,0.3859 -0.35608,0.38424 -0.35608,0.38423 -0.35755,0.38256 -0.35878,0.38185 -0.35904,0.3809 -0.36028,0.38018 -0.36177,0.37852 -0.36271,0.37878 -0.36325,0.37685 -0.36446,0.37614 -0.36608,0.3745 -0.36645,0.37461 -0.36772,0.37288 -0.36859,0.37207 -0.36949,0.37129 -0.37047,0.37051 -0.37163,0.36876 -0.37232,0.36894 -0.37354,0.3672 -0.37444,0.36641 -0.37568,0.36466 -0.37648,0.36386 -0.37716,0.36404 -0.37838,0.36229 -0.37947,0.36051 -0.38026,0.36073 -0.38124,0.35892 -0.38227,0.35817 -0.38303,0.35733 -0.38431,0.35561 -0.38489,0.35577 -0.386,0.35399 -0.38695,0.35321 -0.38804,0.35144 -0.38886,0.35063 -0.38957,0.35081 -0.39092,0.34807 -0.39148,0.34824 -0.3927,0.34647 -0.39351,0.34568 -0.39439,0.34486 -0.3951,0.34402 -0.39643,0.34231 -0.39714,0.34147 -0.39798,0.34066 -0.3991,0.33889 -0.39968,0.33904 -0.40076,0.33727 -0.40188,0.3355 -0.40238,0.33562 -0.40354,0.33388 -0.40431,0.33304 -0.40513,0.33224 -0.40624,0.33046 -0.40698,0.32962 -0.40783,0.32882 -0.40894,0.32704 -0.40939,0.32718 -0.41053,0.3254 -0.41151,0.32359 -0.41208,0.32376 -0.4131,0.32195 -0.41394,0.32115 -0.41494,0.31935 -0.41569,0.31851 -0.41643,0.31767 -0.41727,0.31687 -0.41828,0.31507 -0.4191,0.31426 -0.41976,0.31339 -0.42053,0.31257 -0.42159,0.31078 -0.42235,0.30996 -0.42326,0.30812 -0.4241,0.30732 -0.42484,0.30649 -0.4255,0.30562 -0.42659,0.30385 -0.42722,0.30299 -0.42799,0.30215 -0.429,0.30035 -0.42944,0.30048 -0.43064,0.29769 -0.43114,0.29783 -0.43212,0.29602 -0.43278,0.29516 -0.43375,0.29336 -0.43445,0.2925 -0.43516,0.29166 -0.43582,0.29081 -0.4368,0.289 -0.43746,0.28814 -0.43839,0.28632 -0.4391,0.28548 -0.43979,0.28462 -0.44051,0.28378 -0.44132,0.28194 -0.44204,0.28109 -0.44297,0.27927 -0.44336,0.27938 -0.44455,0.27659 -0.4449,0.27668 -0.44582,0.27487 -0.44646,0.274 -0.44739,0.27217 -0.44775,0.27228 -0.44884,0.26946 -0.44931,0.2696 -0.45014,0.26774 -0.45077,0.26687 -0.45167,0.26506 -0.45225,0.26416 -0.45289,0.2633 -0.45352,0.26245 -0.45435,0.26059 -0.45524,0.25877 -0.45553,0.25884 -0.45646,0.25702 -0.45725,0.25516 -0.45781,0.25428 -0.45845,0.25341 -0.45902,0.25253 -0.4599,0.2507 -0.46045,0.24982 -0.46128,0.24796 -0.46183,0.24708 -0.46238,0.24619 -0.46292,0.2453 -0.46384,0.24348 -0.46456,0.24159 -0.46484,0.24168 -0.46575,0.23985 -0.46646,0.23797 -0.46701,0.23708 -0.46758,0.2362 -0.4681,0.23531 -0.46884,0.23343 -0.46971,0.23161 -0.46996,0.23165 -0.47064,0.22978 -0.47154,0.22795 -0.471643,0.22798 -0.47284,0.22519 -0.473,0.22524 -0.47373,0.22336 -0.4743,0.22247 -0.47497,0.2206 -0.47554,0.2197 -0.47591,0.21877 -0.476797,0.21694 -0.47718,0.21601 -0.47797,0.21414 -0.47844,0.21324 -0.47887,0.21233 -0.47961,0.21043 -0.48006,0.20955 -0.48051,0.20861 -0.48123,0.20674 -0.48178,0.20586 -0.48239,0.20395 -0.48283,0.20303 -0.48321,0.2021 -0.484,0.20023 -0.48448,0.19934 -0.48509,0.19743 -0.48554,0.1965 -0.4859,0.19558 -0.48663,0.1937 -0.48707,0.19279 -0.48741,0.19184 -0.48816,0.18996 -0.4885,0.18902 -0.48921,0.18716 -0.48956,0.1862 -0.49004,0.1853 -0.49064,0.18338 -0.49099,0.18246 -0.49162,0.18054 -0.49207,0.17964 -0.49244,0.17869 -0.49295,0.17676 -0.4935,0.17588 -0.49403,0.17394 -0.49437,0.17301 -0.49475,0.17207 -0.49538,0.17016 -0.4957,0.16922 -0.49633,0.16732 -0.49643,0.16734 -0.49724,0.16445 -0.49739,0.1645 -0.49818,0.1616 -0.49824,0.16161 -0.49887,0.15972 -0.49916,0.15877 -0.499747,0.15684 -0.500089,0.1559 -0.500619,0.15398 -0.500671,0.15398 -0.501517,0.15111 -0.501544,0.15112 -0.502391,0.14823 -0.502391,0.14823 -0.50292,0.14632 -0.503238,0.14536 -0.503766,0.14343 -0.504058,0.14247 -0.504322,0.14151 -0.504852,0.13958 -0.505142,0.13862 -0.505619,0.13668 -0.505936,0.13571 -0.506413,0.1338 -0.506425,0.13379 -0.507188,0.13089 -0.507177,0.13089 -0.507683,0.12894 -0.508172,0.12702 -0.508404,0.12603 -0.508649,0.12507 -0.50887,0.12408 -0.509363,0.12216 -0.509836,0.12021 -0.510058,0.11924 -0.510262,0.11825 -0.510474,0.11727 -0.510948,0.11533 -0.511402,0.11338 -0.511607,0.1124 -0.511817,0.11142 -0.51202,0.11044 -0.512447,0.10849 -0.512871,0.10653 -0.513035,0.10552 -0.513297,0.10458 -0.513366,0.10355 -0.513887,0.10163 -0.514217,0.0996 -0.514216,0.0996 -0.5149,0.0967 -0.51471,0.0967 -0.515135,0.0947 -0.515395,0.0937 -0.515723,0.0918 -0.515792,0.0907 -0.516313,0.0888 -0.51612,0.0888 -0.516808,0.0858 -0.516615,0.0858 -0.5173,0.0829 -0.517205,0.0828 -0.517533,0.0808 -0.517694,0.0799 -0.517933,0.0779 -0.518189,0.0769 -0.518258,0.0759 -0.518589,0.0739 -0.518654,0.0729 -0.518724,0.0719 -0.519147,0.0699 -0.519477,0.0679 -0.519285,0.0679 -0.519872,0.0649 -0.519681,0.0649 -0.520107,0.0629 -0.520079,0.0619 -0.520406,0.0599 -0.520472,0.0589 -0.520541,0.0578 -0.520872,0.0559 -0.520843,0.0548 -0.521267,0.0529 -0.520977,0.0528 -0.521571,0.0498 -0.521277,0.0498 -0.521607,0.0478 -0.521936,0.0458 -0.521909,0.0447 -0.521877,0.0437 -0.521947,0.0427 -0.522274,0.0407 -0.52251,0.0387 -0.522216,0.0386 -0.522549,0.0366 -0.522777,0.0346 -0.522491,0.0345 -0.522981,0.0316 -0.52279,0.0315 -0.523023,0.0295 -0.522896,0.0284 -0.523227,0.0265 -0.523198,0.0254 -0.523166,0.0244 -0.523401,0.0224 -0.523372,0.0213 -0.523248,0.0202 -0.523576,0.0183 -0.523449,0.0172 -0.523685,0.0152 -0.523653,0.0141 -0.523626,0.0131 -0.523761,0.0111 -0.523473,0.011 -0.523867,0.008 -0.523579,0.008 -0.523811,0.006 -0.523947,0.004 -0.523822,0.003 -0.523793,0.002 -0.523668,7.9e-4 -0.523899,-0.001 -0.523777,-0.002 -0.52365,-0.003 -0.523785,-0.005 -0.523756,-0.007 -0.523796,-0.009 -0.523769,-0.01 -0.523642,-0.0107 -0.523515,-0.0118 -0.5236525,-0.0138 -0.523528,-0.0149 -0.523664,-0.0169 -0.523539,-0.018 -0.523414,-0.0191 -0.523288,-0.0202 -0.523327,-0.0222 -0.5234616,-0.0242 -0.523076,-0.0244 -0.523214,-0.0264 -0.522991,-0.0275 -0.523126,-0.0295 -0.522642,-0.0296 -0.523137,-0.0326 -0.52256,-0.0328 -0.522692,-0.0348 -0.522571,-0.0359 -0.52260501,-0.0379 -0.522126,-0.0381 -0.522261,-0.0401 -0.522301,-0.0422 -0.52207799,-0.0433 -0.521857,-0.0444 -0.521731,-0.0454 -0.521772,-0.0475 -0.521547,-0.0486 -0.521327,-0.0497 -0.521105,-0.0508 -0.521242,-0.0528 -0.521184,-0.0549 -0.520703,-0.055 -0.520739,-0.0571 -0.520518,-0.0582 -0.520298,-0.0593 -0.520239,-0.0614 -0.520116,-0.0624 -0.519795,-0.0636 -0.519837,-0.0656 -0.5196129,-0.0667 -0.519295,-0.0678 -0.519334,-0.0699 -0.518758,-0.0701 -0.518795,-0.0721 -0.518832,-0.0742 -0.518256,-0.0743 -0.518198,-0.0764 -0.517977,-0.0775 -0.517919,-0.0796 -0.517435,-0.0797 -0.51738,-0.0818 -0.517317,-0.0839 -0.516742,-0.0841 -0.516784,-0.0861 -0.516366,-0.0873 -0.516406,-0.0893 -0.515827,-0.0895 -0.515768,-0.0916 -0.515548,-0.0927 -0.515393,-0.0948 -0.514815,-0.0949 -0.514758,-0.097 -0.514699,-0.0991 -0.514025,-0.0993 -0.514061,-0.10137 -0.513649,-0.10251 -0.513427,-0.10361 -0.513014,-0.10476 -0.512857,-0.10687 -0.512541,-0.10799 -0.51222,-0.10911 -0.512164,-0.1112 -0.51149,-0.11139 -0.511432,-0.11347 -0.511016,-0.11462 -0.510863,-0.11673 -0.510283,-0.11689 -0.510225,-0.11898 -0.509813,-0.12012 -0.509656,-0.12224 -0.508981,-0.12242 -0.508926,-0.12451 -0.508508,-0.12566 -0.508096,-0.1268 -0.507941,-0.12892 -0.507363,-0.12907 -0.507206,-0.13119 -0.506698,-0.13236 -0.50664,-0.13445 -0.505963,-0.13463 -0.505715,-0.13677 -0.505394,-0.1379 -0.504981,-0.13904 -0.504664,-0.14016 -0.504602,-0.14225 -0.50364,-0.14251 -0.503195,-0.14471 -0.502491,-0.14592 -0.503016,-0.14786 -0.502047,-0.14812 -0.50257,-0.15006 -0.500901,-0.15153 -0.501161,-0.15251 -0.500457,-0.15373 -0.500978,-0.15566 -0.499046,-0.15618 -0.499571,-0.15812 -0.499834,-0.15908 -0.498161,-0.16056 -0.498419,-0.16153 -0.497009,-0.16399 -0.49798,-0.16372 -0.49657,-0.16618 -0.495872,-0.1674 -0.49612,-0.16837 -0.495689,-0.17056 -0.49471,-0.17082 -0.495239,-0.17275 -0.49331,-0.17327 -0.493832,-0.1752 -0.49313,-0.17643 -0.492678,-0.17863 -0.492681,-0.17862 -0.491979,-0.17984 -0.490572,-0.1823 -0.490829,-0.18327 -0.491101,-0.18423 -0.489418,-0.18572 -0.48968,-0.18668 -0.488011,-0.18817 -0.48854,-0.19011 -0.487569,-0.19036 -0.487122,-0.19255 -0.487389,-0.19352 -0.485719,-0.19501 -0.485981,-0.19597 -0.48527,-0.1972 -0.484567,-0.19842 -0.48386,-0.19966 -0.48439,-0.20158 -0.48246,-0.2021 -0.48298,-0.20404 -0.4813,-0.20552 -0.48157,-0.20648 -0.48087,-0.20772 -0.48112,-0.20868 -0.47946,-0.21016 -0.47875,-0.21139 -0.47902,-0.21236 -0.4776,-0.21481 -0.4776,-0.21481 -0.47716,-0.217 -0.4762,-0.21727 -0.47575,-0.21945 -0.47505,-0.22068 -0.47434,-0.22191 -0.47461,-0.22287 -0.47293,-0.22436 -0.47319,-0.22533 -0.4725,-0.22655 -0.47082,-0.22804 -0.47108,-0.229 -0.47038,-0.23023 -0.46993,-0.23242 -0.46897,-0.23269 -0.46852,-0.23487 -0.46756,-0.23514 -0.46782,-0.2361 -0.46642,-0.23855 -0.4657,-0.23978 -0.46571,-0.23978 -0.4643,-0.24223 -0.4643,-0.24224 -0.46289,-0.24468 -0.46315,-0.24565 -0.46245,-0.24688 -0.46051,-0.2474 -0.46104,-0.24933 -0.46034,-0.25055 -0.45962,-0.25178 -0.45867,-0.25205 -0.45822,-0.25423 -0.45751,-0.25546 -0.45585,-0.25695 -0.45585,-0.25695 -0.4554,-0.25914 -0.4547,-0.26036 -0.45399,-0.26159 -0.45303,-0.26186 -0.45258,-0.26404 -0.45285,-0.26501 -0.45118,-0.2665 -0.45021,-0.26676 -0.44977,-0.26895 -0.4488,-0.26921 -0.44836,-0.2714 -0.44765,-0.27263 -0.44669,-0.27289 -0.44598,-0.27412 -0.44555,-0.27631 -0.44361,-0.27683 -0.44413,-0.27876 -0.44317,-0.27902 -0.44246,-0.28025 -0.44176,-0.28147 -0.44105,-0.2827 -0.43938,-0.28419 -0.43965,-0.28515 -0.43894,-0.28638 -0.43727,-0.28787 -0.43753,-0.28883 -0.43657,-0.28909 -0.43516,-0.29155 -0.43419,-0.29181 -0.43471,-0.29373 -0.43279,-0.29426 -0.43208,-0.29549 -0.4326,-0.29741 -0.43067,-0.29794 -0.42996,-0.29917 -0.429,-0.29942 -0.42856,-0.30162 -0.42689,-0.3031 -0.42689,-0.30311 -0.42644,-0.30529 -0.424509,-0.30582 -0.42478,-0.30678 -0.4231,-0.30827 -0.42337,-0.30924 -0.42169,-0.31072 -0.42099,-0.31195 -0.42003,-0.31221 -0.41958,-0.3144 -0.41862,-0.31467 -0.41791,-0.31589 -0.41624,-0.31737 -0.41651,-0.31834 -0.41483,-0.31983 -0.41484,-0.31983 -0.41316,-0.32132 -0.41272,-0.32351 -0.41176,-0.32376 -0.41079,-0.32403 -0.40938,-0.32649 -0.40964,-0.32744 -0.40771,-0.32797 -0.40798,-0.32894 -0.4063,-0.33042 -0.4056,-0.33165 -0.40489,-0.33288 -0.40297,-0.33339 -0.40322,-0.33436 -0.40252,-0.33559 -0.40085,-0.33708 -0.40015,-0.3383 -0.39918,-0.33856 -0.39847,-0.33979 -0.39777,-0.34102 -0.39611,-0.3425 -0.39636,-0.34347 -0.39443,-0.34399 -0.39373,-0.34522 -0.39302,-0.34644 -0.39232,-0.34767 -0.39039,-0.34819 -0.39091,-0.35012 -0.38872,-0.34968 -0.38827,-0.35187 -0.38757,-0.3531 -0.38661,-0.35335 -0.38494,-0.35485 -0.38519,-0.35581 -0.38327,-0.35633 -0.38256,-0.35756 -0.38186,-0.35878 -0.38018,-0.36027 -0.38019,-0.36027 -0.37852,-0.36176 -0.37781,-0.36299 -0.37711,-0.36421 -0.37518,-0.36473 -0.37541,-0.36561 -0.37369,-0.36689 -0.37291,-0.36783 -0.37213,-0.36877 -0.37134,-0.36971 -0.36959,-0.3709 -0.36882,-0.37185 -0.36803,-0.37277 -0.36722,-0.37362 -0.3655,-0.37491 -0.36565,-0.37549 -0.36391,-0.37669 -0.36312,-0.37763 -0.36135,-0.37872 -0.36156,-0.3795 -0.35976,-0.38051 -0.359,-0.38153 -0.35723,-0.38264 -0.35739,-0.38322 -0.35564,-0.38441 -0.35485,-0.38535 -0.35404,-0.3862 -0.35228,-0.38729 -0.35245,-0.38797 -0.35068,-0.38907 -0.34891,-0.39017 -0.34908,-0.39084 -0.34732,-0.39195 -0.3465,-0.39279 -0.3457,-0.39363 -0.34392,-0.39472 -0.34411,-0.39541 -0.3423,-0.39641 -0.34056,-0.3976 -0.34071,-0.39819 -0.33892,-0.39919 -0.33813,-0.40013 -0.33729,-0.40087 -0.33553,-0.40197 -0.33471,-0.40281 -0.3339,-0.40366 -0.3331,-0.40449 -0.33129,-0.4055 -0.33052,-0.40643 -0.32965,-0.40708 -0.3279,-0.40828 -0.32803,-0.40876 -0.32626,-0.40986 -0.32446,-0.41087 -0.32459,-0.41135 -0.32282,-0.41245 -0.32104,-0.41355 -0.32117,-0.41404 -0.31938,-0.41504 -0.31856,-0.41588 -0.3177,-0.41652 -0.31595,-0.41773 -0.3151,-0.41837 -0.31428,-0.41921 -0.31246,-0.42012 -0.31165,-0.42096 -0.31081,-0.4217 -0.30998,-0.42245 -0.30818,-0.42345 -0.30735,-0.4242 -0.30554,-0.42519 -0.30568,-0.42569 -0.30385,-0.42659 -0.30207,-0.42769 -0.30218,-0.42808 -0.30038,-0.429076 -0.29954,-0.42982 -0.29772,-0.43074 -0.29688,-0.43148 -0.29605,-0.43222 -0.29425,-0.43322 -0.29435,-0.43361 -0.29156,-0.43479 -0.29169,-0.43526 -0.28986,-0.43617 -0.28903,-0.43692 -0.2872,-0.43782 -0.28734,-0.43831 -0.28454,-0.43947 -0.28465,-0.43986 -0.28281,-0.44077 -0.28199,-0.44151 -0.28112,-0.44216 -0.2793,-0.44307 -0.27841,-0.44362 -0.27664,-0.44472 -0.27575,-0.44527 -0.27489,-0.44592 -0.27402,-0.44656 -0.27218,-0.44738 -0.27134,-0.44812 -0.26951,-0.44902 -0.26863,-0.44958 -0.26779,-0.45032 -0.26691,-0.45088 -0.26505,-0.45168 -0.23622,-0.40634 -44.26202,25.685006 0.39615,0.67988 0.78988,1.33939 0.79886,1.33426 0.80685,1.32931 0.81579,1.32409 0.82373,1.31895 0.83265,1.31363 0.83958,1.30865 0.84849,1.30324 0.85735,1.29774 0.86425,1.29255 0.87308,1.28696 0.88094,1.28152 0.88877,1.27598 0.89754,1.27009 0.90439,1.26482 0.91316,1.25893 0.92092,1.2531 0.92868,1.24738 0.93641,1.24145 0.94416,1.23563 0.95188,1.22972 0.95957,1.22369 0.96725,1.21758 0.97505,1.21195 0.98258,1.20535 0.98997,1.19818 0.99788,1.19294 1.00552,1.18672 1.0122,1.18078 1.01958,1.1736 1.02723,1.16739 1.03487,1.16117 1.04226,1.15401 1.04893,1.14805 1.05658,1.14185 1.06273,1.13396 1.07135,1.1275 1.07706,1.12181 1.0854,1.11437 1.09086,1.10771 1.09921,1.10028 1.10466,1.09363 1.11328,1.08716 1.11846,1.07953 1.12585,1.07236 1.13349,1.06616 1.13868,1.05853 1.1458,1.05039 1.15249,1.04445 1.1596,1.0363 1.16506,1.02965 1.17244,1.02247 1.17764,1.01486 1.18502,1.00768 1.19117,0.9998 1.19733,0.99192 1.20375,0.985 1.20894,0.97739 1.21607,0.96925 1.22248,0.96233 1.22741,0.95375 1.23383,0.94683 1.23999,0.93895 1.24492,0.93037 1.2523,0.9232 1.25653,0.91583 1.26339,0.90673 1.26858,0.89912 1.27377,0.89149 1.27993,0.88361 1.28609,0.87574 1.29102,0.86714 1.29595,0.85857 1.30114,0.85095 1.3073,0.84306 1.31223,0.83449 1.31716,0.82589 1.32331,0.81802 1.32728,0.8097 1.33222,0.80111 1.33837,0.79323 1.34304,0.78368 1.34726,0.77633 1.3522,0.76774 1.35809,0.75889 1.36206,0.75057 1.36576,0.74129 1.37192,0.7334 1.375889,0.72508 1.38055,0.71553 1.38452,0.70721 1.38946,0.69862 1.39438,0.69004 1.39712,0.68101 1.40302,0.67217 1.40601,0.6641 1.41069,0.65456 1.41439,0.64527 1.41933,0.63668 1.42206,0.62765 1.42699,0.61907 1.4307,0.60979 1.43369,0.60172 1.43811,0.5912 1.44207,0.58288 1.44481,0.57386 1.44974,0.56527 1.45222,0.55527 1.45593,0.54599 1.45892,0.53793 1.46237,0.52767 1.46633,0.51935 1.46881,0.50936 1.47278,0.50103 1.47525,0.49104 1.47896,0.48175 1.4817,0.47273 1.484178,0.46273 1.48717,0.45467 1.49062,0.44441 1.492398,0.43565 1.49584,0.4254 1.498571,0.41636 1.500349,0.4076 1.503802,0.39735 1.505299,0.38761 1.509276,0.3793 1.509556,0.36885 1.513263,0.35957 1.515039,0.3508 1.517253,0.33984 1.519994,0.33081 1.520802,0.32231 1.524244,0.31205 1.524793,0.30259 1.52727,0.29259 1.52975,0.2826 1.530556,0.27409 1.53207,0.26436 1.534549,0.25437 1.5358,0.24366 1.537161,0.23606 1.5387,0.22527 1.54002,0.2156 1.541338,0.20591 1.542563,0.19626 1.543883,0.18659 1.544916,0.17698 1.546135,0.16733 1.5471669,0.15772 1.547839,0.14719 1.54913,0.13854 1.549707,0.12804 1.550543,0.11848 1.551284,0.10896 1.55202399,0.0994 1.55240901,0.089 1.553051,0.0795 1.553504,0.07 1.553789,0.0596 1.5545006,0.0511 1.55443,0.0397 1.5548495,0.0313 1.554946,0.021 1.554943,0.0106 1.555268,0.002 1.554909,-0.009 1.555136,-0.0174 1.554845,-0.0277 1.554551,-0.038 1.554425,-0.0473 1.553935,-0.0575 1.553617,-0.0667 1.553131,-0.077 1.55281,-0.0862 1.552033,-0.0963 1.551615,-0.10555 1.550744,-0.11568 1.549969,-0.12583 1.549262,-0.13497 1.548196,-0.14503 1.547585,-0.15419 1.546066,-0.16518 1.545521,-0.17331 1.544103,-0.18433 1.543005,-0.19335 1.541749,-0.20337 1.54056,-0.21238 1.539107,-0.22234 1.537655,-0.2323 1.536015,-0.24223 1.534723,-0.25119 1.532986,-0.26109 1.531342,-0.271 1.529667,-0.27987 1.527665,-0.29072 1.525897,-0.29957 1.524224,-0.30844 1.521939,-0.31921 1.520164,-0.32806 1.517941,-0.33782 1.515718,-0.34758 1.513708,-0.35636 1.511141,-0.36705 1.509,-0.3758 1.50654,-0.38549 1.50431,-0.39422 1.50143,-0.40483 z m -222.00044,-79.63845 -0.5322,7.9e-4 -0.51843,-0.11676 -0.47959,-0.22981 -0.41674,-0.33071 -0.33297,-0.41551 -0.23178,-0.47808 -0.11952,-0.51878 -5.3e-4,-0.53124 0.11649,-0.5194 0.22982,-0.47958 0.3307,-0.41674 0.41577,-0.332 0.47808,-0.23179 0.51879,-0.11952 0.53097,-0.002 0.51966,0.11747 0.47959,0.22981 0.41577,0.33097 0.33271,0.41454 0.23205,0.47905 0.11926,0.51782 8e-4,0.5322 -0.11676,0.51843 -0.22981,0.47959 -0.33071,0.41674 -0.41454,0.3327 -0.47905,0.23205 z m 98.691593,56.90678 -0.526676,-0.0783 -0.495631,-0.19337 -0.440143,-0.29849 -0.362055,-0.38899 -0.267346,-0.46018 -0.157874,-0.50738 -0.04091,-0.53072 0.07854,-0.5257 0.193363,-0.49564 0.298484,-0.44015 0.389001,-0.36204 0.460177,-0.26735 0.507383,-0.15788 0.530712,-0.0409 0.525708,0.0785 0.495372,0.1924 0.440142,0.29848 0.363281,0.38971 0.266123,0.45947 0.158134,0.50834 0.04065,0.52976 -0.07731,0.52641 -0.193363,0.49563 -0.298487,0.44014 -0.389964,0.36232 -0.459214,0.26709 -0.508346,0.15813 z m 213.370977,-57.59666 -0.53126,5.3e-4 -0.5194,-0.1165 -0.47958,-0.22981 -0.41672,-0.33071 -0.332,-0.41577 -0.2318,-0.47808 -0.11952,-0.51879 -0.003,-0.53097 0.11747,-0.51966 0.22982,-0.47959 0.33097,-0.41577 0.41452,-0.33271 0.47905,-0.23204 0.51782,-0.11926 0.53221,-8e-4 0.51842,0.11676 0.47962,0.22982 0.41671,0.3307 0.33272,0.41455 0.23204,0.47905 0.11927,0.51781 v 0.53221 l -0.11676,0.51843 -0.22982,0.47958 -0.3307,0.41674 -0.4155,0.33297 -0.47808,0.2318 z m -95.65822,69.57819 -0.51179,0.11038 -0.51551,0.0917 -0.51811,0.0748 -0.52062,0.0558 -0.522235,0.0376 -0.523266,0.0192 -0.52369,8e-4 -0.523293,-0.017 -0.522234,-0.0349 -0.520938,-0.0539 -0.518478,-0.0712 -0.516017,-0.0905 -0.51218,-0.10705 -0.508344,-0.1257 -0.503687,-0.14354 -0.498264,-0.16054 -0.49231,-0.17768 -0.485854,-0.19497 -0.478923,-0.21239 -0.471011,-0.22798 -0.462782,-0.24471 -0.454187,-0.26154 -0.444674,-0.27655 -0.434674,-0.29167 -0.424291,-0.30692 -0.413261,-0.32129 -0.401843,-0.33577 -0.389782,-0.34939 -0.377523,-0.36306 -0.364263,-0.37494 -0.351329,-0.38879 -0.337326,-0.39983 -0.323193,-0.41193 -0.308804,-0.42308 -0.293669,-0.43338 -0.278532,-0.44369 -0.262847,-0.45311 -0.246806,-0.46158 -0.230569,-0.47013 -0.213974,-0.47771 -0.197286,-0.48533 -0.180073,-0.49103 -0.16293,-0.49772 -0.145524,-0.50347 -0.127696,-0.50726 -0.110027,-0.51203 -0.09184,-0.51487 -0.07411,-0.51863 -0.05585,-0.52046 -0.03769,-0.52226 -0.01937,-0.52307 -0.0013,-0.52383 0.01707,-0.52359 0.03532,-0.52231 0.05359,-0.52104 0.07164,-0.51867 0.08994,-0.51532 0.107598,-0.51285 0.125489,-0.50836 0.143447,-0.50286 0.160663,-0.49819 0.177945,-0.4925 0.195104,-0.48574 0.211876,-0.47888 0.22852,-0.47095 0.244782,-0.46292 0.260559,-0.45475 0.276474,-0.44455 0.291997,-0.43424 0.306678,-0.42475 0.321451,-0.4132 0.335743,-0.40153 0.349514,-0.38971 0.362773,-0.37775 0.37578,-0.3647 0.388501,-0.35053 0.400148,-0.33813 0.412014,-0.3227 0.422807,-0.30904 0.433525,-0.29329 0.443423,-0.27836 0.452729,-0.26326 0.461682,-0.24704 0.470032,-0.23065 0.477837,-0.21411 0.48522,-0.19642 0.49149,-0.18052 0.497707,-0.1625 0.502735,-0.14626 0.507947,-0.12695 0.511784,-0.11038 0.515514,-0.0917 0.518107,-0.0748 0.520621,-0.0558 0.522234,-0.0376 0.52324,-0.0192 0.523716,-8e-4 0.523267,0.017 0.522261,0.0349 0.520915,0.0539 0.5185,0.0712 0.51599,0.0905 0.51221,0.10705 0.50834,0.1257 0.50369,0.14353 0.49826,0.16054 0.49231,0.17769 0.48586,0.19497 0.47889,0.21238 0.47101,0.22799 0.46281,0.24471 0.45419,0.26154 0.44466,0.27654 0.43468,0.29168 0.42429,0.30691 0.41328,0.32129 0.40182,0.33577 0.38978,0.3494 0.37727,0.36209 0.36452,0.3759 0.35134,0.3888 0.33732,0.39982 0.32318,0.41194 0.30883,0.42307 0.29366,0.43338 0.27852,0.44369 0.26287,0.45311 0.2468,0.46159 0.23056,0.47012 0.21397,0.47772 0.1973,0.48533 0.18007,0.49102 0.16293,0.49773 0.14526,0.50251 0.12795,0.50821 0.11004,0.51203 0.0918,0.51488 0.0741,0.51863 0.0559,0.52046 0.0377,0.52226 0.0193,0.52307 v 0.52382 l -0.0169,0.5236 -0.0353,0.5223 -0.0536,0.52105 -0.0716,0.51866 -0.0899,0.51533 -0.1076,0.51285 -0.12576,0.50739 -0.14317,0.50382 -0.16068,0.49819 -0.17793,0.4925 -0.1951,0.48575 -0.21188,0.47888 -0.22852,0.47094 -0.2448,0.46293 -0.26056,0.45475 -0.27646,0.44455 -0.292,0.43424 -0.30667,0.42475 -0.32145,0.4132 -0.33575,0.40152 -0.34952,0.38971 -0.36277,0.37776 -0.37578,0.3647 -0.38849,0.35052 -0.40016,0.33814 -0.41201,0.3227 -0.4228,0.30904 -0.43352,0.29329 -0.44344,0.27836 -0.45273,0.26326 -0.46167,0.24703 -0.47004,0.23066 -0.47781,0.2141 -0.48524,0.19643 -0.49149,0.18051 -0.49771,0.16251 -0.50297,0.14529 z"
     id="path4-6"
     inkscape:connector-curvature="0"
     style="fill:#d3d3d3;stroke:#000000;stroke-width:0.5" />
</svg>
