<?xml version="1.0" encoding="UTF-8" standalone="no"?>
<!-- Created with Inkscape (http://www.inkscape.org/) -->

<svg
   xmlns:dc="http://purl.org/dc/elements/1.1/"
   xmlns:cc="http://creativecommons.org/ns#"
   xmlns:rdf="http://www.w3.org/1999/02/22-rdf-syntax-ns#"
   xmlns:svg="http://www.w3.org/2000/svg"
   xmlns="http://www.w3.org/2000/svg"
   xmlns:sodipodi="http://sodipodi.sourceforge.net/DTD/sodipodi-0.dtd"
   xmlns:inkscape="http://www.inkscape.org/namespaces/inkscape"
   width="8in"
   height="6in"
   viewBox="0 0 203.2 152.4"
   version="1.1"
   id="svg8"
   inkscape:version="0.92.5 (2060ec1f9f, 2020-04-08)"
   sodipodi:docname="motormount.svg">
  <defs
     id="defs2" />
  <sodipodi:namedview
     id="base"
     pagecolor="#ffffff"
     bordercolor="#666666"
     borderopacity="1.0"
     inkscape:pageopacity="0.0"
     inkscape:pageshadow="2"
     inkscape:zoom="0.70710678"
     inkscape:cx="41.666918"
     inkscape:cy="514.92077"
     inkscape:document-units="mm"
     inkscape:current-layer="layer1"
     showgrid="false"
     units="in"
     width="8in"
     inkscape:window-width="1920"
     inkscape:window-height="1009"
     inkscape:window-x="1920"
     inkscape:window-y="0"
     inkscape:window-maximized="1" />
  <metadata
     id="metadata5">
    <rdf:RDF>
      <cc:Work
         rdf:about="">
        <dc:format>image/svg+xml</dc:format>
        <dc:type
           rdf:resource="http://purl.org/dc/dcmitype/StillImage" />
        <dc:title></dc:title>
      </cc:Work>
    </rdf:RDF>
  </metadata>
  <g
     inkscape:label="Layer 1"
     inkscape:groupmode="layer"
     id="layer1"
     transform="translate(0,-144.6)">
    <rect
       style="fill:none;stroke-width:0.26458332"
       id="rect3717"
       width="127.75595"
       height="97.51786"
       x="78.619049"
       y="122.375" />
    <rect
       style="fill:none;stroke-width:0.26458332"
       id="rect3719"
       width="75.595238"
       height="89.958336"
       x="78.619049"
       y="122.375" />
    <rect
       style="fill:none;stroke:#000000;stroke-width:0.34967363"
       id="rect3725"
       width="177.45033"
       height="75.850327"
       x="13.504196"
       y="185.92722" />
    <circle
       style="fill:none;stroke:#000000;stroke-width:0.26395127"
       id="path3930-8"
       cy="253.03946"
       cx="21.6154"
       r="2.0778244" />
    <circle
       style="fill:none;stroke:#000000;stroke-width:0.26364568"
       id="path3930-9"
       cy="194.49171"
       cx="181.83347"
       r="2.0779772" />
    <circle
       style="fill:none;stroke:#000000;stroke-width:0.26364568"
       id="path3930-9-7"
       cy="253.03871"
       cx="181.83348"
       r="2.0779772" />
    <circle
       style="fill:none;stroke:#000000;stroke-width:0.26364568"
       id="path3930-9-3"
       cy="223.93031"
       cx="181.83348"
       r="2.0779772" />
    <circle
       style="fill:none;stroke:#000000;stroke-width:0.26364568"
       id="path3930-9-3-6"
       cy="223.93031"
       cx="21.610273"
       r="2.0779772" />
    <circle
       style="fill:none;stroke:#000000;stroke-width:0.26364568"
       id="path3930-9-3-6-3"
       cy="194.48659"
       cx="21.5646"
       r="2.0779772" />
    <path
       inkscape:connector-curvature="0"
       style="fill:none;stroke:#000000;stroke-width:0.26458332"
       d="m 83.037893,250.13277 a 2.0827999,2.0827999 0 0 1 -1.0414,1.80376 2.0827999,2.0827999 0 0 1 -2.0828,0 2.0827999,2.0827999 0 0 1 -1.041399,-1.80376"
       id="path108-6" />
    <path
       inkscape:connector-curvature="0"
       style="fill:none;stroke:#000000;stroke-width:0.26458332"
       d="m 78.872294,248.18218 a 2.0827999,2.0827999 0 0 1 1.041399,-1.80376 2.0827999,2.0827999 0 0 1 2.0828,0 2.0827999,2.0827999 0 0 1 1.0414,1.80376"
       id="path108-3-7" />
    <path
       style="fill:none;stroke:#000000;stroke-width:0.26458332px;stroke-linecap:butt;stroke-linejoin:miter;stroke-opacity:1"
       d="m 78.872292,250.13277 v -1.95059 z"
       id="path127-5"
       inkscape:connector-curvature="0" />
    <path
       style="fill:none;stroke:#000000;stroke-width:0.26458332px;stroke-linecap:butt;stroke-linejoin:miter;stroke-opacity:1"
       d="m 83.037892,250.13277 v -1.95059 z"
       id="path129-3"
       inkscape:connector-curvature="0" />
    <path
       inkscape:connector-curvature="0"
       style="fill:none;stroke:#000000;stroke-width:0.26458332"
       d="m 121.13789,250.13277 a 2.0827999,2.0827999 0 0 1 -1.0414,1.80376 2.0827999,2.0827999 0 0 1 -2.0828,0 2.0827999,2.0827999 0 0 1 -1.0414,-1.80376"
       id="path108-9" />
    <path
       inkscape:connector-curvature="0"
       style="fill:none;stroke:#000000;stroke-width:0.26458332"
       d="m 116.97229,248.18218 a 2.0827999,2.0827999 0 0 1 1.0414,-1.80376 2.0827999,2.0827999 0 0 1 2.0828,0 2.0827999,2.0827999 0 0 1 1.0414,1.80376"
       id="path108-3-3" />
    <path
       style="fill:none;stroke:#000000;stroke-width:0.26458332px;stroke-linecap:butt;stroke-linejoin:miter;stroke-opacity:1"
       d="m 116.97229,250.13277 v -1.95059 z"
       id="path127-6"
       inkscape:connector-curvature="0" />
    <path
       style="fill:none;stroke:#000000;stroke-width:0.26458332px;stroke-linecap:butt;stroke-linejoin:miter;stroke-opacity:1"
       d="m 121.13789,250.13277 v -1.95059 z"
       id="path129-0"
       inkscape:connector-curvature="0" />
    <path
       inkscape:connector-curvature="0"
       style="fill:none;stroke:#000000;stroke-width:0.26458332"
       d="m 83.037893,199.33277 a 2.0827999,2.0827999 0 0 1 -1.0414,1.80376 2.0827999,2.0827999 0 0 1 -2.0828,0 2.0827999,2.0827999 0 0 1 -1.041399,-1.80376"
       id="path108-62" />
    <path
       inkscape:connector-curvature="0"
       style="fill:none;stroke:#000000;stroke-width:0.26458332"
       d="m 78.872294,197.38218 a 2.0827999,2.0827999 0 0 1 1.041399,-1.80376 2.0827999,2.0827999 0 0 1 2.0828,0 2.0827999,2.0827999 0 0 1 1.0414,1.80376"
       id="path108-3-6" />
    <path
       style="fill:none;stroke:#000000;stroke-width:0.26458332px;stroke-linecap:butt;stroke-linejoin:miter;stroke-opacity:1"
       d="m 78.872292,199.33277 v -1.95059 z"
       id="path127-1"
       inkscape:connector-curvature="0" />
    <path
       style="fill:none;stroke:#000000;stroke-width:0.26458332px;stroke-linecap:butt;stroke-linejoin:miter;stroke-opacity:1"
       d="m 83.037892,199.33277 v -1.95059 z"
       id="path129-8"
       inkscape:connector-curvature="0" />
    <path
       inkscape:connector-curvature="0"
       style="fill:none;stroke:#000000;stroke-width:0.26458332"
       d="m 121.13789,199.33277 a 2.0827999,2.0827999 0 0 1 -1.0414,1.80376 2.0827999,2.0827999 0 0 1 -2.0828,0 2.0827999,2.0827999 0 0 1 -1.0414,-1.80376"
       id="path108-7" />
    <path
       inkscape:connector-curvature="0"
       style="fill:none;stroke:#000000;stroke-width:0.26458332"
       d="m 116.97229,197.38218 a 2.0827999,2.0827999 0 0 1 1.0414,-1.80376 2.0827999,2.0827999 0 0 1 2.0828,0 2.0827999,2.0827999 0 0 1 1.0414,1.80376"
       id="path108-3-9" />
    <path
       style="fill:none;stroke:#000000;stroke-width:0.26458332px;stroke-linecap:butt;stroke-linejoin:miter;stroke-opacity:1"
       d="m 116.97229,199.33277 v -1.95059 z"
       id="path127-2"
       inkscape:connector-curvature="0" />
    <path
       style="fill:none;stroke:#000000;stroke-width:0.26458332px;stroke-linecap:butt;stroke-linejoin:miter;stroke-opacity:1"
       d="m 121.13789,199.33277 v -1.95059 z"
       id="path129-02"
       inkscape:connector-curvature="0" />
  </g>
</svg>
